<svg width="62" height="63" viewBox="0 0 62 63" fill="none" xmlns="http://www.w3.org/2000/svg">
<path fill-rule="evenodd" clip-rule="evenodd" d="M52.8036 41.0557C52.8036 38.0531 50.3696 35.6191 47.3671 35.6191C44.3645 35.6191 41.9305 38.0531 41.9305 41.0557C41.9305 44.0582 44.3645 46.4922 47.3671 46.4922C50.3696 46.4922 52.8036 44.0582 52.8036 41.0557V41.0557ZM45.037 41.0557C45.037 39.7689 46.0802 38.7257 47.3669 38.7257C48.6537 38.7257 49.6969 39.7689 49.6969 41.0557C49.6969 42.3424 48.6537 43.3856 47.3669 43.3856C46.0802 43.3856 45.037 42.3424 45.037 41.0557ZM20.1842 41.0557C20.1842 38.0531 17.7502 35.6191 14.7476 35.6191C11.745 35.6191 9.31104 38.0531 9.31104 41.0557C9.31104 44.0582 11.745 46.4922 14.7476 46.4922C17.7502 46.4922 20.1842 44.0582 20.1842 41.0557ZM12.4177 41.0557C12.4177 39.7689 13.4608 38.7257 14.7476 38.7257C16.0344 38.7257 17.0775 39.7689 17.0775 41.0557C17.0775 42.3424 16.0344 43.3856 14.7476 43.3856C13.4608 43.3857 12.4177 42.3424 12.4177 41.0557Z" fill="url(#paint0_linear_226_216)"/>
<path fill-rule="evenodd" clip-rule="evenodd" d="M8.53434 15.4263H32.6106C33.3836 15.4263 34.039 15.9946 34.1482 16.7599L35.2626 24.5608C35.3955 25.4911 36.3279 26.2994 37.2699 26.2994H50.4735C50.7922 26.2994 51.1032 26.3974 51.3643 26.5802C51.6683 26.793 52.0748 27.0848 52.6077 27.472C52.9795 27.7425 53.3746 28.0318 53.7678 28.3211C54.0036 28.4947 54.1866 28.6299 54.2578 28.6833C56.0777 29.9572 57.4634 32.6209 57.4634 34.8444V39.5025C57.4634 40.3604 56.768 41.0558 55.9101 41.0558H54.3568C54.3568 37.1955 51.2273 34.0659 47.3669 34.0659C43.5064 34.0659 40.377 37.1954 40.377 41.0558H21.7373C21.7373 37.1955 18.6079 34.0659 14.7474 34.0659C10.887 34.0659 7.75752 37.1954 7.75752 41.0558H6.2042C5.34631 41.0558 4.65088 40.3604 4.65088 39.5025V31.736C4.65088 31.6549 4.65728 31.5738 4.66986 31.4937L6.71974 18.511C5.98614 18.3869 5.42749 17.7485 5.42749 16.9796C5.42749 16.1217 6.12292 15.4263 6.98081 15.4263H8.53434Z" fill="url(#paint1_linear_226_216)"/>
<path fill-rule="evenodd" clip-rule="evenodd" d="M44.2603 18.5329C42.9387 16.7707 40.2508 15.4263 38.047 15.4263H32.6105C31.7526 15.4263 31.0571 16.1217 31.0571 16.9796C31.0571 17.8375 31.7526 18.5329 32.6105 18.5329H38.047C39.2728 18.5329 41.0399 19.4168 41.7749 20.3969L46.9008 27.2315C47.0064 27.3724 47.1353 27.4942 47.2819 27.5919L49.6118 29.1452C50.3256 29.621 51.29 29.4281 51.7658 28.7143C52.2417 28.0006 52.0488 27.0361 51.335 26.5603L49.2304 25.1572L44.2603 18.5329Z" fill="url(#paint2_linear_226_216)"/>
<defs>
<linearGradient id="paint0_linear_226_216" x1="31.5119" y1="91.039" x2="18.3476" y2="-58.7023" gradientUnits="userSpaceOnUse">
<stop stop-color="#0B7377"/>
<stop offset="0.12" stop-color="#12777B"/>
<stop offset="0.29" stop-color="#248387"/>
<stop offset="0.48" stop-color="#439699"/>
<stop offset="0.7" stop-color="#6DB1B3"/>
<stop offset="0.94" stop-color="#A3D2D5"/>
<stop offset="1" stop-color="#B2DCDE"/>
</linearGradient>
<linearGradient id="paint1_linear_226_216" x1="31.6091" y1="146.059" x2="-27.3735" y2="-199.565" gradientUnits="userSpaceOnUse">
<stop stop-color="#0B7377"/>
<stop offset="0.12" stop-color="#12777B"/>
<stop offset="0.29" stop-color="#248387"/>
<stop offset="0.48" stop-color="#439699"/>
<stop offset="0.7" stop-color="#6DB1B3"/>
<stop offset="0.94" stop-color="#A3D2D5"/>
<stop offset="1" stop-color="#B2DCDE"/>
</linearGradient>
<linearGradient id="paint2_linear_226_216" x1="41.7612" y1="86.6814" x2="-1.35378" y2="-97.2259" gradientUnits="userSpaceOnUse">
<stop stop-color="#0B7377"/>
<stop offset="0.12" stop-color="#12777B"/>
<stop offset="0.29" stop-color="#248387"/>
<stop offset="0.48" stop-color="#439699"/>
<stop offset="0.7" stop-color="#6DB1B3"/>
<stop offset="0.94" stop-color="#A3D2D5"/>
<stop offset="1" stop-color="#B2DCDE"/>
</linearGradient>
</defs>
</svg>
