<svg width="62" height="63" viewBox="0 0 62 63" fill="none" xmlns="http://www.w3.org/2000/svg">
<g clip-path="url(#clip0_226_229)">
<path d="M39.7368 23.5501C39.7371 23.8045 39.8392 24.0484 40.0207 24.2283C40.2022 24.4082 40.4482 24.5094 40.7048 24.5098H50.4038L48.3492 18.907C48.0097 17.9812 47.3911 17.1814 46.5773 16.6162C45.7636 16.0511 44.7941 15.7478 43.8005 15.7477H39.7368V23.5501Z" fill="url(#paint0_linear_226_229)"/>
<path d="M50.3845 41.6596C50.9191 41.6596 51.3524 41.2299 51.3524 40.6999C51.3524 40.1698 50.9191 39.7402 50.3845 39.7402C49.8499 39.7402 49.4165 40.1698 49.4165 40.6999C49.4165 41.2299 49.8499 41.6596 50.3845 41.6596Z" fill="black"/>
<path d="M50.3845 34.9417C49.2358 34.9417 48.1129 35.2794 47.1578 35.9121C46.2027 36.5448 45.4583 37.4441 45.0188 38.4963C44.5792 39.5484 44.4642 40.7062 44.6883 41.8232C44.9124 42.9402 45.4655 43.9662 46.2777 44.7715C47.09 45.5768 48.1248 46.1252 49.2514 46.3474C50.378 46.5696 51.5458 46.4555 52.607 46.0197C53.6683 45.5839 54.5753 44.8458 55.2135 43.8989C55.8517 42.952 56.1923 41.8387 56.1923 40.6998C56.1923 39.1727 55.5804 37.7081 54.4912 36.6282C53.4021 35.5483 51.9248 34.9417 50.3845 34.9417ZM50.3845 43.5789C49.8101 43.5789 49.2487 43.4101 48.7712 43.0937C48.2936 42.7774 47.9214 42.3277 47.7016 41.8016C47.4818 41.2755 47.4243 40.6966 47.5364 40.1382C47.6484 39.5797 47.925 39.0667 48.3311 38.664C48.7372 38.2614 49.2547 37.9872 49.818 37.8761C50.3813 37.765 50.9651 37.822 51.4958 38.0399C52.0264 38.2578 52.4799 38.6268 52.799 39.1003C53.1181 39.5738 53.2884 40.1304 53.2884 40.6998C53.2876 41.4632 52.9813 42.195 52.4369 42.7347C51.8925 43.2745 51.1544 43.5781 50.3845 43.5789Z" fill="url(#paint1_linear_226_229)"/>
<path d="M1.01758 31.1029V37.8208C1.01758 38.5844 1.32352 39.3167 1.86811 39.8566C2.4127 40.3965 3.15132 40.6999 3.92149 40.6999C3.92149 38.6637 4.73735 36.7108 6.18958 35.271C7.64182 33.8312 9.61148 33.0223 11.6653 33.0223C13.719 33.0223 15.6887 33.8312 17.1409 35.271C18.5932 36.7108 19.409 38.6637 19.409 40.6999H32.9606V28.2238H3.92149C3.15132 28.2238 2.4127 28.5271 1.86811 29.0671C1.32352 29.607 1.01758 30.3393 1.01758 31.1029V31.1029Z" fill="url(#paint2_linear_226_229)"/>
<path d="M11.6652 34.9417C10.5166 34.9417 9.39368 35.2794 8.43859 35.9121C7.4835 36.5448 6.7391 37.4441 6.29952 38.4963C5.85994 39.5484 5.74492 40.7062 5.96902 41.8232C6.19312 42.9402 6.74626 43.9662 7.5585 44.7715C8.37073 45.5768 9.40559 46.1252 10.5322 46.3474C11.6588 46.5696 12.8266 46.4555 13.8878 46.0197C14.949 45.5839 15.8561 44.8458 16.4943 43.8989C17.1324 42.952 17.4731 41.8387 17.4731 40.6998C17.4731 39.1727 16.8612 37.7081 15.772 36.6282C14.6828 35.5483 13.2056 34.9417 11.6652 34.9417ZM11.6652 43.5789C11.0909 43.5789 10.5295 43.4101 10.0519 43.0937C9.57437 42.7774 9.20217 42.3277 8.98238 41.8016C8.76259 41.2755 8.70509 40.6966 8.81713 40.1382C8.92918 39.5797 9.20575 39.0667 9.61187 38.664C10.018 38.2614 10.5354 37.9872 11.0987 37.8761C11.662 37.765 12.2459 37.822 12.7765 38.0399C13.3071 38.2578 13.7607 38.6268 14.0798 39.1003C14.3988 39.5738 14.5692 40.1304 14.5692 40.6998C14.5683 41.4632 14.2621 42.195 13.7177 42.7347C13.1733 43.2745 12.4352 43.5781 11.6652 43.5789V43.5789Z" fill="url(#paint3_linear_226_229)"/>
<path d="M11.6652 41.6596C12.1998 41.6596 12.6332 41.2299 12.6332 40.6999C12.6332 40.1698 12.1998 39.7402 11.6652 39.7402C11.1306 39.7402 10.6973 40.1698 10.6973 40.6999C10.6973 41.2299 11.1306 41.6596 11.6652 41.6596Z" fill="url(#paint4_linear_226_229)"/>
<path d="M59.0962 34.9417C58.3261 34.9417 57.5874 34.6384 57.0429 34.0984C56.4983 33.5585 56.1923 32.8262 56.1923 32.0626C56.1923 31.299 56.4983 30.5667 57.0429 30.0268C57.5874 29.4868 58.3261 29.1835 59.0962 29.1835H59.438C58.6184 28.3087 57.5434 27.71 56.3635 27.4712L51.1082 26.4292H40.7048C39.9349 26.4283 39.1968 26.1247 38.6524 25.585C38.1079 25.0452 37.8017 24.3134 37.8009 23.5501V15.7477C37.0307 15.7477 36.2921 16.0511 35.7475 16.591C35.2029 17.1309 34.897 17.8633 34.897 18.6268V40.6999H42.6407C42.6407 38.6636 43.4566 36.7108 44.9088 35.271C46.3611 33.8312 48.3307 33.0223 50.3845 33.0223C52.4383 33.0223 54.4079 33.8312 55.8602 35.271C57.3124 36.7108 58.1283 38.6636 58.1283 40.6999C58.8984 40.6999 59.637 40.3965 60.1816 39.8566C60.7262 39.3167 61.0322 38.5844 61.0322 37.8208V34.9417H59.0962ZM42.6407 31.1029H40.7048C40.4481 31.1029 40.2019 31.0018 40.0203 30.8218C39.8388 30.6418 39.7368 30.3977 39.7368 30.1432C39.7368 29.8887 39.8388 29.6446 40.0203 29.4646C40.2019 29.2846 40.4481 29.1835 40.7048 29.1835H42.6407C42.8975 29.1835 43.1437 29.2846 43.3252 29.4646C43.5067 29.6446 43.6087 29.8887 43.6087 30.1432C43.6087 30.3977 43.5067 30.6418 43.3252 30.8218C43.1437 31.0018 42.8975 31.1029 42.6407 31.1029Z" fill="url(#paint5_linear_226_229)"/>
<path d="M58.1279 32.0626C58.1283 32.317 58.2304 32.5609 58.4118 32.7408C58.5933 32.9208 58.8393 33.022 59.0959 33.0223H61.0234C61.0139 32.3667 60.8912 31.7175 60.6606 31.1029H59.0959C58.8393 31.1032 58.5933 31.2045 58.4118 31.3844C58.2304 31.5643 58.1283 31.8082 58.1279 32.0626V32.0626Z" fill="url(#paint6_linear_226_229)"/>
</g>
<defs>
<linearGradient id="paint0_linear_226_229" x1="45.1818" y1="60.4074" x2="12.7621" y2="-51.8284" gradientUnits="userSpaceOnUse">
<stop stop-color="#0B7377"/>
<stop offset="0.12" stop-color="#12777B"/>
<stop offset="0.29" stop-color="#248387"/>
<stop offset="0.48" stop-color="#439699"/>
<stop offset="0.7" stop-color="#6DB1B3"/>
<stop offset="0.94" stop-color="#A3D2D5"/>
<stop offset="1" stop-color="#B2DCDE"/>
</linearGradient>
<linearGradient id="paint1_linear_226_229" x1="50.5059" y1="93.6401" x2="0.822259" y2="-48.8631" gradientUnits="userSpaceOnUse">
<stop stop-color="#0B7377"/>
<stop offset="0.12" stop-color="#12777B"/>
<stop offset="0.29" stop-color="#248387"/>
<stop offset="0.48" stop-color="#439699"/>
<stop offset="0.7" stop-color="#6DB1B3"/>
<stop offset="0.94" stop-color="#A3D2D5"/>
<stop offset="1" stop-color="#B2DCDE"/>
</linearGradient>
<linearGradient id="paint2_linear_226_229" x1="17.3229" y1="91.8138" x2="-6.01752" y2="-78.1246" gradientUnits="userSpaceOnUse">
<stop stop-color="#0B7377"/>
<stop offset="0.12" stop-color="#12777B"/>
<stop offset="0.29" stop-color="#248387"/>
<stop offset="0.48" stop-color="#439699"/>
<stop offset="0.7" stop-color="#6DB1B3"/>
<stop offset="0.94" stop-color="#A3D2D5"/>
<stop offset="1" stop-color="#B2DCDE"/>
</linearGradient>
<linearGradient id="paint3_linear_226_229" x1="11.7866" y1="93.6401" x2="-37.897" y2="-48.8631" gradientUnits="userSpaceOnUse">
<stop stop-color="#0B7377"/>
<stop offset="0.12" stop-color="#12777B"/>
<stop offset="0.29" stop-color="#248387"/>
<stop offset="0.48" stop-color="#439699"/>
<stop offset="0.7" stop-color="#6DB1B3"/>
<stop offset="0.94" stop-color="#A3D2D5"/>
<stop offset="1" stop-color="#B2DCDE"/>
</linearGradient>
<linearGradient id="paint4_linear_226_229" x1="11.6855" y1="49.5232" x2="3.40487" y2="25.7727" gradientUnits="userSpaceOnUse">
<stop stop-color="#0B7377"/>
<stop offset="0.12" stop-color="#12777B"/>
<stop offset="0.29" stop-color="#248387"/>
<stop offset="0.48" stop-color="#439699"/>
<stop offset="0.7" stop-color="#6DB1B3"/>
<stop offset="0.94" stop-color="#A3D2D5"/>
<stop offset="1" stop-color="#B2DCDE"/>
</linearGradient>
<linearGradient id="paint5_linear_226_229" x1="48.2377" y1="142.928" x2="-56.2464" y2="-168.281" gradientUnits="userSpaceOnUse">
<stop stop-color="#0B7377"/>
<stop offset="0.12" stop-color="#12777B"/>
<stop offset="0.29" stop-color="#248387"/>
<stop offset="0.48" stop-color="#439699"/>
<stop offset="0.7" stop-color="#6DB1B3"/>
<stop offset="0.94" stop-color="#A3D2D5"/>
<stop offset="1" stop-color="#B2DCDE"/>
</linearGradient>
<linearGradient id="paint6_linear_226_229" x1="59.6059" y1="40.886" x2="53.7165" y2="15.6213" gradientUnits="userSpaceOnUse">
<stop stop-color="#0B7377"/>
<stop offset="0.12" stop-color="#12777B"/>
<stop offset="0.29" stop-color="#248387"/>
<stop offset="0.48" stop-color="#439699"/>
<stop offset="0.7" stop-color="#6DB1B3"/>
<stop offset="0.94" stop-color="#A3D2D5"/>
<stop offset="1" stop-color="#B2DCDE"/>
</linearGradient>
<clipPath id="clip0_226_229">
<rect width="62" height="62" fill="white" transform="translate(0 0.304321)"/>
</clipPath>
</defs>
</svg>
