<svg width="62" height="63" viewBox="0 0 62 63" fill="none" xmlns="http://www.w3.org/2000/svg">
<path d="M17.2578 33.8873C16.1969 33.8873 15.1599 34.2018 14.2779 34.7912C13.3958 35.3806 12.7083 36.2183 12.3023 37.1984C11.8964 38.1785 11.7901 39.257 11.9971 40.2974C12.2041 41.3379 12.7149 42.2936 13.4651 43.0438C14.2152 43.7939 15.1709 44.3047 16.2114 44.5117C17.2518 44.7187 18.3303 44.6124 19.3104 44.2065C20.2905 43.8005 21.1282 43.113 21.7176 42.231C22.307 41.3489 22.6215 40.3119 22.6215 39.251C22.6199 37.829 22.0543 36.4656 21.0488 35.4601C20.0432 34.4545 18.6799 33.8889 17.2578 33.8873V33.8873ZM17.2578 41.7266C16.7682 41.7266 16.2895 41.5814 15.8824 41.3094C15.4753 41.0374 15.158 40.6507 14.9707 40.1984C14.7833 39.746 14.7343 39.2483 14.8298 38.7681C14.9253 38.2878 15.1611 37.8467 15.5073 37.5005C15.8535 37.1543 16.2946 36.9185 16.7748 36.823C17.255 36.7275 17.7528 36.7765 18.2052 36.9639C18.6575 37.1513 19.0441 37.4686 19.3162 37.8757C19.5882 38.2828 19.7334 38.7614 19.7334 39.251C19.7334 39.9076 19.4726 40.5373 19.0083 41.0015C18.544 41.4658 17.9144 41.7266 17.2578 41.7266V41.7266Z" fill="url(#paint0_linear_226_230)"/>
<path d="M46.9643 33.8873C45.9035 33.8873 44.8665 34.2018 43.9844 34.7912C43.1023 35.3806 42.4148 36.2183 42.0089 37.1984C41.6029 38.1785 41.4967 39.257 41.7037 40.2974C41.9106 41.3379 42.4215 42.2936 43.1716 43.0438C43.9217 43.7939 44.8775 44.3047 45.9179 44.5117C46.9584 44.7187 48.0369 44.6124 49.017 44.2065C49.9971 43.8005 50.8348 43.113 51.4241 42.231C52.0135 41.3489 52.3281 40.3119 52.3281 39.251C52.3265 37.829 51.7609 36.4656 50.7553 35.4601C49.7498 34.4545 48.3864 33.8889 46.9643 33.8873V33.8873ZM46.9643 41.7266C46.4747 41.7266 45.9961 41.5814 45.589 41.3094C45.1819 41.0374 44.8646 40.6507 44.6772 40.1984C44.4898 39.746 44.4408 39.2483 44.5363 38.7681C44.6318 38.2878 44.8676 37.8467 45.2138 37.5005C45.5601 37.1543 46.0012 36.9185 46.4814 36.823C46.9616 36.7275 47.4593 36.7765 47.9117 36.9639C48.3641 37.1513 48.7507 37.4686 49.0227 37.8757C49.2947 38.2828 49.4399 38.7614 49.4399 39.251C49.4399 39.9076 49.1791 40.5373 48.7148 41.0015C48.2506 41.4658 47.6209 41.7266 46.9643 41.7266Z" fill="url(#paint1_linear_226_230)"/>
<path d="M54.1237 29.4559L44.4896 27.6983L36.2877 20.893C35.4748 20.2253 34.4557 19.8599 33.4038 19.859H21.3203C20.6393 19.8573 19.9668 20.0097 19.3531 20.3047C18.7394 20.5997 18.2003 21.0296 17.7762 21.5624L12.5373 27.6983H9.00633C8.02182 27.6994 7.07795 28.091 6.38179 28.7871C5.68564 29.4833 5.29406 30.4271 5.29297 31.4117V35.9502C5.29431 37.1535 5.7729 38.3071 6.62376 39.158C7.47461 40.0088 8.62824 40.4874 9.83153 40.4888H10.7748C10.5917 39.5339 10.6218 38.5503 10.863 37.6084C11.1041 36.6665 11.5503 35.7895 12.1697 35.0401C12.7891 34.2906 13.5664 33.6872 14.446 33.273C15.3257 32.8589 16.286 32.6441 17.2583 32.6441C18.2305 32.6441 19.1908 32.8589 20.0705 33.273C20.9501 33.6872 21.7274 34.2906 22.3468 35.0401C22.9662 35.7895 23.4124 36.6665 23.6536 37.6084C23.8947 38.5503 23.9248 39.5339 23.7417 40.4888H40.4817C40.2987 39.5339 40.3288 38.5503 40.5699 37.6084C40.811 36.6665 41.2572 35.7895 41.8766 35.0401C42.496 34.2906 43.2733 33.6872 44.153 33.273C45.0326 32.8589 45.9929 32.6441 46.9652 32.6441C47.9375 32.6441 48.8977 32.8589 49.7774 33.273C50.657 33.6872 51.4343 34.2906 52.0537 35.0401C52.6732 35.7895 53.1194 36.6665 53.3605 37.6084C53.6016 38.5503 53.6317 39.5339 53.4486 40.4888H53.5667C54.5512 40.4877 55.4951 40.0961 56.1913 39.3999C56.8874 38.7038 57.279 37.7599 57.2801 36.7754V33.1272C57.2845 32.2377 56.9677 31.3765 56.3878 30.7019C55.8078 30.0274 55.0039 29.585 54.1237 29.4559V29.4559ZM23.4472 26.4605C23.4472 26.7888 23.3168 27.1036 23.0847 27.3357C22.8525 27.5679 22.5377 27.6983 22.2094 27.6983H16.7678C16.6494 27.6984 16.5336 27.6645 16.4339 27.6007C16.3342 27.5369 16.2549 27.4459 16.2054 27.3385C16.1558 27.231 16.1382 27.1116 16.1544 26.9944C16.1707 26.8771 16.2202 26.767 16.2971 26.6771L19.8987 22.4583C20.0149 22.3224 20.1593 22.2132 20.3218 22.1385C20.4843 22.0637 20.6611 22.025 20.84 22.0251H22.2094C22.5377 22.0251 22.8525 22.1555 23.0847 22.3876C23.3168 22.6198 23.4472 22.9346 23.4472 23.2629V26.4605ZM29.6361 32.2368H27.9858C27.6575 32.2368 27.3426 32.1064 27.1105 31.8743C26.8784 31.6422 26.748 31.3273 26.748 30.9991C26.748 30.6708 26.8784 30.3559 27.1105 30.1238C27.3426 29.8917 27.6575 29.7613 27.9858 29.7613H29.6361C29.9644 29.7613 30.2793 29.8917 30.5114 30.1238C30.7435 30.3559 30.8739 30.6708 30.8739 30.9991C30.8739 31.3273 30.7435 31.6422 30.5114 31.8743C30.2793 32.1064 29.9644 32.2368 29.6361 32.2368ZM39.3816 27.7286L27.5703 27.7012C27.2425 27.7004 26.9284 27.5697 26.6969 27.3376C26.4654 27.1056 26.3354 26.7912 26.3354 26.4634V23.2629C26.3354 22.9346 26.4658 22.6198 26.6979 22.3876C26.93 22.1555 27.2449 22.0251 27.5732 22.0251H33.5092C33.7874 22.0251 34.0575 22.1189 34.2759 22.2912L39.7663 26.6235C39.8675 26.7032 39.9413 26.8124 39.9775 26.9361C40.0136 27.0597 40.0103 27.1916 39.9679 27.3132C39.9256 27.4349 39.8463 27.5403 39.7412 27.6147C39.6361 27.6892 39.5104 27.729 39.3816 27.7286V27.7286Z" fill="url(#paint2_linear_226_230)"/>
<defs>
<linearGradient id="paint0_linear_226_230" x1="17.3699" y1="88.5649" x2="-29.2219" y2="-43.9283" gradientUnits="userSpaceOnUse">
<stop stop-color="#0B7377"/>
<stop offset="0.12" stop-color="#12777B"/>
<stop offset="0.29" stop-color="#248387"/>
<stop offset="0.48" stop-color="#439699"/>
<stop offset="0.7" stop-color="#6DB1B3"/>
<stop offset="0.94" stop-color="#A3D2D5"/>
<stop offset="1" stop-color="#B2DCDE"/>
</linearGradient>
<linearGradient id="paint1_linear_226_230" x1="47.0765" y1="88.5649" x2="0.484608" y2="-43.9283" gradientUnits="userSpaceOnUse">
<stop stop-color="#0B7377"/>
<stop offset="0.12" stop-color="#12777B"/>
<stop offset="0.29" stop-color="#248387"/>
<stop offset="0.48" stop-color="#439699"/>
<stop offset="0.7" stop-color="#6DB1B3"/>
<stop offset="0.94" stop-color="#A3D2D5"/>
<stop offset="1" stop-color="#B2DCDE"/>
</linearGradient>
<linearGradient id="paint2_linear_226_230" x1="31.8299" y1="125.008" x2="-7.35925" y2="-155.826" gradientUnits="userSpaceOnUse">
<stop stop-color="#0B7377"/>
<stop offset="0.12" stop-color="#12777B"/>
<stop offset="0.29" stop-color="#248387"/>
<stop offset="0.48" stop-color="#439699"/>
<stop offset="0.7" stop-color="#6DB1B3"/>
<stop offset="0.94" stop-color="#A3D2D5"/>
<stop offset="1" stop-color="#B2DCDE"/>
</linearGradient>
</defs>
</svg>
