<svg width="59" height="59" viewBox="0 0 59 59" fill="none" xmlns="http://www.w3.org/2000/svg">
<path d="M57.2715 52.0859H1.72852C0.773914 52.0859 0 52.8599 0 53.8145V57.2715C0 58.2261 0.773914 59 1.72852 59H57.2715C58.2261 59 59 58.2261 59 57.2715V53.8145C59 52.8599 58.2261 52.0859 57.2715 52.0859Z" fill="url(#paint0_linear_219_147)"/>
<path d="M57.2715 24.4297H1.72852C0.773914 24.4297 0 25.2036 0 26.1582V29.6152C0 30.5698 0.773914 31.3438 1.72852 31.3438H57.2715C58.2261 31.3438 59 30.5698 59 29.6152V26.1582C59 25.2036 58.2261 24.4297 57.2715 24.4297Z" fill="url(#paint1_linear_219_147)"/>
<path d="M32.957 34.8008C32.0024 34.8008 31.2285 35.5747 31.2285 36.5293V48.6289H48.5137V36.5293C48.5137 35.5747 47.7398 34.8008 46.7852 34.8008H41.5996V38.2578C41.5996 39.2124 40.8257 39.9863 39.8711 39.9863C38.9165 39.9863 38.1426 39.2124 38.1426 38.2578V34.8008H32.957Z" fill="url(#paint2_linear_219_147)"/>
<path d="M12.2148 34.8008C11.2602 34.8008 10.4863 35.5747 10.4863 36.5293V48.6289H27.7715V36.5293C27.7715 35.5747 26.9976 34.8008 26.043 34.8008H20.8574V38.2578C20.8574 39.2124 20.0835 39.9863 19.1289 39.9863C18.1743 39.9863 17.4004 39.2124 17.4004 38.2578V34.8008H12.2148Z" fill="url(#paint3_linear_219_147)"/>
<path d="M48.5137 8.87305C48.5137 7.91845 47.7398 7.14453 46.7852 7.14453H41.5996V10.6016C41.5996 11.5562 40.8257 12.3301 39.8711 12.3301C38.9165 12.3301 38.1426 11.5562 38.1426 10.6016V7.14453H32.957C32.0024 7.14453 31.2285 7.91845 31.2285 8.87305V20.9727H48.5137V8.87305Z" fill="url(#paint4_linear_219_147)"/>
<path d="M27.7715 8.87305C27.7715 7.91845 26.9976 7.14453 26.043 7.14453H20.8574V10.6016C20.8574 11.5562 20.0835 12.3301 19.1289 12.3301C18.1743 12.3301 17.4004 11.5562 17.4004 10.6016V7.14453H12.2148C11.2602 7.14453 10.4863 7.91845 10.4863 8.87305V20.9727H27.7715V8.87305Z" fill="url(#paint5_linear_219_147)"/>
<path d="M51.9707 34.8008H55.4277V48.6289H51.9707V34.8008Z" fill="url(#paint6_linear_219_147)"/>
<path d="M55.4277 1.72852C55.4277 0.773914 54.6538 0 53.6992 0C52.7446 0 51.9707 0.773914 51.9707 1.72852V20.9727H55.4277V1.72852Z" fill="url(#paint7_linear_219_147)"/>
<path d="M3.57227 34.8008H7.0293V48.6289H3.57227V34.8008Z" fill="url(#paint8_linear_219_147)"/>
<path d="M7.0293 1.72852C7.0293 0.773914 6.25538 0 5.30078 0C4.34618 0 3.57227 0.773914 3.57227 1.72852V20.9727H7.0293V1.72852Z" fill="url(#paint9_linear_219_147)"/>
<defs>
<linearGradient id="paint0_linear_219_147" x1="30.1166" y1="87.3266" x2="26.1691" y2="-8.4648" gradientUnits="userSpaceOnUse">
<stop stop-color="#0B7377"/>
<stop offset="0.12" stop-color="#12777B"/>
<stop offset="0.29" stop-color="#248387"/>
<stop offset="0.48" stop-color="#439699"/>
<stop offset="0.7" stop-color="#6DB1B3"/>
<stop offset="0.94" stop-color="#A3D2D5"/>
<stop offset="1" stop-color="#B2DCDE"/>
</linearGradient>
<linearGradient id="paint1_linear_219_147" x1="30.1166" y1="59.6704" x2="26.1691" y2="-36.121" gradientUnits="userSpaceOnUse">
<stop stop-color="#0B7377"/>
<stop offset="0.12" stop-color="#12777B"/>
<stop offset="0.29" stop-color="#248387"/>
<stop offset="0.48" stop-color="#439699"/>
<stop offset="0.7" stop-color="#6DB1B3"/>
<stop offset="0.94" stop-color="#A3D2D5"/>
<stop offset="1" stop-color="#B2DCDE"/>
</linearGradient>
<linearGradient id="paint2_linear_219_147" x1="35.9656" y1="44.799" x2="82.0673" y2="-12.0932" gradientUnits="userSpaceOnUse">
<stop offset="0.140625" stop-color="#0D989D"/>
</linearGradient>
<linearGradient id="paint3_linear_219_147" x1="15.2234" y1="44.799" x2="61.3252" y2="-12.0932" gradientUnits="userSpaceOnUse">
<stop offset="0.140625" stop-color="#0D989D"/>
</linearGradient>
<linearGradient id="paint4_linear_219_147" x1="35.9656" y1="17.1427" x2="82.0673" y2="-39.7495" gradientUnits="userSpaceOnUse">
<stop offset="0.140625" stop-color="#0D989D"/>
</linearGradient>
<linearGradient id="paint5_linear_219_147" x1="15.2234" y1="17.1427" x2="61.3252" y2="-39.7495" gradientUnits="userSpaceOnUse">
<stop offset="0.140625" stop-color="#0D989D"/>
</linearGradient>
<linearGradient id="paint6_linear_219_147" x1="52.9181" y1="44.799" x2="74.8444" y2="39.3873" gradientUnits="userSpaceOnUse">
<stop offset="0.140625" stop-color="#0D989D"/>
</linearGradient>
<linearGradient id="paint7_linear_219_147" x1="52.9181" y1="15.1639" x2="75.58" y2="11.4761" gradientUnits="userSpaceOnUse">
<stop offset="0.140625" stop-color="#0D989D"/>
</linearGradient>
<linearGradient id="paint8_linear_219_147" x1="4.51967" y1="44.799" x2="26.446" y2="39.3873" gradientUnits="userSpaceOnUse">
<stop offset="0.140625" stop-color="#0D989D"/>
</linearGradient>
<linearGradient id="paint9_linear_219_147" x1="4.51967" y1="15.1639" x2="27.1815" y2="11.4761" gradientUnits="userSpaceOnUse">
<stop offset="0.140625" stop-color="#0D989D"/>
</linearGradient>
</defs>
</svg>
