<svg width="59" height="59" viewBox="0 0 59 59" fill="none" xmlns="http://www.w3.org/2000/svg">
<g clip-path="url(#clip0_219_159)">
<path d="M57.1562 59H48.5521C47.5343 59 46.7083 58.174 46.7083 57.1563V54.0833H12.2917V57.1563C12.2917 58.174 11.4657 59 10.4479 59H1.84375C0.826 59 0 58.174 0 57.1563V46.7083C0 45.6906 0.826 44.8646 1.84375 44.8646H57.1562C58.174 44.8646 59 45.6906 59 46.7083V57.1563C59 58.174 58.174 59 57.1562 59Z" fill="url(#paint0_linear_219_159)"/>
<path d="M28.1109 21.0556C28.1109 18.8062 29.9325 16.9797 32.172 16.9797H34.4165V1.84375C34.4165 0.826 33.5905 0 32.5728 0H24.5832V10.4479C24.5832 11.4657 23.7572 12.2917 22.7394 12.2917H16.5936C15.5758 12.2917 14.7498 11.4657 14.7498 10.4479V0H6.76025C5.7425 0 4.9165 0.826 4.9165 1.84375V39.562C4.9165 40.5797 5.7425 41.4057 6.76025 41.4057H28.4477C28.2338 40.9091 28.1109 40.3634 28.1109 39.7881V21.0556Z" fill="url(#paint1_linear_219_159)"/>
<path d="M52.4804 19.438H45.5332V24.6841C45.5332 25.5691 44.8055 26.3017 43.9304 26.3017H40.7247C39.8495 26.3017 39.1219 25.5691 39.1219 24.6841V19.438H32.1746C31.2994 19.438 30.5718 20.1706 30.5718 21.0556V39.7881C30.5718 40.6731 31.2994 41.4057 32.1746 41.4057H52.4829C53.3581 41.4057 54.0857 40.6731 54.0857 39.7881V21.0556C54.0833 20.1706 53.3556 19.438 52.4804 19.438Z" fill="url(#paint2_linear_219_159)"/>
</g>
<defs>
<linearGradient id="paint0_linear_219_159" x1="30.1166" y1="116.912" x2="13.7055" y2="-77.878" gradientUnits="userSpaceOnUse">
<stop stop-color="#0B7377"/>
<stop offset="0.12" stop-color="#12777B"/>
<stop offset="0.29" stop-color="#248387"/>
<stop offset="0.48" stop-color="#439699"/>
<stop offset="0.7" stop-color="#6DB1B3"/>
<stop offset="0.94" stop-color="#A3D2D5"/>
<stop offset="1" stop-color="#B2DCDE"/>
</linearGradient>
<linearGradient id="paint1_linear_219_159" x1="13.0011" y1="29.9377" x2="145.802" y2="-63.4711" gradientUnits="userSpaceOnUse">
<stop offset="0.140625" stop-color="#0D989D"/>
</linearGradient>
<linearGradient id="paint2_linear_219_159" x1="37.0158" y1="35.3214" x2="111.766" y2="-43.6697" gradientUnits="userSpaceOnUse">
<stop offset="0.140625" stop-color="#0D989D"/>
</linearGradient>
<clipPath id="clip0_219_159">
<rect width="59" height="59" fill="white"/>
</clipPath>
</defs>
</svg>
