<svg width="548" height="411" viewBox="0 0 548 411" fill="none" xmlns="http://www.w3.org/2000/svg">
<g clip-path="url(#clip0_141_412)">
<rect x="55" width="493" height="362" rx="24" fill="#FBFBFB"/>
<g filter="url(#filter0_d_141_412)">
<rect x="55" width="493" height="62" fill="#F8F8F8"/>
</g>
<ellipse cx="87" cy="30.5" rx="8" ry="7.5" fill="#FF3B47"/>
<circle cx="110.5" cy="30.5" r="7.5" fill="#FFBD00"/>
<ellipse cx="134" cy="30.5" rx="8" ry="7.5" fill="#00D641"/>
<rect x="160.5" y="12.5" width="363" height="37" rx="7.5" fill="white"/>
<path d="M183.626 36.168C182.795 36.168 182.105 35.958 181.554 35.538C181.003 35.118 180.681 34.5487 180.588 33.83H181.792C181.867 34.194 182.058 34.5113 182.366 34.782C182.683 35.0433 183.108 35.174 183.64 35.174C184.135 35.174 184.499 35.0713 184.732 34.866C184.965 34.6513 185.082 34.3993 185.082 34.11C185.082 33.69 184.928 33.41 184.62 33.27C184.321 33.13 183.897 33.004 183.346 32.892C182.973 32.8173 182.599 32.71 182.226 32.57C181.853 32.43 181.54 32.234 181.288 31.982C181.036 31.7207 180.91 31.38 180.91 30.96C180.91 30.3533 181.134 29.8587 181.582 29.476C182.039 29.084 182.655 28.888 183.43 28.888C184.167 28.888 184.769 29.0747 185.236 29.448C185.712 29.812 185.987 30.3347 186.062 31.016H184.9C184.853 30.6613 184.699 30.386 184.438 30.19C184.186 29.9847 183.845 29.882 183.416 29.882C182.996 29.882 182.669 29.9707 182.436 30.148C182.212 30.3253 182.1 30.5587 182.1 30.848C182.1 31.128 182.245 31.3473 182.534 31.506C182.833 31.6647 183.234 31.8 183.738 31.912C184.167 32.0053 184.573 32.122 184.956 32.262C185.348 32.3927 185.665 32.5933 185.908 32.864C186.16 33.1253 186.286 33.508 186.286 34.012C186.295 34.6373 186.057 35.1553 185.572 35.566C185.096 35.9673 184.447 36.168 183.626 36.168ZM188.68 27.516C188.447 27.516 188.251 27.4413 188.092 27.292C187.943 27.1333 187.868 26.9373 187.868 26.704C187.868 26.48 187.943 26.2933 188.092 26.144C188.251 25.9947 188.447 25.92 188.68 25.92C188.904 25.92 189.095 25.9947 189.254 26.144C189.413 26.2933 189.492 26.48 189.492 26.704C189.492 26.9373 189.413 27.1333 189.254 27.292C189.095 27.4413 188.904 27.516 188.68 27.516ZM188.092 36V29.056H189.268V36H188.092ZM191.316 36V29.056H192.38L192.478 30.386C192.692 29.9287 193.019 29.5647 193.458 29.294C193.896 29.0233 194.438 28.888 195.082 28.888V30.12H194.76C194.349 30.12 193.971 30.1947 193.626 30.344C193.28 30.484 193.005 30.7267 192.8 31.072C192.594 31.4173 192.492 31.8933 192.492 32.5V36H191.316ZM199.292 36.168C198.601 36.168 197.994 36.0093 197.472 35.692C196.958 35.3747 196.557 34.9407 196.268 34.39C195.988 33.8393 195.848 33.214 195.848 32.514C195.848 31.814 195.992 31.1933 196.282 30.652C196.571 30.1013 196.972 29.672 197.486 29.364C197.999 29.0467 198.606 28.888 199.306 28.888C199.875 28.888 200.379 29.0047 200.818 29.238C201.256 29.4713 201.597 29.798 201.84 30.218V25.92H203.016V36H201.952L201.84 34.852C201.616 35.188 201.294 35.4913 200.874 35.762C200.454 36.0327 199.926 36.168 199.292 36.168ZM199.418 35.146C199.884 35.146 200.295 35.0387 200.65 34.824C201.014 34.6 201.294 34.292 201.49 33.9C201.695 33.508 201.798 33.0507 201.798 32.528C201.798 32.0053 201.695 31.548 201.49 31.156C201.294 30.764 201.014 30.4607 200.65 30.246C200.295 30.022 199.884 29.91 199.418 29.91C198.96 29.91 198.55 30.022 198.186 30.246C197.831 30.4607 197.551 30.764 197.346 31.156C197.15 31.548 197.052 32.0053 197.052 32.528C197.052 33.0507 197.15 33.508 197.346 33.9C197.551 34.292 197.831 34.6 198.186 34.824C198.55 35.0387 198.96 35.146 199.418 35.146ZM207.243 36.168C206.664 36.168 206.183 36.07 205.801 35.874C205.418 35.678 205.133 35.4167 204.947 35.09C204.76 34.7633 204.667 34.4087 204.667 34.026C204.667 33.3167 204.937 32.7707 205.479 32.388C206.02 32.0053 206.757 31.814 207.691 31.814H209.567V31.73C209.567 31.1233 209.408 30.666 209.091 30.358C208.773 30.0407 208.349 29.882 207.817 29.882C207.359 29.882 206.963 29.9987 206.627 30.232C206.3 30.456 206.095 30.7873 206.011 31.226H204.807C204.853 30.722 205.021 30.2973 205.311 29.952C205.609 29.6067 205.978 29.3453 206.417 29.168C206.855 28.9813 207.322 28.888 207.817 28.888C208.787 28.888 209.515 29.1493 210.001 29.672C210.495 30.1853 210.743 30.8713 210.743 31.73V36H209.693L209.623 34.754C209.427 35.146 209.137 35.482 208.755 35.762C208.381 36.0327 207.877 36.168 207.243 36.168ZM207.425 35.174C207.873 35.174 208.255 35.0573 208.573 34.824C208.899 34.5907 209.147 34.2873 209.315 33.914C209.483 33.5407 209.567 33.1487 209.567 32.738V32.724H207.789C207.098 32.724 206.608 32.8453 206.319 33.088C206.039 33.3213 205.899 33.6153 205.899 33.97C205.899 34.334 206.029 34.628 206.291 34.852C206.561 35.0667 206.939 35.174 207.425 35.174ZM216.217 36.168C215.648 36.168 215.139 36.0513 214.691 35.818C214.252 35.5847 213.916 35.258 213.683 34.838L213.571 36H212.507V25.92H213.683V30.204C213.907 29.868 214.224 29.5647 214.635 29.294C215.055 29.0233 215.587 28.888 216.231 28.888C216.922 28.888 217.524 29.0467 218.037 29.364C218.55 29.6813 218.947 30.1153 219.227 30.666C219.516 31.2167 219.661 31.842 219.661 32.542C219.661 33.242 219.516 33.8673 219.227 34.418C218.947 34.9593 218.546 35.3887 218.023 35.706C217.51 36.014 216.908 36.168 216.217 36.168ZM216.091 35.146C216.558 35.146 216.968 35.0387 217.323 34.824C217.678 34.6 217.958 34.292 218.163 33.9C218.368 33.508 218.471 33.0507 218.471 32.528C218.471 32.0053 218.368 31.548 218.163 31.156C217.958 30.764 217.678 30.4607 217.323 30.246C216.968 30.022 216.558 29.91 216.091 29.91C215.624 29.91 215.214 30.022 214.859 30.246C214.504 30.4607 214.224 30.764 214.019 31.156C213.814 31.548 213.711 32.0053 213.711 32.528C213.711 33.0507 213.814 33.508 214.019 33.9C214.224 34.292 214.504 34.6 214.859 34.824C215.214 35.0387 215.624 35.146 216.091 35.146ZM221.704 36.07C221.471 36.07 221.275 35.9953 221.116 35.846C220.967 35.6873 220.892 35.496 220.892 35.272C220.892 35.048 220.967 34.8613 221.116 34.712C221.275 34.5533 221.471 34.474 221.704 34.474C221.928 34.474 222.115 34.5533 222.264 34.712C222.423 34.8613 222.502 35.048 222.502 35.272C222.502 35.496 222.423 35.6873 222.264 35.846C222.115 35.9953 221.928 36.07 221.704 36.07ZM224.032 36V29.056H225.096L225.166 30.302C225.39 29.8633 225.712 29.518 226.132 29.266C226.552 29.014 227.028 28.888 227.56 28.888C228.382 28.888 229.035 29.14 229.52 29.644C230.015 30.1387 230.262 30.904 230.262 31.94V36H229.086V32.066C229.086 30.6193 228.489 29.896 227.294 29.896C226.697 29.896 226.198 30.1153 225.796 30.554C225.404 30.9833 225.208 31.5993 225.208 32.402V36H224.032ZM235.166 36.168C234.503 36.168 233.915 36.0187 233.402 35.72C232.889 35.412 232.483 34.9873 232.184 34.446C231.895 33.9047 231.75 33.2653 231.75 32.528C231.75 31.8 231.895 31.1653 232.184 30.624C232.473 30.0733 232.875 29.6487 233.388 29.35C233.911 29.042 234.513 28.888 235.194 28.888C235.866 28.888 236.445 29.042 236.93 29.35C237.425 29.6487 237.803 30.0453 238.064 30.54C238.325 31.0347 238.456 31.5667 238.456 32.136C238.456 32.2387 238.451 32.3413 238.442 32.444C238.442 32.5467 238.442 32.6633 238.442 32.794H232.912C232.94 33.326 233.061 33.7693 233.276 34.124C233.5 34.4693 233.775 34.7307 234.102 34.908C234.438 35.0853 234.793 35.174 235.166 35.174C235.651 35.174 236.057 35.062 236.384 34.838C236.711 34.614 236.949 34.3107 237.098 33.928H238.26C238.073 34.572 237.714 35.1087 237.182 35.538C236.659 35.958 235.987 36.168 235.166 36.168ZM235.166 29.882C234.606 29.882 234.107 30.0547 233.668 30.4C233.239 30.736 232.991 31.2307 232.926 31.884H237.294C237.266 31.2587 237.051 30.7687 236.65 30.414C236.249 30.0593 235.754 29.882 235.166 29.882ZM242.526 36C241.892 36 241.392 35.846 241.028 35.538C240.664 35.23 240.482 34.6747 240.482 33.872V30.05H239.278V29.056H240.482L240.636 27.39H241.658V29.056H243.702V30.05H241.658V33.872C241.658 34.3107 241.747 34.6093 241.924 34.768C242.102 34.9173 242.414 34.992 242.862 34.992H243.59V36H242.526ZM244.622 37.33L248.136 25.304H249.298L245.784 37.33H244.622Z" fill="#969696"/>
<rect x="160.5" y="12.5" width="363" height="37" rx="7.5" stroke="#F5F5F5"/>
<path d="M83.976 110.24C86.232 110.24 87.88 108.752 87.88 106.752C87.88 105.04 86.696 103.792 84.712 103.376L83.336 103.04C82.584 102.912 82.168 102.464 82.168 101.792C82.168 101.088 82.888 100.576 83.912 100.576C84.712 100.576 85.4 100.848 86.04 101.456L87.464 99.824C86.456 98.864 85.256 98.4 83.896 98.4C81.704 98.4 79.896 99.984 79.896 101.936C79.896 103.632 81.016 104.864 82.888 105.264L84.232 105.584C85.112 105.76 85.624 106.256 85.624 106.896C85.624 107.616 84.984 108.064 83.976 108.064C82.76 108.064 81.8 107.68 80.984 106.88L79.48 108.448C80.776 109.648 82.248 110.24 83.976 110.24ZM90.4539 101.168C91.2379 101.168 91.9099 100.464 91.8939 99.712C91.8779 98.896 91.2539 98.224 90.4539 98.224C89.6379 98.224 88.9819 98.896 88.9819 99.712C88.9819 100.528 89.6379 101.168 90.4539 101.168ZM89.3499 110H91.5419V102.32H89.3499V110ZM96.6454 113.296C98.9494 113.296 100.597 111.664 100.661 109.184V102.32H99.3814L99.1414 102.864C98.5014 102.368 97.7014 102.08 96.8374 102.08C94.7414 102.08 93.0454 103.792 93.0454 105.968C93.0454 108.064 94.7414 109.76 96.8374 109.76C97.4134 109.76 97.9734 109.632 98.4694 109.392C98.3414 110.688 97.6694 111.36 96.6454 111.36C95.7974 111.36 95.0134 110.88 94.6774 110.128L93.0454 111.072C93.7814 112.448 95.1574 113.296 96.6454 113.296ZM96.8374 107.808C95.9574 107.808 95.2214 107.008 95.2214 105.968C95.2214 104.864 95.9574 104.032 96.8374 104.032C97.7334 104.032 98.4854 104.88 98.4854 105.968C98.4854 106.992 97.7334 107.808 96.8374 107.808ZM102.264 110H104.44V105.824C104.44 104.72 105 104.032 105.88 104.032C106.76 104.032 107.32 104.72 107.32 105.824V110H109.496V105.824C109.496 103.648 107.992 102.08 105.88 102.08C105.048 102.08 104.312 102.32 103.72 102.752L103.544 102.32H102.264V110ZM119.091 110.24C121.859 110.24 123.411 108.624 123.411 105.776V98.64H121.139V105.776C121.139 107.248 120.403 108.064 119.091 108.064C117.795 108.064 117.075 107.248 117.075 105.776V98.64H114.803V105.776C114.803 108.624 116.355 110.24 119.091 110.24ZM125.325 113.04H127.501V109.888C127.997 110.112 128.541 110.24 129.149 110.24C131.405 110.24 133.005 108.528 133.005 106.112C133.005 103.744 131.405 102.08 129.149 102.08C128.253 102.08 127.453 102.352 126.813 102.832L126.605 102.32H125.325V113.04ZM129.149 108.288C128.173 108.288 127.501 107.472 127.501 106.112C127.501 104.8 128.141 104.032 129.149 104.032C130.173 104.032 130.829 104.8 130.829 106.112C130.829 107.472 130.157 108.288 129.149 108.288Z" fill="black"/>
<rect x="55" width="493" height="62" fill="#F7F7F7"/>
<ellipse cx="87" cy="30.5" rx="8" ry="7.5" fill="#FF3B47"/>
<circle cx="110.5" cy="30.5" r="7.5" fill="#FFBD00"/>
<ellipse cx="134" cy="30.5" rx="8" ry="7.5" fill="#00D641"/>
<rect x="160" y="12" width="364" height="38" rx="8" fill="#EEEEEE"/>
<path d="M183.626 36.168C182.795 36.168 182.105 35.958 181.554 35.538C181.003 35.118 180.681 34.5487 180.588 33.83H181.792C181.867 34.194 182.058 34.5113 182.366 34.782C182.683 35.0433 183.108 35.174 183.64 35.174C184.135 35.174 184.499 35.0713 184.732 34.866C184.965 34.6513 185.082 34.3993 185.082 34.11C185.082 33.69 184.928 33.41 184.62 33.27C184.321 33.13 183.897 33.004 183.346 32.892C182.973 32.8173 182.599 32.71 182.226 32.57C181.853 32.43 181.54 32.234 181.288 31.982C181.036 31.7207 180.91 31.38 180.91 30.96C180.91 30.3533 181.134 29.8587 181.582 29.476C182.039 29.084 182.655 28.888 183.43 28.888C184.167 28.888 184.769 29.0747 185.236 29.448C185.712 29.812 185.987 30.3347 186.062 31.016H184.9C184.853 30.6613 184.699 30.386 184.438 30.19C184.186 29.9847 183.845 29.882 183.416 29.882C182.996 29.882 182.669 29.9707 182.436 30.148C182.212 30.3253 182.1 30.5587 182.1 30.848C182.1 31.128 182.245 31.3473 182.534 31.506C182.833 31.6647 183.234 31.8 183.738 31.912C184.167 32.0053 184.573 32.122 184.956 32.262C185.348 32.3927 185.665 32.5933 185.908 32.864C186.16 33.1253 186.286 33.508 186.286 34.012C186.295 34.6373 186.057 35.1553 185.572 35.566C185.096 35.9673 184.447 36.168 183.626 36.168ZM188.68 27.516C188.447 27.516 188.251 27.4413 188.092 27.292C187.943 27.1333 187.868 26.9373 187.868 26.704C187.868 26.48 187.943 26.2933 188.092 26.144C188.251 25.9947 188.447 25.92 188.68 25.92C188.904 25.92 189.095 25.9947 189.254 26.144C189.413 26.2933 189.492 26.48 189.492 26.704C189.492 26.9373 189.413 27.1333 189.254 27.292C189.095 27.4413 188.904 27.516 188.68 27.516ZM188.092 36V29.056H189.268V36H188.092ZM191.316 36V29.056H192.38L192.478 30.386C192.692 29.9287 193.019 29.5647 193.458 29.294C193.896 29.0233 194.438 28.888 195.082 28.888V30.12H194.76C194.349 30.12 193.971 30.1947 193.626 30.344C193.28 30.484 193.005 30.7267 192.8 31.072C192.594 31.4173 192.492 31.8933 192.492 32.5V36H191.316ZM199.292 36.168C198.601 36.168 197.994 36.0093 197.472 35.692C196.958 35.3747 196.557 34.9407 196.268 34.39C195.988 33.8393 195.848 33.214 195.848 32.514C195.848 31.814 195.992 31.1933 196.282 30.652C196.571 30.1013 196.972 29.672 197.486 29.364C197.999 29.0467 198.606 28.888 199.306 28.888C199.875 28.888 200.379 29.0047 200.818 29.238C201.256 29.4713 201.597 29.798 201.84 30.218V25.92H203.016V36H201.952L201.84 34.852C201.616 35.188 201.294 35.4913 200.874 35.762C200.454 36.0327 199.926 36.168 199.292 36.168ZM199.418 35.146C199.884 35.146 200.295 35.0387 200.65 34.824C201.014 34.6 201.294 34.292 201.49 33.9C201.695 33.508 201.798 33.0507 201.798 32.528C201.798 32.0053 201.695 31.548 201.49 31.156C201.294 30.764 201.014 30.4607 200.65 30.246C200.295 30.022 199.884 29.91 199.418 29.91C198.96 29.91 198.55 30.022 198.186 30.246C197.831 30.4607 197.551 30.764 197.346 31.156C197.15 31.548 197.052 32.0053 197.052 32.528C197.052 33.0507 197.15 33.508 197.346 33.9C197.551 34.292 197.831 34.6 198.186 34.824C198.55 35.0387 198.96 35.146 199.418 35.146ZM207.243 36.168C206.664 36.168 206.183 36.07 205.801 35.874C205.418 35.678 205.133 35.4167 204.947 35.09C204.76 34.7633 204.667 34.4087 204.667 34.026C204.667 33.3167 204.937 32.7707 205.479 32.388C206.02 32.0053 206.757 31.814 207.691 31.814H209.567V31.73C209.567 31.1233 209.408 30.666 209.091 30.358C208.773 30.0407 208.349 29.882 207.817 29.882C207.359 29.882 206.963 29.9987 206.627 30.232C206.3 30.456 206.095 30.7873 206.011 31.226H204.807C204.853 30.722 205.021 30.2973 205.311 29.952C205.609 29.6067 205.978 29.3453 206.417 29.168C206.855 28.9813 207.322 28.888 207.817 28.888C208.787 28.888 209.515 29.1493 210.001 29.672C210.495 30.1853 210.743 30.8713 210.743 31.73V36H209.693L209.623 34.754C209.427 35.146 209.137 35.482 208.755 35.762C208.381 36.0327 207.877 36.168 207.243 36.168ZM207.425 35.174C207.873 35.174 208.255 35.0573 208.573 34.824C208.899 34.5907 209.147 34.2873 209.315 33.914C209.483 33.5407 209.567 33.1487 209.567 32.738V32.724H207.789C207.098 32.724 206.608 32.8453 206.319 33.088C206.039 33.3213 205.899 33.6153 205.899 33.97C205.899 34.334 206.029 34.628 206.291 34.852C206.561 35.0667 206.939 35.174 207.425 35.174ZM216.217 36.168C215.648 36.168 215.139 36.0513 214.691 35.818C214.252 35.5847 213.916 35.258 213.683 34.838L213.571 36H212.507V25.92H213.683V30.204C213.907 29.868 214.224 29.5647 214.635 29.294C215.055 29.0233 215.587 28.888 216.231 28.888C216.922 28.888 217.524 29.0467 218.037 29.364C218.55 29.6813 218.947 30.1153 219.227 30.666C219.516 31.2167 219.661 31.842 219.661 32.542C219.661 33.242 219.516 33.8673 219.227 34.418C218.947 34.9593 218.546 35.3887 218.023 35.706C217.51 36.014 216.908 36.168 216.217 36.168ZM216.091 35.146C216.558 35.146 216.968 35.0387 217.323 34.824C217.678 34.6 217.958 34.292 218.163 33.9C218.368 33.508 218.471 33.0507 218.471 32.528C218.471 32.0053 218.368 31.548 218.163 31.156C217.958 30.764 217.678 30.4607 217.323 30.246C216.968 30.022 216.558 29.91 216.091 29.91C215.624 29.91 215.214 30.022 214.859 30.246C214.504 30.4607 214.224 30.764 214.019 31.156C213.814 31.548 213.711 32.0053 213.711 32.528C213.711 33.0507 213.814 33.508 214.019 33.9C214.224 34.292 214.504 34.6 214.859 34.824C215.214 35.0387 215.624 35.146 216.091 35.146ZM221.704 36.07C221.471 36.07 221.275 35.9953 221.116 35.846C220.967 35.6873 220.892 35.496 220.892 35.272C220.892 35.048 220.967 34.8613 221.116 34.712C221.275 34.5533 221.471 34.474 221.704 34.474C221.928 34.474 222.115 34.5533 222.264 34.712C222.423 34.8613 222.502 35.048 222.502 35.272C222.502 35.496 222.423 35.6873 222.264 35.846C222.115 35.9953 221.928 36.07 221.704 36.07ZM224.032 36V29.056H225.096L225.166 30.302C225.39 29.8633 225.712 29.518 226.132 29.266C226.552 29.014 227.028 28.888 227.56 28.888C228.382 28.888 229.035 29.14 229.52 29.644C230.015 30.1387 230.262 30.904 230.262 31.94V36H229.086V32.066C229.086 30.6193 228.489 29.896 227.294 29.896C226.697 29.896 226.198 30.1153 225.796 30.554C225.404 30.9833 225.208 31.5993 225.208 32.402V36H224.032ZM235.166 36.168C234.503 36.168 233.915 36.0187 233.402 35.72C232.889 35.412 232.483 34.9873 232.184 34.446C231.895 33.9047 231.75 33.2653 231.75 32.528C231.75 31.8 231.895 31.1653 232.184 30.624C232.473 30.0733 232.875 29.6487 233.388 29.35C233.911 29.042 234.513 28.888 235.194 28.888C235.866 28.888 236.445 29.042 236.93 29.35C237.425 29.6487 237.803 30.0453 238.064 30.54C238.325 31.0347 238.456 31.5667 238.456 32.136C238.456 32.2387 238.451 32.3413 238.442 32.444C238.442 32.5467 238.442 32.6633 238.442 32.794H232.912C232.94 33.326 233.061 33.7693 233.276 34.124C233.5 34.4693 233.775 34.7307 234.102 34.908C234.438 35.0853 234.793 35.174 235.166 35.174C235.651 35.174 236.057 35.062 236.384 34.838C236.711 34.614 236.949 34.3107 237.098 33.928H238.26C238.073 34.572 237.714 35.1087 237.182 35.538C236.659 35.958 235.987 36.168 235.166 36.168ZM235.166 29.882C234.606 29.882 234.107 30.0547 233.668 30.4C233.239 30.736 232.991 31.2307 232.926 31.884H237.294C237.266 31.2587 237.051 30.7687 236.65 30.414C236.249 30.0593 235.754 29.882 235.166 29.882ZM242.526 36C241.892 36 241.392 35.846 241.028 35.538C240.664 35.23 240.482 34.6747 240.482 33.872V30.05H239.278V29.056H240.482L240.636 27.39H241.658V29.056H243.702V30.05H241.658V33.872C241.658 34.3107 241.747 34.6093 241.924 34.768C242.102 34.9173 242.414 34.992 242.862 34.992H243.59V36H242.526ZM244.622 37.33L248.136 25.304H249.298L245.784 37.33H244.622Z" fill="#969696"/>
<path d="M88.288 143H89.66V135.342L94.28 143H95.722V133.06H94.35V140.438L89.842 133.06H88.288V143ZM100.089 143.21C100.971 143.21 101.755 142.944 102.329 142.44L102.567 143H103.309V138.674C103.225 136.784 102.385 136.07 100.635 136.07C99.4175 136.07 98.5775 136.504 97.7935 137.414L98.5495 138.212C99.1655 137.498 99.8375 137.246 100.635 137.246C101.699 137.246 101.965 137.498 102.021 138.73V139.024H100.215C98.6055 139.024 97.5835 139.808 97.5835 141.068C97.5835 142.398 98.6335 143.21 100.089 143.21ZM100.089 142.034C99.2635 142.034 98.8715 141.684 98.8715 141.068C98.8715 140.508 99.2635 140.2 100.215 140.2H102.021C101.979 141.348 101.265 142.034 100.089 142.034ZM105.319 143H106.607V139.08C106.607 137.946 107.237 137.246 108.203 137.246C109.141 137.246 109.771 137.96 109.771 139.08V143H111.059V139.08C111.059 137.946 111.689 137.246 112.655 137.246C113.593 137.246 114.223 137.96 114.223 139.08V143H115.511V139.08C115.511 137.316 114.321 136.07 112.655 136.07C111.717 136.07 110.933 136.448 110.415 137.092C109.911 136.448 109.127 136.07 108.203 136.07C107.433 136.07 106.761 136.322 106.271 136.784L106.047 136.28H105.319V143ZM120.356 143.21C121.714 143.21 122.806 142.51 123.352 141.404L122.232 140.76C121.924 141.558 121.196 142.034 120.356 142.034C119.236 142.034 118.452 141.264 118.312 140.046H123.52C123.534 139.878 123.548 139.78 123.548 139.682C123.548 137.568 122.232 136.07 120.356 136.07C118.396 136.07 117.01 137.568 117.01 139.682C117.01 141.754 118.396 143.21 120.356 143.21ZM118.396 138.87C118.648 137.862 119.376 137.246 120.356 137.246C121.266 137.246 121.938 137.862 122.176 138.87H118.396Z" fill="#969696"/>
<path d="M90.416 217H91.858L91.844 216.93L94.28 209.356L96.716 216.93L96.702 217H98.144L101.336 207.06H99.894L97.416 214.788L94.868 207.06H93.692L91.144 214.788L88.666 207.06H87.224L90.416 217ZM102.751 217H104.039V213.08C104.039 211.946 104.669 211.246 105.635 211.246C106.573 211.246 107.203 211.96 107.203 213.08V217H108.491V213.08C108.491 211.316 107.301 210.07 105.635 210.07C105.033 210.07 104.487 210.224 104.039 210.518V206.85H102.751V217ZM112.558 217.21C113.44 217.21 114.224 216.944 114.798 216.44L115.036 217H115.778V212.674C115.694 210.784 114.854 210.07 113.104 210.07C111.886 210.07 111.046 210.504 110.262 211.414L111.018 212.212C111.634 211.498 112.306 211.246 113.104 211.246C114.168 211.246 114.434 211.498 114.49 212.73V213.024H112.684C111.074 213.024 110.052 213.808 110.052 215.068C110.052 216.398 111.102 217.21 112.558 217.21ZM112.558 216.034C111.732 216.034 111.34 215.684 111.34 215.068C111.34 214.508 111.732 214.2 112.684 214.2H114.49C114.448 215.348 113.734 216.034 112.558 216.034ZM120.687 217C120.869 217 120.911 217 120.953 216.986V215.74H120.687C119.777 215.74 119.539 215.488 119.511 214.438V211.456H120.953V210.28H119.511V208.124H118.223V210.28H117.019V211.456H118.223V214.438C118.251 216.496 118.741 217 120.687 217ZM126.841 208.782C127.359 208.782 127.765 208.362 127.765 207.83C127.765 207.34 127.359 206.906 126.841 206.906C126.323 206.906 125.917 207.326 125.917 207.83C125.917 208.362 126.323 208.782 126.841 208.782ZM126.197 217H127.485V210.28H126.197V217ZM132.075 217.21C133.601 217.21 134.595 216.454 134.595 215.278C134.595 214.27 134.035 213.668 132.705 213.15C131.375 212.604 131.039 212.422 131.039 212.016C131.039 211.442 131.417 211.246 132.075 211.246C132.509 211.246 132.915 211.358 133.377 211.652L134.133 210.784C133.279 210.21 132.761 210.07 132.075 210.07C130.661 210.07 129.751 210.812 129.751 212.016C129.751 213.024 130.311 213.458 132.201 214.228C133.125 214.592 133.307 214.816 133.307 215.278C133.307 215.754 132.929 216.034 132.075 216.034C131.333 216.034 130.577 215.726 129.947 214.97L129.121 215.726C129.835 216.58 130.787 217.21 132.075 217.21ZM142.644 217C142.826 217 142.868 217 142.91 216.986V215.74H142.644C141.734 215.74 141.496 215.488 141.468 214.438V211.456H142.91V210.28H141.468V208.124H140.18V210.28H138.976V211.456H140.18V214.438C140.208 216.496 140.698 217 142.644 217ZM144.655 217H145.943V213.08C145.943 211.946 146.573 211.246 147.539 211.246C148.477 211.246 149.107 211.96 149.107 213.08V217H150.395V213.08C150.395 211.316 149.205 210.07 147.539 210.07C146.937 210.07 146.391 210.224 145.943 210.518V206.85H144.655V217ZM155.233 217.21C156.591 217.21 157.683 216.51 158.229 215.404L157.109 214.76C156.801 215.558 156.073 216.034 155.233 216.034C154.113 216.034 153.329 215.264 153.189 214.046H158.397C158.411 213.878 158.425 213.78 158.425 213.682C158.425 211.568 157.109 210.07 155.233 210.07C153.273 210.07 151.887 211.568 151.887 213.682C151.887 215.754 153.273 217.21 155.233 217.21ZM153.273 212.87C153.525 211.862 154.253 211.246 155.233 211.246C156.143 211.246 156.815 211.862 157.053 212.87H153.273ZM166.279 217.21C167.637 217.21 168.729 216.51 169.275 215.404L168.155 214.76C167.847 215.558 167.119 216.034 166.279 216.034C165.159 216.034 164.375 215.264 164.235 214.046H169.443C169.457 213.878 169.471 213.78 169.471 213.682C169.471 211.568 168.155 210.07 166.279 210.07C164.319 210.07 162.933 211.568 162.933 213.682C162.933 215.754 164.319 217.21 166.279 217.21ZM164.319 212.87C164.571 211.862 165.299 211.246 166.279 211.246C167.189 211.246 167.861 211.862 168.099 212.87H164.319ZM170.143 217H171.599L173.153 214.704L174.707 217H176.275L173.993 213.64L176.275 210.28H174.819L173.265 212.576L171.711 210.28H170.143L172.425 213.64L170.143 217ZM177.589 219.66H178.877V216.524C179.437 216.958 180.137 217.21 180.935 217.21C182.909 217.21 184.309 215.712 184.309 213.598C184.309 211.526 182.909 210.07 180.935 210.07C179.997 210.07 179.199 210.406 178.611 210.966L178.317 210.28H177.589V219.66ZM180.935 216.034C179.703 216.034 178.877 215.082 178.877 213.598C178.877 212.17 179.703 211.246 180.935 211.246C182.181 211.246 183.021 212.17 183.021 213.598C183.021 215.068 182.181 216.034 180.935 216.034ZM188.77 217.21C190.128 217.21 191.22 216.51 191.766 215.404L190.646 214.76C190.338 215.558 189.61 216.034 188.77 216.034C187.65 216.034 186.866 215.264 186.726 214.046H191.934C191.948 213.878 191.962 213.78 191.962 213.682C191.962 211.568 190.646 210.07 188.77 210.07C186.81 210.07 185.424 211.568 185.424 213.682C185.424 215.754 186.81 217.21 188.77 217.21ZM186.81 212.87C187.062 211.862 187.79 211.246 188.77 211.246C189.68 211.246 190.352 211.862 190.59 212.87H186.81ZM196.426 217.21C197.784 217.21 198.876 216.51 199.422 215.404L198.33 214.774C197.98 215.628 197.28 216.034 196.426 216.034C195.194 216.034 194.368 215.11 194.368 213.682C194.368 212.212 195.208 211.246 196.426 211.246C197.336 211.246 197.952 211.68 198.33 212.576L199.436 211.946C198.89 210.798 197.798 210.07 196.426 210.07C194.466 210.07 193.08 211.568 193.08 213.682C193.08 215.754 194.466 217.21 196.426 217.21ZM203.907 217C204.089 217 204.131 217 204.173 216.986V215.74H203.907C202.997 215.74 202.759 215.488 202.731 214.438V211.456H204.173V210.28H202.731V208.124H201.443V210.28H200.239V211.456H201.443V214.438C201.471 216.496 201.961 217 203.907 217ZM208.744 217.21C210.102 217.21 211.194 216.51 211.74 215.404L210.62 214.76C210.312 215.558 209.584 216.034 208.744 216.034C207.624 216.034 206.84 215.264 206.7 214.046H211.908C211.922 213.878 211.936 213.78 211.936 213.682C211.936 211.568 210.62 210.07 208.744 210.07C206.784 210.07 205.398 211.568 205.398 213.682C205.398 215.754 206.784 217.21 208.744 217.21ZM206.784 212.87C207.036 211.862 207.764 211.246 208.744 211.246C209.654 211.246 210.326 211.862 210.564 212.87H206.784ZM216.428 217.21C217.366 217.21 218.164 216.874 218.752 216.314L219.046 217H219.774V206.85H218.486V210.756C217.926 210.322 217.226 210.07 216.428 210.07C214.454 210.07 213.054 211.568 213.054 213.682C213.054 215.754 214.454 217.21 216.428 217.21ZM216.428 216.034C215.182 216.034 214.342 215.11 214.342 213.682C214.342 212.212 215.182 211.246 216.428 211.246C217.66 211.246 218.486 212.198 218.486 213.682C218.486 215.11 217.66 216.034 216.428 216.034ZM225.317 217H226.605V213.08C226.605 211.946 227.235 211.246 228.201 211.246C229.139 211.246 229.769 211.96 229.769 213.08V217H231.057V213.08C231.057 211.316 229.867 210.07 228.201 210.07C227.431 210.07 226.759 210.322 226.269 210.784L226.045 210.28H225.317V217ZM235.951 217.21C237.309 217.21 238.401 216.51 238.947 215.404L237.827 214.76C237.519 215.558 236.791 216.034 235.951 216.034C234.831 216.034 234.047 215.264 233.907 214.046H239.115C239.129 213.878 239.143 213.78 239.143 213.682C239.143 211.568 237.827 210.07 235.951 210.07C233.991 210.07 232.605 211.568 232.605 213.682C232.605 215.754 233.991 217.21 235.951 217.21ZM233.991 212.87C234.243 211.862 234.971 211.246 235.951 211.246C236.861 211.246 237.533 211.862 237.771 212.87H233.991ZM243.621 217.21C244.979 217.21 246.071 216.51 246.617 215.404L245.497 214.76C245.189 215.558 244.461 216.034 243.621 216.034C242.501 216.034 241.717 215.264 241.577 214.046H246.785C246.799 213.878 246.813 213.78 246.813 213.682C246.813 211.568 245.497 210.07 243.621 210.07C241.661 210.07 240.275 211.568 240.275 213.682C240.275 215.754 241.661 217.21 243.621 217.21ZM241.661 212.87C241.913 211.862 242.641 211.246 243.621 211.246C244.531 211.246 245.203 211.862 245.441 212.87H241.661ZM251.305 217.21C252.243 217.21 253.041 216.874 253.629 216.314L253.923 217H254.651V206.85H253.363V210.756C252.803 210.322 252.103 210.07 251.305 210.07C249.331 210.07 247.931 211.568 247.931 213.682C247.931 215.754 249.331 217.21 251.305 217.21ZM251.305 216.034C250.059 216.034 249.219 215.11 249.219 213.682C249.219 212.212 250.059 211.246 251.305 211.246C252.537 211.246 253.363 212.198 253.363 213.682C253.363 215.11 252.537 216.034 251.305 216.034ZM259.617 217.21C260.975 217.21 262.067 216.51 262.613 215.404L261.493 214.76C261.185 215.558 260.457 216.034 259.617 216.034C258.497 216.034 257.713 215.264 257.573 214.046H262.781C262.795 213.878 262.809 213.78 262.809 213.682C262.809 211.568 261.493 210.07 259.617 210.07C257.657 210.07 256.271 211.568 256.271 213.682C256.271 215.754 257.657 217.21 259.617 217.21ZM257.657 212.87C257.909 211.862 258.637 211.246 259.617 211.246C260.527 211.246 261.199 211.862 261.437 212.87H257.657ZM267.301 217.21C268.239 217.21 269.037 216.874 269.625 216.314L269.919 217H270.647V206.85H269.359V210.756C268.799 210.322 268.099 210.07 267.301 210.07C265.327 210.07 263.927 211.568 263.927 213.682C263.927 215.754 265.327 217.21 267.301 217.21ZM267.301 216.034C266.055 216.034 265.215 215.11 265.215 213.682C265.215 212.212 266.055 211.246 267.301 211.246C268.533 211.246 269.359 212.198 269.359 213.682C269.359 215.11 268.533 216.034 267.301 216.034ZM278.514 217.21C280.04 217.21 281.034 216.454 281.034 215.278C281.034 214.27 280.474 213.668 279.144 213.15C277.814 212.604 277.478 212.422 277.478 212.016C277.478 211.442 277.856 211.246 278.514 211.246C278.948 211.246 279.354 211.358 279.816 211.652L280.572 210.784C279.718 210.21 279.2 210.07 278.514 210.07C277.1 210.07 276.19 210.812 276.19 212.016C276.19 213.024 276.75 213.458 278.64 214.228C279.564 214.592 279.746 214.816 279.746 215.278C279.746 215.754 279.368 216.034 278.514 216.034C277.772 216.034 277.016 215.726 276.386 214.97L275.56 215.726C276.274 216.58 277.226 217.21 278.514 217.21ZM282.794 219.66H284.082V216.524C284.642 216.958 285.342 217.21 286.14 217.21C288.114 217.21 289.514 215.712 289.514 213.598C289.514 211.526 288.114 210.07 286.14 210.07C285.202 210.07 284.404 210.406 283.816 210.966L283.522 210.28H282.794V219.66ZM286.14 216.034C284.908 216.034 284.082 215.082 284.082 213.598C284.082 212.17 284.908 211.246 286.14 211.246C287.386 211.246 288.226 212.17 288.226 213.598C288.226 215.068 287.386 216.034 286.14 216.034ZM293.205 217.21C294.087 217.21 294.871 216.944 295.445 216.44L295.683 217H296.425V212.674C296.341 210.784 295.501 210.07 293.751 210.07C292.533 210.07 291.693 210.504 290.909 211.414L291.665 212.212C292.281 211.498 292.953 211.246 293.751 211.246C294.815 211.246 295.081 211.498 295.137 212.73V213.024H293.331C291.721 213.024 290.699 213.808 290.699 215.068C290.699 216.398 291.749 217.21 293.205 217.21ZM293.205 216.034C292.379 216.034 291.987 215.684 291.987 215.068C291.987 214.508 292.379 214.2 293.331 214.2H295.137C295.095 215.348 294.381 216.034 293.205 216.034ZM301.207 217.21C302.565 217.21 303.657 216.51 304.203 215.404L303.111 214.774C302.761 215.628 302.061 216.034 301.207 216.034C299.975 216.034 299.149 215.11 299.149 213.682C299.149 212.212 299.989 211.246 301.207 211.246C302.117 211.246 302.733 211.68 303.111 212.576L304.217 211.946C303.671 210.798 302.579 210.07 301.207 210.07C299.247 210.07 297.861 211.568 297.861 213.682C297.861 215.754 299.247 217.21 301.207 217.21ZM308.494 217.21C309.852 217.21 310.944 216.51 311.49 215.404L310.37 214.76C310.062 215.558 309.334 216.034 308.494 216.034C307.374 216.034 306.59 215.264 306.45 214.046H311.658C311.672 213.878 311.686 213.78 311.686 213.682C311.686 211.568 310.37 210.07 308.494 210.07C306.534 210.07 305.148 211.568 305.148 213.682C305.148 215.754 306.534 217.21 308.494 217.21ZM306.534 212.87C306.786 211.862 307.514 211.246 308.494 211.246C309.404 211.246 310.076 211.862 310.314 212.87H306.534ZM314.381 213.794H315.571V213.234C315.571 212.702 315.977 212.324 316.593 211.778C317.419 210.98 317.825 210.434 317.825 209.496C317.825 208.054 316.733 207.032 315.193 207.032C313.835 207.032 312.883 207.76 312.477 209.076L313.653 209.58C313.961 208.754 314.465 208.32 315.151 208.32C315.949 208.32 316.495 208.866 316.495 209.636C316.495 210.294 316.033 210.728 315.389 211.26C314.703 211.834 314.381 212.38 314.381 212.954V213.794ZM315.039 217.168C315.655 217.168 316.131 216.72 316.131 216.09C316.131 215.446 315.655 214.998 315.039 214.998C314.423 214.998 313.947 215.446 313.947 216.09C313.947 216.72 314.423 217.168 315.039 217.168Z" fill="#969696"/>
<rect x="79" y="152" width="214.5" height="37" rx="8" fill="#EEEEEE"/>
<path d="M99.182 176H100.638L101.702 173.214H105.678L106.742 176H108.198L104.418 166.06H102.962L99.182 176ZM102.178 171.954L103.69 167.978L105.202 171.954H102.178ZM112.901 176.21C114.875 176.21 116.275 174.754 116.275 172.682C116.275 170.568 114.875 169.07 112.901 169.07C112.103 169.07 111.403 169.322 110.843 169.756V165.85H109.555V176H110.283L110.577 175.314C111.165 175.874 111.963 176.21 112.901 176.21ZM112.901 175.034C111.669 175.034 110.843 174.11 110.843 172.682C110.843 171.198 111.669 170.246 112.901 170.246C114.147 170.246 114.987 171.212 114.987 172.682C114.987 174.11 114.147 175.034 112.901 175.034ZM120.707 176.21C121.645 176.21 122.443 175.874 123.031 175.314L123.325 176H124.053V165.85H122.765V169.756C122.205 169.322 121.505 169.07 120.707 169.07C118.733 169.07 117.333 170.568 117.333 172.682C117.333 174.754 118.733 176.21 120.707 176.21ZM120.707 175.034C119.461 175.034 118.621 174.11 118.621 172.682C118.621 171.212 119.461 170.246 120.707 170.246C121.939 170.246 122.765 171.198 122.765 172.682C122.765 174.11 121.939 175.034 120.707 175.034ZM128.937 176.21C129.707 176.21 130.379 175.944 130.869 175.496L131.093 176H131.821V169.28H130.533V173.2C130.533 174.32 129.889 175.034 128.937 175.034C127.999 175.034 127.369 174.32 127.369 173.2V169.28H126.081V173.2C126.081 174.964 127.271 176.21 128.937 176.21ZM136.309 176.21C137.835 176.21 138.829 175.454 138.829 174.278C138.829 173.27 138.269 172.668 136.939 172.15C135.609 171.604 135.273 171.422 135.273 171.016C135.273 170.442 135.651 170.246 136.309 170.246C136.743 170.246 137.149 170.358 137.611 170.652L138.367 169.784C137.513 169.21 136.995 169.07 136.309 169.07C134.895 169.07 133.985 169.812 133.985 171.016C133.985 172.024 134.545 172.458 136.435 173.228C137.359 173.592 137.541 173.816 137.541 174.278C137.541 174.754 137.163 175.034 136.309 175.034C135.567 175.034 134.811 174.726 134.181 173.97L133.355 174.726C134.069 175.58 135.021 176.21 136.309 176.21ZM146.99 176.21C148.936 176.21 150.35 174.936 150.35 173.172C150.35 171.814 149.398 170.848 147.774 170.512L146.374 170.218C145.576 170.078 145.1 169.518 145.1 168.79C145.1 167.81 145.87 167.11 146.934 167.11C147.718 167.11 148.404 167.432 149.02 168.09L149.902 167.096C149.09 166.298 148.04 165.85 146.934 165.85C145.114 165.85 143.728 167.11 143.728 168.79C143.728 170.092 144.61 171.114 145.954 171.422L147.494 171.744C148.502 171.954 148.978 172.444 148.978 173.172C148.978 174.236 148.194 174.95 146.99 174.95C145.884 174.95 145.17 174.628 144.26 173.718L143.364 174.656C144.414 175.692 145.422 176.21 146.99 176.21ZM154.062 176.21C154.944 176.21 155.728 175.944 156.302 175.44L156.54 176H157.282V171.674C157.198 169.784 156.358 169.07 154.608 169.07C153.39 169.07 152.55 169.504 151.766 170.414L152.522 171.212C153.138 170.498 153.81 170.246 154.608 170.246C155.672 170.246 155.938 170.498 155.994 171.73V172.024H154.188C152.578 172.024 151.556 172.808 151.556 174.068C151.556 175.398 152.606 176.21 154.062 176.21ZM154.062 175.034C153.236 175.034 152.844 174.684 152.844 174.068C152.844 173.508 153.236 173.2 154.188 173.2H155.994C155.952 174.348 155.238 175.034 154.062 175.034ZM159.32 176H160.608V165.85H159.32V176ZM164.877 176.21C165.759 176.21 166.543 175.944 167.117 175.44L167.355 176H168.097V171.674C168.013 169.784 167.173 169.07 165.423 169.07C164.205 169.07 163.365 169.504 162.581 170.414L163.337 171.212C163.953 170.498 164.625 170.246 165.423 170.246C166.487 170.246 166.753 170.498 166.809 171.73V172.024H165.003C163.393 172.024 162.371 172.808 162.371 174.068C162.371 175.398 163.421 176.21 164.877 176.21ZM164.877 175.034C164.051 175.034 163.659 174.684 163.659 174.068C163.659 173.508 164.051 173.2 165.003 173.2H166.809C166.767 174.348 166.053 175.034 164.877 175.034ZM170.106 176H171.394V172.08C171.394 170.946 172.024 170.246 172.99 170.246C173.928 170.246 174.558 170.96 174.558 172.08V176H175.846V172.08C175.846 170.946 176.476 170.246 177.442 170.246C178.38 170.246 179.01 170.96 179.01 172.08V176H180.298V172.08C180.298 170.316 179.108 169.07 177.442 169.07C176.504 169.07 175.72 169.448 175.202 170.092C174.698 169.448 173.914 169.07 172.99 169.07C172.22 169.07 171.548 169.322 171.058 169.784L170.834 169.28H170.106V176Z" fill="black"/>
<rect x="309.5" y="152" width="214.5" height="37" rx="8" fill="#EEEEEE"/>
<path d="M329.682 176H331.138L332.202 173.214H336.178L337.242 176H338.698L334.918 166.06H333.462L329.682 176ZM332.678 171.954L334.19 167.978L335.702 171.954H332.678ZM343.401 176.21C345.375 176.21 346.775 174.754 346.775 172.682C346.775 170.568 345.375 169.07 343.401 169.07C342.603 169.07 341.903 169.322 341.343 169.756V165.85H340.055V176H340.783L341.077 175.314C341.665 175.874 342.463 176.21 343.401 176.21ZM343.401 175.034C342.169 175.034 341.343 174.11 341.343 172.682C341.343 171.198 342.169 170.246 343.401 170.246C344.647 170.246 345.487 171.212 345.487 172.682C345.487 174.11 344.647 175.034 343.401 175.034ZM351.207 176.21C352.145 176.21 352.943 175.874 353.531 175.314L353.825 176H354.553V165.85H353.265V169.756C352.705 169.322 352.005 169.07 351.207 169.07C349.233 169.07 347.833 170.568 347.833 172.682C347.833 174.754 349.233 176.21 351.207 176.21ZM351.207 175.034C349.961 175.034 349.121 174.11 349.121 172.682C349.121 171.212 349.961 170.246 351.207 170.246C352.439 170.246 353.265 171.198 353.265 172.682C353.265 174.11 352.439 175.034 351.207 175.034ZM359.437 176.21C360.207 176.21 360.879 175.944 361.369 175.496L361.593 176H362.321V169.28H361.033V173.2C361.033 174.32 360.389 175.034 359.437 175.034C358.499 175.034 357.869 174.32 357.869 173.2V169.28H356.581V173.2C356.581 174.964 357.771 176.21 359.437 176.21ZM366.809 176.21C368.335 176.21 369.329 175.454 369.329 174.278C369.329 173.27 368.769 172.668 367.439 172.15C366.109 171.604 365.773 171.422 365.773 171.016C365.773 170.442 366.151 170.246 366.809 170.246C367.243 170.246 367.649 170.358 368.111 170.652L368.867 169.784C368.013 169.21 367.495 169.07 366.809 169.07C365.395 169.07 364.485 169.812 364.485 171.016C364.485 172.024 365.045 172.458 366.935 173.228C367.859 173.592 368.041 173.816 368.041 174.278C368.041 174.754 367.663 175.034 366.809 175.034C366.067 175.034 365.311 174.726 364.681 173.97L363.855 174.726C364.569 175.58 365.521 176.21 366.809 176.21ZM378.918 176.21C380.78 176.21 382.418 175.132 383.272 173.536L382.096 172.864C381.494 174.11 380.29 174.95 378.918 174.95C376.958 174.95 375.334 173.186 375.334 171.03C375.334 168.874 376.958 167.11 378.918 167.11C380.276 167.11 381.48 167.95 382.096 169.196L383.258 168.524C382.404 166.928 380.78 165.85 378.918 165.85C376.202 165.85 373.962 168.174 373.962 171.03C373.962 173.9 376.202 176.21 378.918 176.21ZM387.549 176.21C389.565 176.21 390.979 174.754 390.979 172.696C390.979 170.582 389.551 169.07 387.549 169.07C385.533 169.07 384.119 170.568 384.119 172.696C384.119 174.754 385.533 176.21 387.549 176.21ZM387.549 175.034C386.247 175.034 385.407 174.11 385.407 172.696C385.407 171.212 386.261 170.246 387.549 170.246C388.823 170.246 389.691 171.226 389.691 172.696C389.691 174.11 388.851 175.034 387.549 175.034ZM392.663 176H393.951V172.08C393.951 170.946 394.581 170.246 395.547 170.246C396.485 170.246 397.115 170.96 397.115 172.08V176H398.403V172.08C398.403 170.946 399.033 170.246 399.999 170.246C400.937 170.246 401.567 170.96 401.567 172.08V176H402.855V172.08C402.855 170.316 401.665 169.07 399.999 169.07C399.061 169.07 398.277 169.448 397.759 170.092C397.255 169.448 396.471 169.07 395.547 169.07C394.777 169.07 394.105 169.322 393.615 169.784L393.391 169.28H392.663V176ZM404.913 178.66H406.201V175.524C406.761 175.958 407.461 176.21 408.259 176.21C410.233 176.21 411.633 174.712 411.633 172.598C411.633 170.526 410.233 169.07 408.259 169.07C407.321 169.07 406.523 169.406 405.935 169.966L405.641 169.28H404.913V178.66ZM408.259 175.034C407.027 175.034 406.201 174.082 406.201 172.598C406.201 171.17 407.027 170.246 408.259 170.246C409.505 170.246 410.345 171.17 410.345 172.598C410.345 174.068 409.505 175.034 408.259 175.034ZM415.324 176.21C416.206 176.21 416.99 175.944 417.564 175.44L417.802 176H418.544V171.674C418.46 169.784 417.62 169.07 415.87 169.07C414.652 169.07 413.812 169.504 413.028 170.414L413.784 171.212C414.4 170.498 415.072 170.246 415.87 170.246C416.934 170.246 417.2 170.498 417.256 171.73V172.024H415.45C413.84 172.024 412.818 172.808 412.818 174.068C412.818 175.398 413.868 176.21 415.324 176.21ZM415.324 175.034C414.498 175.034 414.106 174.684 414.106 174.068C414.106 173.508 414.498 173.2 415.45 173.2H417.256C417.214 174.348 416.5 175.034 415.324 175.034ZM420.554 176H421.842V172.08C421.842 170.946 422.472 170.246 423.438 170.246C424.376 170.246 425.006 170.96 425.006 172.08V176H426.294V172.08C426.294 170.316 425.104 169.07 423.438 169.07C422.668 169.07 421.996 169.322 421.506 169.784L421.282 169.28H420.554V176ZM428.137 178.646C430.181 178.744 430.839 177.4 431.315 176.224L431.399 176H431.413L434.073 169.28H432.673L430.951 173.816L428.739 169.28H427.339L430.321 175.412L430.167 175.832C429.929 176.434 429.495 177.428 428.347 177.358L428.137 177.344V178.646Z" fill="black"/>
<path d="M323.586 143.21C325.448 143.21 327.086 142.132 327.94 140.536L326.764 139.864C326.162 141.11 324.958 141.95 323.586 141.95C321.626 141.95 320.002 140.186 320.002 138.03C320.002 135.874 321.626 134.11 323.586 134.11C324.944 134.11 326.148 134.95 326.764 136.196L327.926 135.524C327.072 133.928 325.448 132.85 323.586 132.85C320.87 132.85 318.63 135.174 318.63 138.03C318.63 140.9 320.87 143.21 323.586 143.21ZM332.217 143.21C334.233 143.21 335.647 141.754 335.647 139.696C335.647 137.582 334.219 136.07 332.217 136.07C330.201 136.07 328.787 137.568 328.787 139.696C328.787 141.754 330.201 143.21 332.217 143.21ZM332.217 142.034C330.915 142.034 330.075 141.11 330.075 139.696C330.075 138.212 330.929 137.246 332.217 137.246C333.491 137.246 334.359 138.226 334.359 139.696C334.359 141.11 333.519 142.034 332.217 142.034ZM337.331 143H338.619V139.08C338.619 137.946 339.249 137.246 340.215 137.246C341.153 137.246 341.783 137.96 341.783 139.08V143H343.071V139.08C343.071 137.946 343.701 137.246 344.667 137.246C345.605 137.246 346.235 137.96 346.235 139.08V143H347.523V139.08C347.523 137.316 346.333 136.07 344.667 136.07C343.729 136.07 342.945 136.448 342.427 137.092C341.923 136.448 341.139 136.07 340.215 136.07C339.445 136.07 338.773 136.322 338.283 136.784L338.059 136.28H337.331V143ZM349.581 145.66H350.869V142.524C351.429 142.958 352.129 143.21 352.927 143.21C354.901 143.21 356.301 141.712 356.301 139.598C356.301 137.526 354.901 136.07 352.927 136.07C351.989 136.07 351.191 136.406 350.603 136.966L350.309 136.28H349.581V145.66ZM352.927 142.034C351.695 142.034 350.869 141.082 350.869 139.598C350.869 138.17 351.695 137.246 352.927 137.246C354.173 137.246 355.013 138.17 355.013 139.598C355.013 141.068 354.173 142.034 352.927 142.034ZM359.992 143.21C360.874 143.21 361.658 142.944 362.232 142.44L362.47 143H363.212V138.674C363.128 136.784 362.288 136.07 360.538 136.07C359.32 136.07 358.48 136.504 357.696 137.414L358.452 138.212C359.068 137.498 359.74 137.246 360.538 137.246C361.602 137.246 361.868 137.498 361.924 138.73V139.024H360.118C358.508 139.024 357.486 139.808 357.486 141.068C357.486 142.398 358.536 143.21 359.992 143.21ZM359.992 142.034C359.166 142.034 358.774 141.684 358.774 141.068C358.774 140.508 359.166 140.2 360.118 140.2H361.924C361.882 141.348 361.168 142.034 359.992 142.034ZM365.222 143H366.51V139.08C366.51 137.946 367.14 137.246 368.106 137.246C369.044 137.246 369.674 137.96 369.674 139.08V143H370.962V139.08C370.962 137.316 369.772 136.07 368.106 136.07C367.336 136.07 366.664 136.322 366.174 136.784L365.95 136.28H365.222V143ZM372.805 145.646C374.849 145.744 375.507 144.4 375.983 143.224L376.067 143H376.081L378.741 136.28H377.341L375.619 140.816L373.407 136.28H372.007L374.989 142.412L374.835 142.832C374.597 143.434 374.163 144.428 373.015 144.358L372.805 144.344V145.646ZM383.405 143H384.693V139.08C384.693 137.946 385.323 137.246 386.289 137.246C387.227 137.246 387.857 137.96 387.857 139.08V143H389.145V139.08C389.145 137.316 387.955 136.07 386.289 136.07C385.519 136.07 384.847 136.322 384.357 136.784L384.133 136.28H383.405V143ZM393.269 143.21C394.151 143.21 394.935 142.944 395.509 142.44L395.747 143H396.489V138.674C396.405 136.784 395.565 136.07 393.815 136.07C392.597 136.07 391.757 136.504 390.973 137.414L391.729 138.212C392.345 137.498 393.017 137.246 393.815 137.246C394.879 137.246 395.145 137.498 395.201 138.73V139.024H393.395C391.785 139.024 390.763 139.808 390.763 141.068C390.763 142.398 391.813 143.21 393.269 143.21ZM393.269 142.034C392.443 142.034 392.051 141.684 392.051 141.068C392.051 140.508 392.443 140.2 393.395 140.2H395.201C395.159 141.348 394.445 142.034 393.269 142.034ZM398.499 143H399.787V139.08C399.787 137.946 400.417 137.246 401.383 137.246C402.321 137.246 402.951 137.96 402.951 139.08V143H404.239V139.08C404.239 137.946 404.869 137.246 405.835 137.246C406.773 137.246 407.403 137.96 407.403 139.08V143H408.691V139.08C408.691 137.316 407.501 136.07 405.835 136.07C404.897 136.07 404.113 136.448 403.595 137.092C403.091 136.448 402.307 136.07 401.383 136.07C400.613 136.07 399.941 136.322 399.451 136.784L399.227 136.28H398.499V143ZM413.535 143.21C414.893 143.21 415.985 142.51 416.531 141.404L415.411 140.76C415.103 141.558 414.375 142.034 413.535 142.034C412.415 142.034 411.631 141.264 411.491 140.046H416.699C416.713 139.878 416.727 139.78 416.727 139.682C416.727 137.568 415.411 136.07 413.535 136.07C411.575 136.07 410.189 137.568 410.189 139.682C410.189 141.754 411.575 143.21 413.535 143.21ZM411.575 138.87C411.827 137.862 412.555 137.246 413.535 137.246C414.445 137.246 415.117 137.862 415.355 138.87H411.575Z" fill="#969696"/>
<rect x="79" y="229" width="445" height="38" rx="8" fill="#EEEEEE"/>
<path d="M102.682 253.21C104.614 253.21 105.888 252.062 105.888 250.172C105.888 249.36 105.412 248.324 104.53 247.764C105.23 247.288 105.622 246.518 105.622 245.916C105.622 244.124 104.446 243.06 102.682 243.06C101.016 243.06 99.91 244.124 99.91 245.916H101.282C101.282 244.978 101.772 244.446 102.682 244.446C103.69 244.446 104.25 244.922 104.25 245.846C104.25 246.7 103.522 247.288 102.192 247.288V248.366C103.69 248.38 104.516 249.094 104.516 250.102C104.516 251.208 103.858 251.824 102.682 251.824C101.604 251.824 101.016 251.292 101.016 250.186L99.644 250.172C99.644 252.062 100.848 253.21 102.682 253.21ZM110.649 253.21C112.875 253.21 114.037 251.418 114.037 248.03C114.037 244.712 112.875 242.92 110.649 242.85C108.409 242.92 107.247 244.712 107.247 248.03C107.247 251.418 108.409 253.21 110.649 253.21ZM110.649 251.95C109.333 251.95 108.619 250.76 108.619 248.03C108.619 245.37 109.333 244.18 110.649 244.11C111.951 244.18 112.665 245.384 112.665 248.03C112.665 250.746 111.951 251.95 110.649 251.95ZM122.271 253.21C124.217 253.21 125.631 251.936 125.631 250.172C125.631 248.814 124.679 247.848 123.055 247.512L121.655 247.218C120.857 247.078 120.381 246.518 120.381 245.79C120.381 244.81 121.151 244.11 122.215 244.11C122.999 244.11 123.685 244.432 124.301 245.09L125.183 244.096C124.371 243.298 123.321 242.85 122.215 242.85C120.395 242.85 119.009 244.11 119.009 245.79C119.009 247.092 119.891 248.114 121.235 248.422L122.775 248.744C123.783 248.954 124.259 249.444 124.259 250.172C124.259 251.236 123.475 251.95 122.271 251.95C121.165 251.95 120.451 251.628 119.541 250.718L118.645 251.656C119.695 252.692 120.703 253.21 122.271 253.21ZM132.117 255.66H133.405V246.28H132.677L132.383 246.966C131.795 246.406 130.997 246.07 130.059 246.07C128.085 246.07 126.685 247.526 126.685 249.598C126.685 251.712 128.085 253.21 130.059 253.21C130.857 253.21 131.557 252.958 132.117 252.524V255.66ZM130.059 252.034C128.813 252.034 127.973 251.068 127.973 249.598C127.973 248.17 128.813 247.246 130.059 247.246C131.291 247.246 132.117 248.17 132.117 249.598C132.117 251.082 131.291 252.034 130.059 252.034ZM138.289 253.21C139.059 253.21 139.731 252.944 140.221 252.496L140.445 253H141.173V246.28H139.885V250.2C139.885 251.32 139.241 252.034 138.289 252.034C137.351 252.034 136.721 251.32 136.721 250.2V246.28H135.433V250.2C135.433 251.964 136.623 253.21 138.289 253.21ZM145.367 253.21C146.249 253.21 147.033 252.944 147.607 252.44L147.845 253H148.587V248.674C148.503 246.784 147.663 246.07 145.913 246.07C144.695 246.07 143.855 246.504 143.071 247.414L143.827 248.212C144.443 247.498 145.115 247.246 145.913 247.246C146.977 247.246 147.243 247.498 147.299 248.73V249.024H145.493C143.883 249.024 142.861 249.808 142.861 251.068C142.861 252.398 143.911 253.21 145.367 253.21ZM145.367 252.034C144.541 252.034 144.149 251.684 144.149 251.068C144.149 250.508 144.541 250.2 145.493 250.2H147.299C147.257 251.348 146.543 252.034 145.367 252.034ZM150.597 253H151.885V249.262C151.927 248.142 152.837 247.246 153.943 247.246C154.125 247.246 154.349 247.26 154.573 247.302V246.126C154.321 246.084 154.125 246.07 153.943 246.07C153.047 246.07 152.235 246.42 151.633 246.98L151.325 246.28H150.597V253ZM158.51 253.21C159.868 253.21 160.96 252.51 161.506 251.404L160.386 250.76C160.078 251.558 159.35 252.034 158.51 252.034C157.39 252.034 156.606 251.264 156.466 250.046H161.674C161.688 249.878 161.702 249.78 161.702 249.682C161.702 247.568 160.386 246.07 158.51 246.07C156.55 246.07 155.164 247.568 155.164 249.682C155.164 251.754 156.55 253.21 158.51 253.21ZM156.55 248.87C156.802 247.862 157.53 247.246 158.51 247.246C159.42 247.246 160.092 247.862 160.33 248.87H156.55ZM166.995 253H168.367V245.538L171.391 253H172.427L175.451 245.538V253H176.823V243.06H175.059L171.909 250.592L168.759 243.06H166.995V253ZM182.08 253.21C183.438 253.21 184.53 252.51 185.076 251.404L183.956 250.76C183.648 251.558 182.92 252.034 182.08 252.034C180.96 252.034 180.176 251.264 180.036 250.046H185.244C185.258 249.878 185.272 249.78 185.272 249.682C185.272 247.568 183.956 246.07 182.08 246.07C180.12 246.07 178.734 247.568 178.734 249.682C178.734 251.754 180.12 253.21 182.08 253.21ZM180.12 248.87C180.372 247.862 181.1 247.246 182.08 247.246C182.99 247.246 183.662 247.862 183.9 248.87H180.12ZM189.876 253C190.058 253 190.1 253 190.142 252.986V251.74H189.876C188.966 251.74 188.728 251.488 188.7 250.438V247.456H190.142V246.28H188.7V244.124H187.412V246.28H186.208V247.456H187.412V250.438C187.44 252.496 187.93 253 189.876 253ZM194.713 253.21C196.071 253.21 197.163 252.51 197.709 251.404L196.589 250.76C196.281 251.558 195.553 252.034 194.713 252.034C193.593 252.034 192.809 251.264 192.669 250.046H197.877C197.891 249.878 197.905 249.78 197.905 249.682C197.905 247.568 196.589 246.07 194.713 246.07C192.753 246.07 191.367 247.568 191.367 249.682C191.367 251.754 192.753 253.21 194.713 253.21ZM192.753 248.87C193.005 247.862 193.733 247.246 194.713 247.246C195.623 247.246 196.295 247.862 196.533 248.87H192.753ZM199.583 253H200.871V249.262C200.913 248.142 201.823 247.246 202.929 247.246C203.111 247.246 203.335 247.26 203.559 247.302V246.126C203.307 246.084 203.111 246.07 202.929 246.07C202.033 246.07 201.221 246.42 200.619 246.98L200.311 246.28H199.583V253ZM207.321 253.21C208.847 253.21 209.841 252.454 209.841 251.278C209.841 250.27 209.281 249.668 207.951 249.15C206.621 248.604 206.285 248.422 206.285 248.016C206.285 247.442 206.663 247.246 207.321 247.246C207.755 247.246 208.161 247.358 208.623 247.652L209.379 246.784C208.525 246.21 208.007 246.07 207.321 246.07C205.907 246.07 204.997 246.812 204.997 248.016C204.997 249.024 205.557 249.458 207.447 250.228C208.371 250.592 208.553 250.816 208.553 251.278C208.553 251.754 208.175 252.034 207.321 252.034C206.579 252.034 205.823 251.726 205.193 250.97L204.367 251.726C205.081 252.58 206.033 253.21 207.321 253.21ZM217.708 254.974L218.338 253.966C217.764 253.602 217.204 253.028 216.784 252.16C216.364 251.292 216.07 250.102 216.07 248.464C216.07 246.812 216.364 245.636 216.784 244.754C217.204 243.858 217.764 243.312 218.338 242.934L217.708 241.94C216.924 242.304 216.154 242.962 215.594 244.012C215.006 245.062 214.614 246.518 214.614 248.464C214.614 250.396 215.006 251.824 215.594 252.874C216.154 253.938 216.924 254.61 217.708 254.974ZM220.793 253H222.165V243.06H220.849C220.695 244.488 219.561 245.44 218.623 245.44V246.28H220.793V253ZM226.917 253.224C229.087 253.224 230.207 251.432 230.207 247.918C230.207 246.476 229.997 245.342 229.591 244.516C229.437 244.194 229.241 243.914 229.003 243.676C228.499 243.158 227.827 242.878 227.001 242.864H226.903C225.083 242.864 223.865 244.194 223.865 246.182C223.865 248.114 225.083 249.416 226.903 249.416C227.659 249.416 228.303 249.192 228.807 248.772C228.681 250.956 228.023 251.852 226.917 251.852C225.993 251.852 225.377 251.278 225.349 250.368H223.977C224.019 252.02 225.251 253.224 226.917 253.224ZM226.903 248.058C225.895 248.058 225.223 247.302 225.223 246.182C225.223 245.02 225.895 244.236 226.903 244.236C227.897 244.236 228.555 245.02 228.555 246.182C228.555 247.302 227.897 248.058 226.903 248.058ZM235.456 253H236.828V250.704H238.48V249.332H236.828V243.158L236.884 243.06H235.456L231.424 249.248V250.704H235.456V253ZM232.88 249.332L235.456 245.37V249.332H232.88ZM242.325 253.224C244.495 253.224 245.615 251.432 245.615 247.918C245.615 246.476 245.405 245.342 244.999 244.516C244.845 244.194 244.649 243.914 244.411 243.676C243.907 243.158 243.235 242.878 242.409 242.864H242.311C240.491 242.864 239.273 244.194 239.273 246.182C239.273 248.114 240.491 249.416 242.311 249.416C243.067 249.416 243.711 249.192 244.215 248.772C244.089 250.956 243.431 251.852 242.325 251.852C241.401 251.852 240.785 251.278 240.757 250.368H239.385C239.427 252.02 240.659 253.224 242.325 253.224ZM242.311 248.058C241.303 248.058 240.631 247.302 240.631 246.182C240.631 245.02 241.303 244.236 242.311 244.236C243.305 244.236 243.963 245.02 243.963 246.182C243.963 247.302 243.305 248.058 242.311 248.058ZM253.849 253.21C255.795 253.21 257.209 251.936 257.209 250.172C257.209 248.814 256.257 247.848 254.633 247.512L253.233 247.218C252.435 247.078 251.959 246.518 251.959 245.79C251.959 244.81 252.729 244.11 253.793 244.11C254.577 244.11 255.263 244.432 255.879 245.09L256.761 244.096C255.949 243.298 254.899 242.85 253.793 242.85C251.973 242.85 250.587 244.11 250.587 245.79C250.587 247.092 251.469 248.114 252.813 248.422L254.353 248.744C255.361 248.954 255.837 249.444 255.837 250.172C255.837 251.236 255.053 251.95 253.849 251.95C252.743 251.95 252.029 251.628 251.119 250.718L250.223 251.656C251.273 252.692 252.281 253.21 253.849 253.21ZM257.953 253H259.409L260.473 250.214H264.449L265.513 253H266.969L263.189 243.06H261.733L257.953 253ZM260.949 248.954L262.461 244.978L263.973 248.954H260.949ZM268.466 253H269.838V248.716H271.168L273.646 253H275.102L272.624 248.702C273.912 248.59 274.92 247.372 274.92 245.888C274.92 244.334 273.8 243.06 272.414 243.06H268.466V253ZM269.838 247.456V244.32H272.232C272.96 244.32 273.548 245.034 273.548 245.888C273.548 246.728 272.96 247.456 272.232 247.456H269.838ZM279.113 253.07H280.555L284.965 242.892H283.523L279.113 253.07ZM289.7 253H291.072V245.538L294.096 253H295.132L298.156 245.538V253H299.528V243.06H297.764L294.614 250.592L291.464 243.06H289.7V253ZM304.855 253.21C306.871 253.21 308.285 251.754 308.285 249.696C308.285 247.582 306.857 246.07 304.855 246.07C302.839 246.07 301.425 247.568 301.425 249.696C301.425 251.754 302.839 253.21 304.855 253.21ZM304.855 252.034C303.553 252.034 302.713 251.11 302.713 249.696C302.713 248.212 303.567 247.246 304.855 247.246C306.129 247.246 306.997 248.226 306.997 249.696C306.997 251.11 306.157 252.034 304.855 252.034ZM309.97 253H311.258V249.08C311.258 247.946 311.888 247.246 312.854 247.246C313.792 247.246 314.422 247.96 314.422 249.08V253H315.71V249.08C315.71 247.316 314.52 246.07 312.854 246.07C312.084 246.07 311.412 246.322 310.922 246.784L310.698 246.28H309.97V253ZM320.73 253C320.912 253 320.954 253 320.996 252.986V251.74H320.73C319.82 251.74 319.582 251.488 319.554 250.438V247.456H320.996V246.28H319.554V244.124H318.266V246.28H317.062V247.456H318.266V250.438C318.294 252.496 318.784 253 320.73 253ZM322.741 253H324.029V249.08C324.029 247.946 324.659 247.246 325.625 247.246C326.563 247.246 327.193 247.96 327.193 249.08V253H328.481V249.08C328.481 247.316 327.291 246.07 325.625 246.07C325.023 246.07 324.477 246.224 324.029 246.518V242.85H322.741V253ZM330.056 254.974C330.84 254.61 331.624 253.938 332.198 252.874C332.772 251.824 333.122 250.396 333.122 248.464C333.122 246.518 332.772 245.062 332.198 244.012C331.624 242.962 330.84 242.304 330.056 241.94L329.398 242.934C329.986 243.312 330.56 243.858 330.98 244.754C331.4 245.636 331.68 246.812 331.68 248.464C331.68 250.102 331.4 251.292 330.98 252.16C330.56 253.028 329.986 253.602 329.398 253.966L330.056 254.974Z" fill="black"/>
<path d="M500.625 245.75L495 251.375L489.375 245.75" stroke="black" stroke-width="2" stroke-linecap="round" stroke-linejoin="round"/>
<rect x="79" y="290" width="445" height="43" rx="5" fill="#0B7377"/>
<path d="M282.354 317.21C284.328 317.21 285.77 315.908 285.77 314.158C285.77 312.66 284.734 311.568 282.998 311.204L281.794 310.91C281.136 310.798 280.772 310.406 280.772 309.818C280.772 309.202 281.402 308.754 282.298 308.754C282.998 308.754 283.6 308.992 284.16 309.524L285.406 308.096C284.524 307.256 283.474 306.85 282.284 306.85C280.366 306.85 278.784 308.236 278.784 309.944C278.784 311.428 279.764 312.506 281.402 312.856L282.578 313.136C283.348 313.29 283.796 313.724 283.796 314.284C283.796 314.914 283.236 315.306 282.354 315.306C281.29 315.306 280.45 314.97 279.736 314.27L278.42 315.642C279.554 316.692 280.842 317.21 282.354 317.21ZM290.182 317.21C290.91 317.21 291.554 317 292.072 316.622L292.226 317H293.346V310.28H291.442V313.934C291.442 314.9 290.952 315.502 290.182 315.502C289.412 315.502 288.922 314.9 288.922 313.934V310.28H287.018V313.934C287.018 315.838 288.334 317.21 290.182 317.21ZM298.61 317.21C300.584 317.21 301.984 315.754 301.984 313.682C301.984 311.568 300.584 310.07 298.61 310.07C298.078 310.07 297.602 310.182 297.168 310.378V306.85H295.264V317H296.384L296.566 316.552C297.126 316.972 297.826 317.21 298.61 317.21ZM298.61 315.502C297.728 315.502 297.168 314.83 297.168 313.682C297.168 312.492 297.756 311.778 298.61 311.778C299.492 311.778 300.08 312.492 300.08 313.682C300.08 314.83 299.506 315.502 298.61 315.502ZM303.453 317H305.357V313.346C305.357 312.38 305.847 311.778 306.617 311.778C307.387 311.778 307.877 312.38 307.877 313.346V317H309.781V313.346C309.781 312.38 310.271 311.778 311.041 311.778C311.811 311.778 312.301 312.38 312.301 313.346V317H314.205V313.346C314.205 311.442 312.889 310.07 311.041 310.07C310.145 310.07 309.389 310.392 308.829 310.924C308.269 310.392 307.513 310.07 306.617 310.07C305.889 310.07 305.245 310.28 304.727 310.658L304.573 310.28H303.453V317ZM317.163 309.272C317.849 309.272 318.437 308.656 318.423 307.998C318.409 307.284 317.863 306.696 317.163 306.696C316.449 306.696 315.875 307.284 315.875 307.998C315.875 308.712 316.449 309.272 317.163 309.272ZM316.197 317H318.115V310.28H316.197V317ZM323.421 317C323.673 317 323.799 316.986 323.981 316.958V315.292H323.421C322.567 315.292 322.469 315.11 322.469 313.766V311.988H323.981V310.28H322.469V308.124H320.551V310.28H319.403V311.988H320.551V313.766C320.537 316.286 321.125 317 323.421 317Z" fill="white"/>
</g>
<g clip-path="url(#clip1_141_412)">
<rect y="262" width="256" height="149" rx="21" fill="#FBFBFB"/>
<rect x="-6.5" y="260.5" width="269" height="41" fill="#F4F4F4" stroke="#E9E9E9"/>
<path d="M55.982 288H57.97V279.964H60.714V278.06H53.224V279.964H55.982V288ZM61.6984 288H63.6024V284.346C63.6024 283.38 64.0924 282.778 64.8624 282.778C65.6324 282.778 66.1224 283.38 66.1224 284.346V288H68.0264V284.346C68.0264 282.442 66.7104 281.07 64.8624 281.07C64.4004 281.07 63.9804 281.154 63.6024 281.308V277.85H61.6984V288ZM71.7212 288.21C72.4632 288.21 73.1352 288.014 73.6812 287.65L73.8212 288H74.9412V283.744C74.8572 281.868 74.0172 281.07 72.2672 281.07C71.0492 281.07 70.2092 281.504 69.4252 282.414L70.4892 283.548C71.0072 282.946 71.6232 282.778 72.2672 282.778C72.9672 282.778 73.0372 283.17 73.0372 283.744V284.024H71.8472C70.2372 284.024 69.2152 284.808 69.2152 286.068C69.2152 287.398 70.2652 288.21 71.7212 288.21ZM71.7072 286.81C71.0632 286.81 70.9092 286.544 70.9092 286.068C70.9092 285.69 71.0632 285.424 71.8332 285.424H73.0372C73.0232 286.53 72.3932 286.81 71.7072 286.81ZM76.2409 288H78.1449V284.346C78.1449 283.38 78.6349 282.778 79.4049 282.778C80.1749 282.778 80.6649 283.38 80.6649 284.346V288H82.5689V284.346C82.5689 282.442 81.2529 281.07 79.4049 281.07C78.6769 281.07 78.0329 281.28 77.5149 281.658L77.3609 281.28H76.2409V288ZM84.0732 288.014H85.9772V284.864L88.3852 288H90.7932L87.8532 284.192L90.4712 281.28H87.9512L85.9772 283.464V277.85H84.0732V288.014ZM94.0779 288.21C95.6599 288.21 96.7379 287.384 96.7379 286.152C96.7379 285.102 96.1639 284.444 94.7779 283.912C93.6439 283.464 93.4619 283.352 93.4619 283.142C93.4619 282.876 93.6719 282.694 94.1339 282.694C94.5119 282.694 94.8339 282.806 95.2259 283.058L96.3319 281.938C95.6459 281.364 94.8759 281.07 94.1339 281.07C92.6499 281.07 91.5999 281.91 91.5999 283.142C91.5999 284.346 92.7899 284.92 94.0639 285.41C94.7359 285.732 94.8619 285.83 94.8619 286.152C94.8619 286.404 94.6239 286.586 94.0779 286.586C93.4759 286.586 92.7059 286.194 92.1459 285.592L91.0119 286.642C91.8379 287.664 92.8879 288.21 94.0779 288.21ZM101.09 288H103.008V282.988H104.52V281.28H103.008V281.084C103.008 279.74 103.106 279.558 103.96 279.558H104.52V277.892C104.338 277.864 104.212 277.85 103.96 277.85C101.664 277.85 101.076 278.564 101.09 281.084V281.28H100.25V282.988H101.09V288ZM108.205 288.21C110.221 288.21 111.635 286.754 111.635 284.696C111.635 282.568 110.221 281.07 108.205 281.07C106.189 281.07 104.775 282.568 104.775 284.696C104.775 286.754 106.189 288.21 108.205 288.21ZM108.205 286.502C107.267 286.502 106.679 285.83 106.679 284.696C106.679 283.492 107.281 282.778 108.205 282.778C109.129 282.778 109.731 283.492 109.731 284.696C109.731 285.83 109.143 286.502 108.205 286.502ZM112.82 288H114.724V284.402C114.724 283.52 115.424 282.778 116.264 282.778C116.656 282.778 116.796 282.82 116.978 282.862V281.126C116.74 281.098 116.502 281.07 116.264 281.07C115.466 281.07 114.738 281.336 114.15 281.77L113.94 281.28H112.82V288ZM120.924 290.66H121.12C122.982 290.66 124.186 289.932 124.816 287.972V287.986L125.04 287.398L127.462 281.28H125.432L124.018 284.99L122.198 281.28H120.168L123.108 287.286L123.066 287.398C122.786 288.056 122.562 288.952 121.526 288.952H120.924V290.66ZM130.901 288.21C132.917 288.21 134.331 286.754 134.331 284.696C134.331 282.568 132.917 281.07 130.901 281.07C128.885 281.07 127.471 282.568 127.471 284.696C127.471 286.754 128.885 288.21 130.901 288.21ZM130.901 286.502C129.963 286.502 129.375 285.83 129.375 284.696C129.375 283.492 129.977 282.778 130.901 282.778C131.825 282.778 132.427 283.492 132.427 284.696C132.427 285.83 131.839 286.502 130.901 286.502ZM138.583 288.21C139.311 288.21 139.955 288 140.473 287.622L140.627 288H141.747V281.28H139.843V284.934C139.843 285.9 139.353 286.502 138.583 286.502C137.813 286.502 137.323 285.9 137.323 284.934V281.28H135.419V284.934C135.419 286.838 136.735 288.21 138.583 288.21ZM143.385 288H145.289V284.402C145.289 283.52 145.989 282.778 146.829 282.778C147.221 282.778 147.361 282.82 147.543 282.862V281.126C147.305 281.098 147.067 281.07 146.829 281.07C146.031 281.07 145.303 281.336 144.715 281.77L144.505 281.28H143.385V288ZM152.693 280.272C153.379 280.272 153.967 279.656 153.953 278.998C153.939 278.284 153.393 277.696 152.693 277.696C151.979 277.696 151.405 278.284 151.405 278.998C151.405 279.712 151.979 280.272 152.693 280.272ZM151.727 288H153.645V281.28H151.727V288ZM155.241 288H157.145V284.346C157.145 283.38 157.635 282.778 158.405 282.778C159.175 282.778 159.665 283.38 159.665 284.346V288H161.569V284.346C161.569 282.442 160.253 281.07 158.405 281.07C157.677 281.07 157.033 281.28 156.515 281.658L156.361 281.28H155.241V288ZM166.293 288C166.545 288 166.671 287.986 166.853 287.958V286.292H166.293C165.439 286.292 165.341 286.11 165.341 284.766V282.988H166.853V281.28H165.341V279.124H163.423V281.28H162.275V282.988H163.423V284.766C163.409 287.286 163.997 288 166.293 288ZM170.814 288.21C172.214 288.21 173.166 287.636 173.824 286.516L172.396 285.69C172.102 286.278 171.64 286.502 170.814 286.502C170.058 286.502 169.54 286.026 169.4 285.2H174.034C174.062 285.032 174.076 284.794 174.076 284.696C174.076 282.568 172.732 281.07 170.814 281.07C168.882 281.07 167.538 282.568 167.538 284.696C167.538 286.754 168.882 288.21 170.814 288.21ZM169.484 283.8C169.708 283.142 170.184 282.778 170.814 282.778C171.444 282.778 171.906 283.142 172.13 283.8H169.484ZM175.242 288H177.146V284.402C177.146 283.52 177.846 282.778 178.686 282.778C179.078 282.778 179.218 282.82 179.4 282.862V281.126C179.162 281.098 178.924 281.07 178.686 281.07C177.888 281.07 177.16 281.336 176.572 281.77L176.362 281.28H175.242V288ZM183.092 288.21C184.492 288.21 185.444 287.636 186.102 286.516L184.674 285.69C184.38 286.278 183.918 286.502 183.092 286.502C182.336 286.502 181.818 286.026 181.678 285.2H186.312C186.34 285.032 186.354 284.794 186.354 284.696C186.354 282.568 185.01 281.07 183.092 281.07C181.16 281.07 179.816 282.568 179.816 284.696C179.816 286.754 181.16 288.21 183.092 288.21ZM181.762 283.8C181.986 283.142 182.462 282.778 183.092 282.778C183.722 282.778 184.184 283.142 184.408 283.8H181.762ZM189.998 288.21C191.58 288.21 192.658 287.384 192.658 286.152C192.658 285.102 192.084 284.444 190.698 283.912C189.564 283.464 189.382 283.352 189.382 283.142C189.382 282.876 189.592 282.694 190.054 282.694C190.432 282.694 190.754 282.806 191.146 283.058L192.252 281.938C191.566 281.364 190.796 281.07 190.054 281.07C188.57 281.07 187.52 281.91 187.52 283.142C187.52 284.346 188.71 284.92 189.984 285.41C190.656 285.732 190.782 285.83 190.782 286.152C190.782 286.404 190.544 286.586 189.998 286.586C189.396 286.586 188.626 286.194 188.066 285.592L186.932 286.642C187.758 287.664 188.808 288.21 189.998 288.21ZM197.09 288C197.342 288 197.468 287.986 197.65 287.958V286.292H197.09C196.236 286.292 196.138 286.11 196.138 284.766V282.988H197.65V281.28H196.138V279.124H194.22V281.28H193.072V282.988H194.22V284.766C194.206 287.286 194.794 288 197.09 288ZM199.623 284.738H201.107L201.443 278.074H199.273L199.623 284.738ZM200.393 288.168C201.093 288.168 201.625 287.622 201.625 286.908C201.625 286.208 201.093 285.648 200.393 285.648C199.651 285.648 199.119 286.208 199.119 286.908C199.119 287.622 199.651 288.168 200.393 288.168Z" fill="black"/>
<path d="M38.0483 363.195C40.5833 363.195 42.6633 361.05 42.6633 358.385C42.6633 355.733 40.5833 353.575 38.0483 353.575C35.5263 353.575 33.4463 355.733 33.4463 358.385C33.4463 361.05 35.5263 363.195 38.0483 363.195ZM38.0483 362.025C36.2283 362.025 34.7203 360.387 34.7203 358.385C34.7203 356.383 36.2283 354.745 38.0483 354.745C39.8683 354.745 41.3893 356.383 41.3893 358.385C41.3893 360.4 39.8813 362.025 38.0483 362.025ZM46.8731 363.195C47.5881 363.195 48.2121 362.948 48.6671 362.532L48.8751 363H49.5511V356.76H48.3551V360.4C48.3551 361.44 47.7571 362.103 46.8731 362.103C46.0021 362.103 45.4171 361.44 45.4171 360.4V356.76H44.2211V360.4C44.2211 362.038 45.3261 363.195 46.8731 363.195ZM51.5605 363H52.7565V359.529C52.7955 358.489 53.6405 357.657 54.6675 357.657C54.8365 357.657 55.0445 357.67 55.2525 357.709V356.617C55.0185 356.578 54.8365 356.565 54.6675 356.565C53.8355 356.565 53.0815 356.89 52.5225 357.41L52.2365 356.76H51.5605V363ZM62.4025 363C62.5715 363 62.6105 363 62.6495 362.987V361.83H62.4025C61.5575 361.83 61.3365 361.596 61.3105 360.621V357.852H62.6495V356.76H61.3105V354.758H60.1145V356.76H58.9965V357.852H60.1145V360.621C60.1405 362.532 60.5955 363 62.4025 363ZM66.8939 363.195C68.1549 363.195 69.1689 362.545 69.6759 361.518L68.6359 360.92C68.3499 361.661 67.6739 362.103 66.8939 362.103C65.8539 362.103 65.1259 361.388 64.9959 360.257H69.8319C69.8449 360.101 69.8579 360.01 69.8579 359.919C69.8579 357.956 68.6359 356.565 66.8939 356.565C65.0739 356.565 63.7869 357.956 63.7869 359.919C63.7869 361.843 65.0739 363.195 66.8939 363.195ZM65.0739 359.165C65.3079 358.229 65.9839 357.657 66.8939 357.657C67.7389 357.657 68.3629 358.229 68.5839 359.165H65.0739ZM73.301 363.195C74.12 363.195 74.848 362.948 75.381 362.48L75.602 363H76.291V358.983C76.213 357.228 75.433 356.565 73.808 356.565C72.677 356.565 71.897 356.968 71.169 357.813L71.871 358.554C72.443 357.891 73.067 357.657 73.808 357.657C74.796 357.657 75.043 357.891 75.095 359.035V359.308H73.418C71.923 359.308 70.974 360.036 70.974 361.206C70.974 362.441 71.949 363.195 73.301 363.195ZM73.301 362.103C72.534 362.103 72.17 361.778 72.17 361.206C72.17 360.686 72.534 360.4 73.418 360.4H75.095C75.056 361.466 74.393 362.103 73.301 362.103ZM78.1572 363H79.3532V359.36C79.3532 358.307 79.9382 357.657 80.8352 357.657C81.7062 357.657 82.2912 358.32 82.2912 359.36V363H83.4872V359.36C83.4872 358.307 84.0722 357.657 84.9692 357.657C85.8402 357.657 86.4252 358.32 86.4252 359.36V363H87.6212V359.36C87.6212 357.722 86.5162 356.565 84.9692 356.565C84.0982 356.565 83.3702 356.916 82.8892 357.514C82.4212 356.916 81.6932 356.565 80.8352 356.565C80.1202 356.565 79.4962 356.799 79.0412 357.228L78.8332 356.76H78.1572V363ZM93.2792 355.369C93.7602 355.369 94.1372 354.979 94.1372 354.485C94.1372 354.03 93.7602 353.627 93.2792 353.627C92.7982 353.627 92.4212 354.017 92.4212 354.485C92.4212 354.979 92.7982 355.369 93.2792 355.369ZM92.6812 363H93.8772V356.76H92.6812V363ZM98.1394 363.195C99.5564 363.195 100.479 362.493 100.479 361.401C100.479 360.465 99.9594 359.906 98.7244 359.425C97.4894 358.918 97.1774 358.749 97.1774 358.372C97.1774 357.839 97.5284 357.657 98.1394 357.657C98.5424 357.657 98.9194 357.761 99.3484 358.034L100.05 357.228C99.2574 356.695 98.7764 356.565 98.1394 356.565C96.8264 356.565 95.9814 357.254 95.9814 358.372C95.9814 359.308 96.5014 359.711 98.2564 360.426C99.1144 360.764 99.2834 360.972 99.2834 361.401C99.2834 361.843 98.9324 362.103 98.1394 362.103C97.4504 362.103 96.7484 361.817 96.1634 361.115L95.3964 361.817C96.0594 362.61 96.9434 363.195 98.1394 363.195ZM107.836 363.195C109.097 363.195 110.111 362.545 110.618 361.518L109.578 360.92C109.292 361.661 108.616 362.103 107.836 362.103C106.796 362.103 106.068 361.388 105.938 360.257H110.774C110.787 360.101 110.8 360.01 110.8 359.919C110.8 357.956 109.578 356.565 107.836 356.565C106.016 356.565 104.729 357.956 104.729 359.919C104.729 361.843 106.016 363.195 107.836 363.195ZM106.016 359.165C106.25 358.229 106.926 357.657 107.836 357.657C108.681 357.657 109.305 358.229 109.526 359.165H106.016ZM114.243 363.195C115.062 363.195 115.79 362.948 116.323 362.48L116.544 363H117.233V358.983C117.155 357.228 116.375 356.565 114.75 356.565C113.619 356.565 112.839 356.968 112.111 357.813L112.813 358.554C113.385 357.891 114.009 357.657 114.75 357.657C115.738 357.657 115.985 357.891 116.037 359.035V359.308H114.36C112.865 359.308 111.916 360.036 111.916 361.206C111.916 362.441 112.891 363.195 114.243 363.195ZM114.243 362.103C113.476 362.103 113.112 361.778 113.112 361.206C113.112 360.686 113.476 360.4 114.36 360.4H116.037C115.998 361.466 115.335 362.103 114.243 362.103ZM121.622 365.665C123.442 365.665 124.82 364.274 124.82 362.545V356.76H124.144L123.845 357.436C123.286 356.89 122.532 356.565 121.713 356.565C120.01 356.565 118.632 357.956 118.632 359.724C118.632 361.427 120.01 362.805 121.713 362.805C122.428 362.805 123.091 362.558 123.624 362.155V362.545C123.624 363.702 122.753 364.573 121.622 364.573C120.79 364.573 120.114 364.131 119.698 363.286L118.697 363.884C119.243 364.937 120.335 365.665 121.622 365.665ZM121.713 361.713C120.673 361.713 119.828 360.829 119.828 359.724C119.828 358.567 120.673 357.657 121.713 357.657C122.753 357.657 123.624 358.58 123.624 359.724C123.624 360.816 122.766 361.713 121.713 361.713ZM129.368 363.195C130.629 363.195 131.643 362.545 132.15 361.518L131.11 360.92C130.824 361.661 130.148 362.103 129.368 362.103C128.328 362.103 127.6 361.388 127.47 360.257H132.306C132.319 360.101 132.332 360.01 132.332 359.919C132.332 357.956 131.11 356.565 129.368 356.565C127.548 356.565 126.261 357.956 126.261 359.919C126.261 361.843 127.548 363.195 129.368 363.195ZM127.548 359.165C127.782 358.229 128.458 357.657 129.368 357.657C130.213 357.657 130.837 358.229 131.058 359.165H127.548ZM133.89 363H135.086V359.529C135.125 358.489 135.97 357.657 136.997 357.657C137.166 357.657 137.374 357.67 137.582 357.709V356.617C137.348 356.578 137.166 356.565 136.997 356.565C136.165 356.565 135.411 356.89 134.852 357.41L134.566 356.76H133.89V363ZM144.732 363C144.901 363 144.94 363 144.979 362.987V361.83H144.732C143.887 361.83 143.666 361.596 143.64 360.621V357.852H144.979V356.76H143.64V354.758H142.444V356.76H141.326V357.852H142.444V360.621C142.47 362.532 142.925 363 144.732 363ZM149.288 363.195C151.16 363.195 152.473 361.843 152.473 359.932C152.473 357.969 151.147 356.565 149.288 356.565C147.416 356.565 146.103 357.956 146.103 359.932C146.103 361.843 147.416 363.195 149.288 363.195ZM149.288 362.103C148.079 362.103 147.299 361.245 147.299 359.932C147.299 358.554 148.092 357.657 149.288 357.657C150.471 357.657 151.277 358.567 151.277 359.932C151.277 361.245 150.497 362.103 149.288 362.103ZM159.76 363.195C160.475 363.195 161.099 362.948 161.554 362.532L161.762 363H162.438V356.76H161.242V360.4C161.242 361.44 160.644 362.103 159.76 362.103C158.889 362.103 158.304 361.44 158.304 360.4V356.76H157.108V360.4C157.108 362.038 158.213 363.195 159.76 363.195ZM164.447 363H165.643V359.36C165.643 358.307 166.228 357.657 167.125 357.657C167.996 357.657 168.581 358.32 168.581 359.36V363H169.777V359.36C169.777 357.722 168.672 356.565 167.125 356.565C166.41 356.565 165.786 356.799 165.331 357.228L165.123 356.76H164.447V363ZM174.335 363.195C175.206 363.195 175.947 362.883 176.493 362.363L176.766 363H177.442V353.575H176.246V357.202C175.726 356.799 175.076 356.565 174.335 356.565C172.502 356.565 171.202 357.956 171.202 359.919C171.202 361.843 172.502 363.195 174.335 363.195ZM174.335 362.103C173.178 362.103 172.398 361.245 172.398 359.919C172.398 358.554 173.178 357.657 174.335 357.657C175.479 357.657 176.246 358.541 176.246 359.919C176.246 361.245 175.479 362.103 174.335 362.103ZM182.053 363.195C183.314 363.195 184.328 362.545 184.835 361.518L183.795 360.92C183.509 361.661 182.833 362.103 182.053 362.103C181.013 362.103 180.285 361.388 180.155 360.257H184.991C185.004 360.101 185.017 360.01 185.017 359.919C185.017 357.956 183.795 356.565 182.053 356.565C180.233 356.565 178.946 357.956 178.946 359.919C178.946 361.843 180.233 363.195 182.053 363.195ZM180.233 359.165C180.467 358.229 181.143 357.657 182.053 357.657C182.898 357.657 183.522 358.229 183.743 359.165H180.233ZM186.575 363H187.771V359.529C187.81 358.489 188.655 357.657 189.682 357.657C189.851 357.657 190.059 357.67 190.267 357.709V356.617C190.033 356.578 189.851 356.565 189.682 356.565C188.85 356.565 188.096 356.89 187.537 357.41L187.251 356.76H186.575V363ZM193.761 363.195C195.178 363.195 196.101 362.493 196.101 361.401C196.101 360.465 195.581 359.906 194.346 359.425C193.111 358.918 192.799 358.749 192.799 358.372C192.799 357.839 193.15 357.657 193.761 357.657C194.164 357.657 194.541 357.761 194.97 358.034L195.672 357.228C194.879 356.695 194.398 356.565 193.761 356.565C192.448 356.565 191.603 357.254 191.603 358.372C191.603 359.308 192.123 359.711 193.878 360.426C194.736 360.764 194.905 360.972 194.905 361.401C194.905 361.843 194.554 362.103 193.761 362.103C193.072 362.103 192.37 361.817 191.785 361.115L191.018 361.817C191.681 362.61 192.565 363.195 193.761 363.195ZM200.439 363C200.608 363 200.647 363 200.686 362.987V361.83H200.439C199.594 361.83 199.373 361.596 199.347 360.621V357.852H200.686V356.76H199.347V354.758H198.151V356.76H197.033V357.852H198.151V360.621C198.177 362.532 198.632 363 200.439 363ZM204.317 363.195C205.136 363.195 205.864 362.948 206.397 362.48L206.618 363H207.307V358.983C207.229 357.228 206.449 356.565 204.824 356.565C203.693 356.565 202.913 356.968 202.185 357.813L202.887 358.554C203.459 357.891 204.083 357.657 204.824 357.657C205.812 357.657 206.059 357.891 206.111 359.035V359.308H204.434C202.939 359.308 201.99 360.036 201.99 361.206C201.99 362.441 202.965 363.195 204.317 363.195ZM204.317 362.103C203.55 362.103 203.186 361.778 203.186 361.206C203.186 360.686 203.55 360.4 204.434 360.4H206.111C206.072 361.466 205.409 362.103 204.317 362.103ZM209.173 363H210.369V359.36C210.369 358.307 210.954 357.657 211.851 357.657C212.722 357.657 213.307 358.32 213.307 359.36V363H214.503V359.36C214.503 357.722 213.398 356.565 211.851 356.565C211.136 356.565 210.512 356.799 210.057 357.228L209.849 356.76H209.173V363ZM219.06 363.195C219.931 363.195 220.672 362.883 221.218 362.363L221.491 363H222.167V353.575H220.971V357.202C220.451 356.799 219.801 356.565 219.06 356.565C217.227 356.565 215.927 357.956 215.927 359.919C215.927 361.843 217.227 363.195 219.06 363.195ZM219.06 362.103C217.903 362.103 217.123 361.245 217.123 359.919C217.123 358.554 217.903 357.657 219.06 357.657C220.204 357.657 220.971 358.541 220.971 359.919C220.971 361.245 220.204 362.103 219.06 362.103ZM31.6122 381.457C33.5102 381.548 34.1212 380.3 34.5632 379.208L34.6412 379H34.6542L37.1242 372.76H35.8242L34.2252 376.972L32.1712 372.76H30.8712L33.6402 378.454L33.4972 378.844C33.2762 379.403 32.8732 380.326 31.8072 380.261L31.6122 380.248V381.457ZM40.7304 379.195C42.6024 379.195 43.9154 377.843 43.9154 375.932C43.9154 373.969 42.5894 372.565 40.7304 372.565C38.8584 372.565 37.5454 373.956 37.5454 375.932C37.5454 377.843 38.8584 379.195 40.7304 379.195ZM40.7304 378.103C39.5214 378.103 38.7414 377.245 38.7414 375.932C38.7414 374.554 39.5344 373.657 40.7304 373.657C41.9134 373.657 42.7194 374.567 42.7194 375.932C42.7194 377.245 41.9394 378.103 40.7304 378.103ZM48.003 379.195C48.718 379.195 49.342 378.948 49.797 378.532L50.005 379H50.681V372.76H49.485V376.4C49.485 377.44 48.887 378.103 48.003 378.103C47.132 378.103 46.547 377.44 46.547 376.4V372.76H45.351V376.4C45.351 378.038 46.456 379.195 48.003 379.195ZM52.6904 379H53.8864V375.529C53.9254 374.489 54.7704 373.657 55.7974 373.657C55.9664 373.657 56.1744 373.67 56.3824 373.709V372.617C56.1484 372.578 55.9664 372.565 55.7974 372.565C54.9654 372.565 54.2114 372.89 53.6524 373.41L53.3664 372.76H52.6904V379ZM60.8154 379H62.0114V375.36C62.0114 374.307 62.5964 373.657 63.4934 373.657C64.3644 373.657 64.9494 374.32 64.9494 375.36V379H66.1454V375.36C66.1454 373.722 65.0404 372.565 63.4934 372.565C62.7784 372.565 62.1544 372.799 61.6994 373.228L61.4914 372.76H60.8154V379ZM70.6898 379.195C71.9508 379.195 72.9648 378.545 73.4718 377.518L72.4318 376.92C72.1458 377.661 71.4698 378.103 70.6898 378.103C69.6498 378.103 68.9218 377.388 68.7918 376.257H73.6278C73.6408 376.101 73.6538 376.01 73.6538 375.919C73.6538 373.956 72.4318 372.565 70.6898 372.565C68.8698 372.565 67.5828 373.956 67.5828 375.919C67.5828 377.843 68.8698 379.195 70.6898 379.195ZM68.8698 375.165C69.1038 374.229 69.7798 373.657 70.6898 373.657C71.5348 373.657 72.1588 374.229 72.3798 375.165H68.8698ZM77.8119 379.195C79.0729 379.195 80.0869 378.545 80.5939 377.518L79.5539 376.92C79.2679 377.661 78.5919 378.103 77.8119 378.103C76.7719 378.103 76.0439 377.388 75.9139 376.257H80.7499C80.7629 376.101 80.7759 376.01 80.7759 375.919C80.7759 373.956 79.5539 372.565 77.8119 372.565C75.9919 372.565 74.7049 373.956 74.7049 375.919C74.7049 377.843 75.9919 379.195 77.8119 379.195ZM75.9919 375.165C76.2259 374.229 76.9019 373.657 77.8119 373.657C78.6569 373.657 79.2809 374.229 79.5019 375.165H75.9919ZM84.9469 379.195C85.8179 379.195 86.5589 378.883 87.1049 378.363L87.3779 379H88.0539V369.575H86.8579V373.202C86.3379 372.799 85.6879 372.565 84.9469 372.565C83.1139 372.565 81.8139 373.956 81.8139 375.919C81.8139 377.843 83.1139 379.195 84.9469 379.195ZM84.9469 378.103C83.7899 378.103 83.0099 377.245 83.0099 375.919C83.0099 374.554 83.7899 373.657 84.9469 373.657C86.0909 373.657 86.8579 374.541 86.8579 375.919C86.8579 377.245 86.0909 378.103 84.9469 378.103ZM92.2234 379.195C93.6404 379.195 94.5634 378.493 94.5634 377.401C94.5634 376.465 94.0434 375.906 92.8084 375.425C91.5734 374.918 91.2614 374.749 91.2614 374.372C91.2614 373.839 91.6124 373.657 92.2234 373.657C92.6264 373.657 93.0034 373.761 93.4324 374.034L94.1344 373.228C93.3414 372.695 92.8604 372.565 92.2234 372.565C90.9104 372.565 90.0654 373.254 90.0654 374.372C90.0654 375.308 90.5854 375.711 92.3404 376.426C93.1984 376.764 93.3674 376.972 93.3674 377.401C93.3674 377.843 93.0164 378.103 92.2234 378.103C91.5344 378.103 90.8324 377.817 90.2474 377.115L89.4804 377.817C90.1434 378.61 91.0274 379.195 92.2234 379.195ZM101.205 379.195C102.024 379.195 102.752 378.948 103.285 378.48L103.506 379H104.195V374.983C104.117 373.228 103.337 372.565 101.712 372.565C100.581 372.565 99.8013 372.968 99.0733 373.813L99.7753 374.554C100.347 373.891 100.971 373.657 101.712 373.657C102.7 373.657 102.947 373.891 102.999 375.035V375.308H101.322C99.8273 375.308 98.8783 376.036 98.8783 377.206C98.8783 378.441 99.8533 379.195 101.205 379.195ZM101.205 378.103C100.438 378.103 100.074 377.778 100.074 377.206C100.074 376.686 100.438 376.4 101.322 376.4H102.999C102.96 377.466 102.297 378.103 101.205 378.103ZM106.061 379H107.257V375.36C107.257 374.307 107.842 373.657 108.739 373.657C109.61 373.657 110.195 374.32 110.195 375.36V379H111.391V375.36C111.391 373.722 110.286 372.565 108.739 372.565C108.024 372.565 107.4 372.799 106.945 373.228L106.737 372.76H106.061V379ZM115.949 379.195C116.82 379.195 117.561 378.883 118.107 378.363L118.38 379H119.056V369.575H117.86V373.202C117.34 372.799 116.69 372.565 115.949 372.565C114.116 372.565 112.816 373.956 112.816 375.919C112.816 377.843 114.116 379.195 115.949 379.195ZM115.949 378.103C114.792 378.103 114.012 377.245 114.012 375.919C114.012 374.554 114.792 373.657 115.949 373.657C117.093 373.657 117.86 374.541 117.86 375.919C117.86 377.245 117.093 378.103 115.949 378.103ZM124.229 379H125.425V369.575H124.229V379ZM130.129 379.195C131.39 379.195 132.404 378.545 132.911 377.518L131.871 376.92C131.585 377.661 130.909 378.103 130.129 378.103C129.089 378.103 128.361 377.388 128.231 376.257H133.067C133.08 376.101 133.093 376.01 133.093 375.919C133.093 373.956 131.871 372.565 130.129 372.565C128.309 372.565 127.022 373.956 127.022 375.919C127.022 377.843 128.309 379.195 130.129 379.195ZM128.309 375.165C128.543 374.229 129.219 373.657 130.129 373.657C130.974 373.657 131.598 374.229 131.819 375.165H128.309ZM136.536 379.195C137.355 379.195 138.083 378.948 138.616 378.48L138.837 379H139.526V374.983C139.448 373.228 138.668 372.565 137.043 372.565C135.912 372.565 135.132 372.968 134.404 373.813L135.106 374.554C135.678 373.891 136.302 373.657 137.043 373.657C138.031 373.657 138.278 373.891 138.33 375.035V375.308H136.653C135.158 375.308 134.209 376.036 134.209 377.206C134.209 378.441 135.184 379.195 136.536 379.195ZM136.536 378.103C135.769 378.103 135.405 377.778 135.405 377.206C135.405 376.686 135.769 376.4 136.653 376.4H138.33C138.291 377.466 137.628 378.103 136.536 378.103ZM141.393 379H142.589V375.529C142.628 374.489 143.473 373.657 144.5 373.657C144.669 373.657 144.877 373.67 145.085 373.709V372.617C144.851 372.578 144.669 372.565 144.5 372.565C143.668 372.565 142.914 372.89 142.355 373.41L142.069 372.76H141.393V379ZM146.407 379H147.603V375.36C147.603 374.307 148.188 373.657 149.085 373.657C149.956 373.657 150.541 374.32 150.541 375.36V379H151.737V375.36C151.737 373.722 150.632 372.565 149.085 372.565C148.37 372.565 147.746 372.799 147.291 373.228L147.083 372.76H146.407V379ZM156.882 379H158.078V375.36C158.078 374.307 158.663 373.657 159.56 373.657C160.431 373.657 161.016 374.32 161.016 375.36V379H162.212V375.36C162.212 373.722 161.107 372.565 159.56 372.565C159.001 372.565 158.494 372.708 158.078 372.981V369.575H156.882V379ZM166.769 379.195C168.641 379.195 169.954 377.843 169.954 375.932C169.954 373.969 168.628 372.565 166.769 372.565C164.897 372.565 163.584 373.956 163.584 375.932C163.584 377.843 164.897 379.195 166.769 379.195ZM166.769 378.103C165.56 378.103 164.78 377.245 164.78 375.932C164.78 374.554 165.573 373.657 166.769 373.657C167.952 373.657 168.758 374.567 168.758 375.932C168.758 377.245 167.978 378.103 166.769 378.103ZM172.796 379H173.953L175.578 374.398L177.19 379H178.347L180.518 372.76H179.257L177.775 377.375L176.163 372.76H174.98L173.368 377.375L171.886 372.76H170.625L172.796 379ZM186.367 379H187.524L189.149 374.398L190.761 379H191.918L194.089 372.76H192.828L191.346 377.375L189.734 372.76H188.551L186.939 377.375L185.457 372.76H184.196L186.367 379ZM197.871 379.195C199.132 379.195 200.146 378.545 200.653 377.518L199.613 376.92C199.327 377.661 198.651 378.103 197.871 378.103C196.831 378.103 196.103 377.388 195.973 376.257H200.809C200.822 376.101 200.835 376.01 200.835 375.919C200.835 373.956 199.613 372.565 197.871 372.565C196.051 372.565 194.764 373.956 194.764 375.919C194.764 377.843 196.051 379.195 197.871 379.195ZM196.051 375.165C196.285 374.229 196.961 373.657 197.871 373.657C198.716 373.657 199.34 374.229 199.561 375.165H196.051ZM208.116 379.195C209.377 379.195 210.391 378.545 210.898 377.518L209.884 376.933C209.559 377.726 208.909 378.103 208.116 378.103C206.972 378.103 206.205 377.245 206.205 375.919C206.205 374.554 206.985 373.657 208.116 373.657C208.961 373.657 209.533 374.06 209.884 374.892L210.911 374.307C210.404 373.241 209.39 372.565 208.116 372.565C206.296 372.565 205.009 373.956 205.009 375.919C205.009 377.843 206.296 379.195 208.116 379.195ZM214.168 379.195C214.987 379.195 215.715 378.948 216.248 378.48L216.469 379H217.158V374.983C217.08 373.228 216.3 372.565 214.675 372.565C213.544 372.565 212.764 372.968 212.036 373.813L212.738 374.554C213.31 373.891 213.934 373.657 214.675 373.657C215.663 373.657 215.91 373.891 215.962 375.035V375.308H214.285C212.79 375.308 211.841 376.036 211.841 377.206C211.841 378.441 212.816 379.195 214.168 379.195ZM214.168 378.103C213.401 378.103 213.037 377.778 213.037 377.206C213.037 376.686 213.401 376.4 214.285 376.4H215.962C215.923 377.466 215.26 378.103 214.168 378.103ZM219.024 379H220.22V375.36C220.22 374.307 220.805 373.657 221.702 373.657C222.573 373.657 223.158 374.32 223.158 375.36V379H224.354V375.36C224.354 373.722 223.249 372.565 221.702 372.565C220.987 372.565 220.363 372.799 219.908 373.228L219.7 372.76H219.024V379ZM64.0542 395H65.2502V391.36C65.2502 390.307 65.8352 389.657 66.7322 389.657C67.6032 389.657 68.1882 390.32 68.1882 391.36V395H69.3842V391.36C69.3842 389.722 68.2792 388.565 66.7322 388.565C66.1732 388.565 65.6662 388.708 65.2502 388.981V385.575H64.0542V395ZM73.8763 395.195C75.1373 395.195 76.1513 394.545 76.6583 393.518L75.6183 392.92C75.3323 393.661 74.6563 394.103 73.8763 394.103C72.8363 394.103 72.1083 393.388 71.9783 392.257H76.8143C76.8273 392.101 76.8403 392.01 76.8403 391.919C76.8403 389.956 75.6183 388.565 73.8763 388.565C72.0563 388.565 70.7693 389.956 70.7693 391.919C70.7693 393.843 72.0563 395.195 73.8763 395.195ZM72.0563 391.165C72.2903 390.229 72.9663 389.657 73.8763 389.657C74.7213 389.657 75.3453 390.229 75.5663 391.165H72.0563ZM78.4244 395H79.6204V385.575H78.4244V395ZM81.7376 397.47H82.9336V394.558C83.4536 394.961 84.1036 395.195 84.8446 395.195C86.6776 395.195 87.9776 393.804 87.9776 391.841C87.9776 389.917 86.6776 388.565 84.8446 388.565C83.9736 388.565 83.2326 388.877 82.6866 389.397L82.4136 388.76H81.7376V397.47ZM84.8446 394.103C83.7006 394.103 82.9336 393.219 82.9336 391.841C82.9336 390.515 83.7006 389.657 84.8446 389.657C86.0016 389.657 86.7816 390.515 86.7816 391.841C86.7816 393.206 86.0016 394.103 84.8446 394.103ZM90.2781 395.156C90.8501 395.156 91.2921 394.74 91.2921 394.155C91.2921 393.557 90.8501 393.141 90.2781 393.141C89.7061 393.141 89.2771 393.557 89.2771 394.155C89.2771 394.74 89.7061 395.156 90.2781 395.156ZM98.3754 395H99.6494V386.94H102.353V385.77H95.6584V386.94H98.3754V395ZM104.43 395.195C105.249 395.195 105.977 394.948 106.51 394.48L106.731 395H107.42V390.983C107.342 389.228 106.562 388.565 104.937 388.565C103.806 388.565 103.026 388.968 102.298 389.813L103 390.554C103.572 389.891 104.196 389.657 104.937 389.657C105.925 389.657 106.172 389.891 106.224 391.035V391.308H104.547C103.052 391.308 102.103 392.036 102.103 393.206C102.103 394.441 103.078 395.195 104.43 395.195ZM104.43 394.103C103.663 394.103 103.299 393.778 103.299 393.206C103.299 392.686 103.663 392.4 104.547 392.4H106.224C106.185 393.466 105.522 394.103 104.43 394.103ZM109.312 395H110.508V385.575H109.312V395ZM112.664 395H113.86V391.724L116.369 395H117.903L115.186 391.477L117.617 388.76H116.005L113.86 391.152V385.575H112.664V395ZM124.952 395C125.121 395 125.16 395 125.199 394.987V393.83H124.952C124.107 393.83 123.886 393.596 123.86 392.621V389.852H125.199V388.76H123.86V386.758H122.664V388.76H121.546V389.852H122.664V392.621C122.69 394.532 123.145 395 124.952 395ZM129.509 395.195C131.381 395.195 132.694 393.843 132.694 391.932C132.694 389.969 131.368 388.565 129.509 388.565C127.637 388.565 126.324 389.956 126.324 391.932C126.324 393.843 127.637 395.195 129.509 395.195ZM129.509 394.103C128.3 394.103 127.52 393.245 127.52 391.932C127.52 390.554 128.313 389.657 129.509 389.657C130.692 389.657 131.498 390.567 131.498 391.932C131.498 393.245 130.718 394.103 129.509 394.103ZM137.225 397.457C139.123 397.548 139.734 396.3 140.176 395.208L140.254 395H140.267L142.737 388.76H141.437L139.838 392.972L137.784 388.76H136.484L139.253 394.454L139.11 394.844C138.889 395.403 138.486 396.326 137.42 396.261L137.225 396.248V397.457ZM146.343 395.195C148.215 395.195 149.528 393.843 149.528 391.932C149.528 389.969 148.202 388.565 146.343 388.565C144.471 388.565 143.158 389.956 143.158 391.932C143.158 393.843 144.471 395.195 146.343 395.195ZM146.343 394.103C145.134 394.103 144.354 393.245 144.354 391.932C144.354 390.554 145.147 389.657 146.343 389.657C147.526 389.657 148.332 390.567 148.332 391.932C148.332 393.245 147.552 394.103 146.343 394.103ZM153.615 395.195C154.33 395.195 154.954 394.948 155.409 394.532L155.617 395H156.293V388.76H155.097V392.4C155.097 393.44 154.499 394.103 153.615 394.103C152.744 394.103 152.159 393.44 152.159 392.4V388.76H150.963V392.4C150.963 394.038 152.068 395.195 153.615 395.195ZM163.596 395.195C165.013 395.195 165.936 394.493 165.936 393.401C165.936 392.465 165.416 391.906 164.181 391.425C162.946 390.918 162.634 390.749 162.634 390.372C162.634 389.839 162.985 389.657 163.596 389.657C163.999 389.657 164.376 389.761 164.805 390.034L165.507 389.228C164.714 388.695 164.233 388.565 163.596 388.565C162.283 388.565 161.438 389.254 161.438 390.372C161.438 391.308 161.958 391.711 163.713 392.426C164.571 392.764 164.74 392.972 164.74 393.401C164.74 393.843 164.389 394.103 163.596 394.103C162.907 394.103 162.205 393.817 161.62 393.115L160.853 393.817C161.516 394.61 162.4 395.195 163.596 395.195ZM170.159 395.195C172.031 395.195 173.344 393.843 173.344 391.932C173.344 389.969 172.018 388.565 170.159 388.565C168.287 388.565 166.974 389.956 166.974 391.932C166.974 393.843 168.287 395.195 170.159 395.195ZM170.159 394.103C168.95 394.103 168.17 393.245 168.17 391.932C168.17 390.554 168.963 389.657 170.159 389.657C171.342 389.657 172.148 390.567 172.148 391.932C172.148 393.245 171.368 394.103 170.159 394.103ZM177.573 395.195C179.445 395.195 180.758 393.843 180.758 391.932C180.758 389.969 179.432 388.565 177.573 388.565C175.701 388.565 174.388 389.956 174.388 391.932C174.388 393.843 175.701 395.195 177.573 395.195ZM177.573 394.103C176.364 394.103 175.584 393.245 175.584 391.932C175.584 390.554 176.377 389.657 177.573 389.657C178.756 389.657 179.562 390.567 179.562 391.932C179.562 393.245 178.782 394.103 177.573 394.103ZM182.322 395H183.518V391.36C183.518 390.307 184.103 389.657 185 389.657C185.871 389.657 186.456 390.32 186.456 391.36V395H187.652V391.36C187.652 389.722 186.547 388.565 185 388.565C184.285 388.565 183.661 388.799 183.206 389.228L182.998 388.76H182.322V395ZM190.195 391.854H191.404L191.677 385.783H189.909L190.195 391.854ZM190.819 395.156C191.391 395.156 191.833 394.74 191.833 394.155C191.833 393.557 191.391 393.141 190.819 393.141C190.247 393.141 189.818 393.557 189.818 394.155C189.818 394.74 190.247 395.156 190.819 395.156Z" fill="#7A7A7A"/>
<path d="M128 313C125.429 313 122.915 313.762 120.778 315.191C118.64 316.619 116.974 318.65 115.99 321.025C115.006 323.401 114.748 326.014 115.25 328.536C115.751 331.058 116.99 333.374 118.808 335.192C120.626 337.01 122.942 338.249 125.464 338.75C127.986 339.252 130.599 338.994 132.975 338.01C135.35 337.026 137.381 335.36 138.809 333.222C140.238 331.085 141 328.571 141 326C140.996 322.553 139.625 319.249 137.188 316.812C134.751 314.375 131.447 313.004 128 313V313ZM135 327H128C127.869 327 127.739 326.974 127.617 326.924C127.496 326.874 127.386 326.8 127.293 326.707C127.2 326.614 127.126 326.504 127.076 326.383C127.026 326.261 127 326.131 127 326V319C127 318.735 127.105 318.48 127.293 318.293C127.48 318.105 127.735 318 128 318C128.265 318 128.52 318.105 128.707 318.293C128.895 318.48 129 318.735 129 319V325H135C135.265 325 135.52 325.105 135.707 325.293C135.895 325.48 136 325.735 136 326C136 326.265 135.895 326.52 135.707 326.707C135.52 326.895 135.265 327 135 327Z" fill="#14777B"/>
</g>
<defs>
<filter id="filter0_d_141_412" x="22" y="-31" width="559" height="128" filterUnits="userSpaceOnUse" color-interpolation-filters="sRGB">
<feFlood flood-opacity="0" result="BackgroundImageFix"/>
<feColorMatrix in="SourceAlpha" type="matrix" values="0 0 0 0 0 0 0 0 0 0 0 0 0 0 0 0 0 0 127 0" result="hardAlpha"/>
<feOffset dy="2"/>
<feGaussianBlur stdDeviation="16.5"/>
<feComposite in2="hardAlpha" operator="out"/>
<feColorMatrix type="matrix" values="0 0 0 0 0 0 0 0 0 0 0 0 0 0 0 0 0 0 0.11 0"/>
<feBlend mode="normal" in2="BackgroundImageFix" result="effect1_dropShadow_141_412"/>
<feBlend mode="normal" in="SourceGraphic" in2="effect1_dropShadow_141_412" result="shape"/>
</filter>
<clipPath id="clip0_141_412">
<rect x="55" width="493" height="362" rx="24" fill="white"/>
</clipPath>
<clipPath id="clip1_141_412">
<rect y="262" width="256" height="149" rx="21" fill="white"/>
</clipPath>
</defs>
</svg>
