<svg width="221" height="158" viewBox="0 0 221 158" fill="none" xmlns="http://www.w3.org/2000/svg">
<path d="M173.178 34.7931V130.375H51.6925C50.1692 130.375 48.7083 129.77 47.6311 128.693C46.554 127.616 45.9489 126.155 45.9489 124.631V40.5203C45.9489 38.997 46.554 37.5361 47.6311 36.459C48.7083 35.3819 50.1692 34.7767 51.6925 34.7767L173.178 34.7931Z" fill="url(#paint0_linear_82_132)"/>
<path d="M173.178 34.7931V45.0168H45.9982V40.5203C45.9982 38.997 46.6033 37.5361 47.6804 36.459C48.7576 35.3819 50.2185 34.7767 51.7418 34.7767L173.178 34.7931Z" fill="url(#paint1_linear_82_132)"/>
<path d="M53.9325 42.2433C54.857 42.2433 55.6064 41.4939 55.6064 40.5695C55.6064 39.645 54.857 38.8956 53.9325 38.8956C53.0081 38.8956 52.2587 39.645 52.2587 40.5695C52.2587 41.4939 53.0081 42.2433 53.9325 42.2433Z" fill="url(#paint2_linear_82_132)"/>
<path d="M61.9899 42.2433C62.9143 42.2433 63.6637 41.4939 63.6637 40.5695C63.6637 39.645 62.9143 38.8956 61.9899 38.8956C61.0654 38.8956 60.316 39.645 60.316 40.5695C60.316 41.4939 61.0654 42.2433 61.9899 42.2433Z" fill="url(#paint3_linear_82_132)"/>
<path d="M70.0474 42.2433C70.9718 42.2433 71.7212 41.4939 71.7212 40.5695C71.7212 39.645 70.9718 38.8956 70.0474 38.8956C69.1229 38.8956 68.3735 39.645 68.3735 40.5695C68.3735 41.4939 69.1229 42.2433 70.0474 42.2433Z" fill="url(#paint4_linear_82_132)"/>
<path d="M137.116 21.3449V6.64943C137.176 4.89369 137.931 3.23352 139.214 2.03353C140.497 0.833543 142.204 0.19186 143.959 0.249412H213.186C214.942 0.19186 216.649 0.833543 217.932 2.03353C219.215 3.23352 219.969 4.89369 220.029 6.64943V35.9172C219.969 37.673 219.215 39.3331 217.932 40.5331C216.649 41.7331 214.942 42.3748 213.186 42.3172H150.154C148.723 42.3123 147.325 42.7477 146.15 43.5644L139.586 51.0557C138.593 52.188 137.026 51.3019 137.026 49.8331L137.149 21.3449H137.116Z" fill="url(#paint5_linear_82_132)"/>
<path d="M129.83 105.874H93.916C91.256 105.874 89.0996 108.031 89.0996 110.691V115.359C89.0996 118.019 91.256 120.176 93.916 120.176H129.83C132.49 120.176 134.646 118.019 134.646 115.359V110.691C134.646 108.031 132.49 105.874 129.83 105.874Z" fill="url(#paint6_linear_82_132)"/>
<path d="M209.117 11.6874H147.849C146.312 11.6874 145.067 12.9327 145.067 14.4689V28.2536C145.067 29.7898 146.312 31.0351 147.849 31.0351H209.117C210.653 31.0351 211.898 29.7898 211.898 28.2536V14.4689C211.898 12.9327 210.653 11.6874 209.117 11.6874Z" fill="url(#paint7_linear_82_132)"/>
<path d="M206.507 26.7193C206.404 26.72 206.305 26.682 206.228 26.6126L203.562 24.1511C203.522 24.1144 203.49 24.0703 203.467 24.0212C203.444 23.9721 203.431 23.919 203.429 23.8649C203.426 23.8108 203.435 23.7568 203.453 23.7059C203.472 23.6551 203.5 23.6084 203.537 23.5685C203.574 23.5286 203.618 23.4964 203.667 23.4736C203.716 23.4508 203.769 23.4378 203.823 23.4355C203.877 23.4333 203.931 23.4417 203.982 23.4602C204.033 23.4788 204.08 23.5073 204.12 23.5439L206.786 26.0054C206.825 26.0436 206.855 26.089 206.876 26.1389C206.897 26.1889 206.908 26.2426 206.908 26.2967C206.908 26.3509 206.897 26.4045 206.876 26.4545C206.855 26.5045 206.825 26.5499 206.786 26.588C206.751 26.6272 206.708 26.6589 206.66 26.6815C206.612 26.704 206.56 26.7168 206.507 26.7193Z" fill="url(#paint8_linear_82_132)"/>
<path d="M200.936 25.4967C200.041 25.4967 199.167 25.2313 198.423 24.7342C197.68 24.237 197.1 23.5304 196.758 22.7039C196.416 21.8773 196.327 20.9678 196.502 20.0906C196.678 19.2134 197.109 18.4078 197.742 17.7759C198.375 17.1439 199.181 16.714 200.059 16.5405C200.937 16.3669 201.846 16.4577 202.672 16.8011C203.498 17.1445 204.203 17.7253 204.699 18.4699C205.195 19.2144 205.459 20.0893 205.457 20.9838C205.455 22.1815 204.978 23.3293 204.13 24.1754C203.282 25.0215 202.134 25.4967 200.936 25.4967ZM200.936 17.2915C200.204 17.2915 199.489 17.5085 198.88 17.9152C198.272 18.3218 197.797 18.8997 197.517 19.5759C197.237 20.2521 197.164 20.9961 197.307 21.714C197.449 22.4318 197.802 23.0912 198.319 23.6087C198.837 24.1262 199.496 24.4787 200.214 24.6215C200.932 24.7642 201.676 24.691 202.352 24.4109C203.028 24.1308 203.606 23.6565 204.013 23.0479C204.419 22.4394 204.636 21.7239 204.636 20.992C204.638 20.5054 204.543 20.0233 204.357 19.5734C204.172 19.1235 203.899 18.7146 203.556 18.3701C203.212 18.0256 202.803 17.7523 202.354 17.5658C201.904 17.3793 201.423 17.2833 200.936 17.2833V17.2915Z" fill="url(#paint9_linear_82_132)"/>
<path d="M213.605 150.519V154.227C213.605 155.211 213.214 156.154 212.518 156.85C211.823 157.545 210.88 157.936 209.896 157.936H173.875C173.388 157.937 172.905 157.842 172.454 157.656C172.003 157.47 171.593 157.197 171.248 156.853C170.902 156.508 170.628 156.099 170.442 155.648C170.255 155.198 170.158 154.715 170.158 154.227V150.519C170.158 151.006 170.255 151.489 170.442 151.94C170.628 152.39 170.902 152.799 171.248 153.144C171.593 153.488 172.003 153.761 172.454 153.947C172.905 154.133 173.388 154.228 173.875 154.227H209.896C210.383 154.227 210.865 154.131 211.315 153.945C211.765 153.759 212.174 153.485 212.518 153.141C212.863 152.797 213.136 152.388 213.322 151.938C213.509 151.488 213.605 151.006 213.605 150.519Z" fill="url(#paint10_linear_82_132)"/>
<path d="M213.605 95.0845V150.518C213.605 151.006 213.509 151.488 213.322 151.938C213.136 152.388 212.863 152.797 212.518 153.141C212.174 153.485 211.765 153.759 211.315 153.945C210.865 154.131 210.383 154.227 209.896 154.227H173.875C173.388 154.228 172.904 154.133 172.454 153.947C172.003 153.761 171.593 153.488 171.248 153.144C170.902 152.799 170.628 152.39 170.442 151.94C170.255 151.489 170.158 151.006 170.158 150.518V102.395C170.159 101.835 170.048 101.281 169.832 100.764C169.617 100.247 169.301 99.7779 168.903 99.384L161.797 92.3932C161.715 92.309 161.66 92.2024 161.638 92.0868C161.616 91.9712 161.628 91.8516 161.674 91.7431C161.719 91.6345 161.796 91.5418 161.893 91.4765C161.991 91.4111 162.106 91.3761 162.224 91.3757H209.896C210.88 91.3757 211.823 91.7665 212.518 92.462C213.214 93.1575 213.605 94.1008 213.605 95.0845Z" fill="url(#paint11_linear_82_132)"/>
<path d="M82.396 55.0433H61.1365C58.4583 55.0433 56.2872 57.2144 56.2872 59.8926V81.1521C56.2872 83.8303 58.4583 86.0014 61.1365 86.0014H82.396C85.0742 86.0014 87.2453 83.8303 87.2453 81.1521V59.8926C87.2453 57.2144 85.0742 55.0433 82.396 55.0433Z" fill="url(#paint12_linear_82_132)"/>
<path d="M80.4105 67.3676V77.6733H64.0658V67.663L71.8771 63.7163L80.4105 67.3676Z" fill="url(#paint13_linear_82_132)"/>
<path d="M63.9838 68.3358L71.8772 64.2824L80.468 67.983L80.4269 67.4332L71.91 63.7983L63.8197 67.8763L63.9838 68.3358Z" fill="url(#paint14_linear_82_132)"/>
<path d="M77.1284 69.5584V77.6733H67.3889V69.5584C67.3889 69.5148 67.4062 69.4731 67.437 69.4423C67.4678 69.4115 67.5095 69.3943 67.553 69.3943H76.9479C76.9708 69.392 76.9939 69.3945 77.0158 69.4017C77.0376 69.4089 77.0577 69.4206 77.0747 69.4361C77.0917 69.4516 77.1053 69.4705 77.1146 69.4915C77.1238 69.5126 77.1285 69.5354 77.1284 69.5584Z" fill="url(#paint15_linear_82_132)"/>
<path d="M77.1202 69.8209H67.3889V70.0589H77.1202V69.8209Z" fill="url(#paint16_linear_82_132)"/>
<path d="M77.1284 69.5584V69.903H67.3889V69.5584C67.3889 69.5148 67.4062 69.4731 67.437 69.4423C67.4678 69.4115 67.5095 69.3943 67.553 69.3943H76.9479C76.9708 69.392 76.9939 69.3945 77.0158 69.4017C77.0376 69.4089 77.0577 69.4206 77.0747 69.4361C77.0917 69.4516 77.1053 69.4705 77.1146 69.4915C77.1238 69.5126 77.1285 69.5354 77.1284 69.5584Z" fill="url(#paint17_linear_82_132)"/>
<path d="M78.4577 64.4302V66.4405L77.7274 66.1041L76.0946 65.3574V64.422L78.4577 64.4302Z" fill="url(#paint18_linear_82_132)"/>
<path opacity="0.61" d="M78.4577 64.4302V64.5615L76.0946 64.5205V64.422L78.4577 64.4302Z" fill="url(#paint19_linear_82_132)"/>
<path d="M78.4577 65.7593V66.3911L77.7274 66.1039L76.0946 65.3572V65.0044L78.4577 65.7593Z" fill="url(#paint20_linear_82_132)"/>
<path d="M78.7202 63.8557H75.791C75.7321 63.8557 75.6843 63.9035 75.6843 63.9624V64.3234C75.6843 64.3823 75.7321 64.4301 75.791 64.4301H78.7202C78.7791 64.4301 78.8269 64.3823 78.8269 64.3234V63.9624C78.8269 63.9035 78.7791 63.8557 78.7202 63.8557Z" fill="url(#paint21_linear_82_132)"/>
<path d="M63.8279 68.1553L71.9264 64.0609L80.6321 67.8107L80.6567 67.1214L71.9428 63.265L63.8197 67.4086L63.8279 68.1553Z" fill="url(#paint22_linear_82_132)"/>
<path d="M121.157 55.0433H99.8976C97.2194 55.0433 95.0483 57.2144 95.0483 59.8926V81.1521C95.0483 83.8303 97.2194 86.0014 99.8976 86.0014H121.157C123.835 86.0014 126.006 83.8303 126.006 81.1521V59.8926C126.006 57.2144 123.835 55.0433 121.157 55.0433Z" fill="url(#paint23_linear_82_132)"/>
<path d="M159.918 55.0433H138.659C135.981 55.0433 133.81 57.2144 133.81 59.8926V81.1521C133.81 83.8303 135.981 86.0014 138.659 86.0014H159.918C162.597 86.0014 164.768 83.8303 164.768 81.1521V59.8926C164.768 57.2144 162.597 55.0433 159.918 55.0433Z" fill="url(#paint24_linear_82_132)"/>
<path d="M66.4617 84.3851V71.782C66.4628 71.0615 66.3218 70.3479 66.0469 69.682C65.7719 69.016 65.3684 68.4108 64.8593 67.901C64.3502 67.3912 63.7456 66.9867 63.0801 66.7107C62.4146 66.4348 61.7012 66.2927 60.9807 66.2927H5.48925C4.76809 66.2917 4.05381 66.4329 3.38733 66.7084C2.72086 66.9839 2.1153 67.3881 1.60536 67.8981C1.09542 68.408 0.691127 69.0136 0.41565 69.6801C0.140172 70.3465 -0.00107424 71.0608 6.15136e-06 71.782V96.8815C-0.00107424 97.6027 0.140172 98.317 0.41565 98.9835C0.691127 99.6499 1.09542 100.255 1.60536 100.765C2.1153 101.275 2.72086 101.68 3.38733 101.955C4.05381 102.231 4.76809 102.372 5.48925 102.371H56.0248C57.1825 102.371 58.3086 102.749 59.233 103.446L64.4925 109.862C65.313 110.839 66.4043 110.305 66.4043 109.042V84.3769L66.4617 84.3851Z" fill="url(#paint25_linear_82_132)"/>
<path d="M7.79488 74.908C8.71933 74.908 9.46873 74.1586 9.46873 73.2341C9.46873 72.3097 8.71933 71.5603 7.79488 71.5603C6.87044 71.5603 6.12103 72.3097 6.12103 73.2341C6.12103 74.1586 6.87044 74.908 7.79488 74.908Z" fill="url(#paint26_linear_82_132)"/>
<path d="M15.8606 74.908C16.7851 74.908 17.5345 74.1586 17.5345 73.2341C17.5345 72.3097 16.7851 71.5603 15.8606 71.5603C14.9362 71.5603 14.1868 72.3097 14.1868 73.2341C14.1868 74.1586 14.9362 74.908 15.8606 74.908Z" fill="url(#paint27_linear_82_132)"/>
<path d="M57.2309 81.8826H8.09848C6.84777 81.8826 5.83386 82.8965 5.83386 84.1472C5.83386 85.3979 6.84777 86.4118 8.09848 86.4118H57.2309C58.4817 86.4118 59.4956 85.3979 59.4956 84.1472C59.4956 82.8965 58.4817 81.8826 57.2309 81.8826Z" fill="url(#paint28_linear_82_132)"/>
<path d="M57.2309 89.4066H8.09848C6.84777 89.4066 5.83386 90.4205 5.83386 91.6712C5.83386 92.922 6.84777 93.9359 8.09848 93.9359H57.2309C58.4817 93.9359 59.4956 92.922 59.4956 91.6712C59.4956 90.4205 58.4817 89.4066 57.2309 89.4066Z" fill="url(#paint29_linear_82_132)"/>
<path d="M196.202 104.668H187.611C187.094 104.668 186.675 105.087 186.675 105.604V105.612C186.675 106.128 187.094 106.547 187.611 106.547H196.202C196.718 106.547 197.137 106.128 197.137 105.612V105.604C197.137 105.087 196.718 104.668 196.202 104.668Z" fill="url(#paint30_linear_82_132)"/>
<path d="M196.202 111.922H187.611C187.094 111.922 186.675 112.34 186.675 112.857V112.865C186.675 113.382 187.094 113.8 187.611 113.8H196.202C196.718 113.8 197.137 113.382 197.137 112.865V112.857C197.137 112.34 196.718 111.922 196.202 111.922Z" fill="url(#paint31_linear_82_132)"/>
<path d="M201.026 108.295H183.402C182.885 108.295 182.466 108.714 182.466 109.23V109.239C182.466 109.755 182.885 110.174 183.402 110.174H201.026C201.543 110.174 201.962 109.755 201.962 109.239V109.23C201.962 108.714 201.543 108.295 201.026 108.295Z" fill="url(#paint32_linear_82_132)"/>
<path d="M192.025 142.256C198.342 142.256 203.463 137.135 203.463 130.818C203.463 124.501 198.342 119.38 192.025 119.38C185.708 119.38 180.587 124.501 180.587 130.818C180.587 137.135 185.708 142.256 192.025 142.256Z" fill="url(#paint33_linear_82_132)"/>
<path opacity="0.34" d="M192.025 139.712C196.937 139.712 200.92 135.73 200.92 130.818C200.92 125.906 196.937 121.924 192.025 121.924C187.113 121.924 183.131 125.906 183.131 130.818C183.131 135.73 187.113 139.712 192.025 139.712Z" fill="url(#paint34_linear_82_132)"/>
<path d="M153.067 66.867C152.788 65.9043 152.17 65.075 151.328 64.5322C150.485 63.9894 149.475 63.7697 148.483 63.9137C147.491 64.0577 146.585 64.5556 145.931 65.3156C145.278 66.0755 144.921 67.0463 144.928 68.0485C144.943 68.5467 145.046 69.0382 145.231 69.5008C145.329 69.7837 145.45 70.0582 145.592 70.3213L148.259 75.5644C148.333 75.7073 148.445 75.827 148.582 75.9106C148.72 75.9942 148.877 76.0384 149.038 76.0384C149.199 76.0384 149.357 75.9942 149.494 75.9106C149.632 75.827 149.744 75.7073 149.818 75.5644L152.55 70.4608C152.728 70.1497 152.876 69.8229 152.993 69.4844C153.303 68.6434 153.329 67.7241 153.067 66.867ZM149.079 69.7224C148.694 69.7305 148.316 69.6237 147.992 69.4156C147.668 69.2075 147.413 68.9075 147.261 68.554C147.108 68.2004 147.064 67.8094 147.135 67.4309C147.206 67.0524 147.387 66.7035 147.657 66.4289C147.927 66.1543 148.273 65.9664 148.65 65.8893C149.028 65.8121 149.419 65.8491 149.775 65.9957C150.131 66.1422 150.436 66.3916 150.649 66.712C150.863 67.0323 150.976 67.4091 150.975 67.7942C150.975 68.2999 150.776 68.7855 150.422 69.1461C150.067 69.5068 149.585 69.7138 149.079 69.7224Z" fill="url(#paint35_linear_82_132)"/>
<path d="M149.079 78.2147C149.958 78.2147 150.671 77.9282 150.671 77.5747C150.671 77.2212 149.958 76.9347 149.079 76.9347C148.2 76.9347 147.488 77.2212 147.488 77.5747C147.488 77.9282 148.2 78.2147 149.079 78.2147Z" fill="url(#paint36_linear_82_132)"/>
<path d="M129.867 134.543L136.936 130.17L140.963 136.681C141.069 136.852 141.141 137.043 141.173 137.241C141.205 137.44 141.198 137.644 141.152 137.84C141.106 138.036 141.021 138.221 140.904 138.384C140.786 138.548 140.637 138.687 140.466 138.793L136.007 141.551C135.661 141.765 135.244 141.833 134.848 141.739C134.452 141.646 134.109 141.399 133.895 141.053L129.867 134.543Z" fill="url(#paint37_linear_82_132)"/>
<path d="M191.779 134.313C191.524 134.312 191.278 134.215 191.09 134.043L188.39 131.581C188.321 131.519 188.265 131.445 188.225 131.361C188.185 131.278 188.162 131.187 188.158 131.095C188.153 131.002 188.167 130.91 188.199 130.823C188.23 130.736 188.278 130.656 188.341 130.588C188.467 130.451 188.641 130.368 188.827 130.359C189.013 130.35 189.195 130.414 189.334 130.539L191.746 132.73L195.677 128.11C195.799 127.967 195.973 127.879 196.16 127.863C196.348 127.848 196.534 127.907 196.678 128.028C196.819 128.15 196.906 128.323 196.919 128.509C196.933 128.695 196.873 128.879 196.751 129.021L192.559 133.944C192.469 134.047 192.36 134.131 192.237 134.192C192.114 134.253 191.981 134.288 191.845 134.297L191.779 134.313Z" fill="url(#paint38_linear_82_132)"/>
<path d="M122.979 118.953L123.299 136.685C123.304 137.001 123.393 137.311 123.556 137.583C123.719 137.854 123.95 138.078 124.227 138.232C124.504 138.386 124.816 138.464 125.133 138.459C125.45 138.454 125.759 138.365 126.031 138.203L140.948 129.234C141.219 129.075 141.443 128.848 141.599 128.575C141.754 128.302 141.836 127.994 141.836 127.679C141.836 127.365 141.754 127.057 141.599 126.784C141.443 126.511 141.219 126.284 140.948 126.125L125.711 117.353C125.433 117.187 125.116 117.098 124.792 117.097C124.469 117.095 124.15 117.18 123.871 117.344C123.592 117.508 123.361 117.743 123.204 118.026C123.047 118.31 122.97 118.63 122.979 118.953Z" fill="url(#paint39_linear_82_132)"/>
<path d="M121.937 74.2271V74.4323C121.937 74.5737 121.881 74.7094 121.781 74.8094C121.681 74.9094 121.545 74.9656 121.403 74.9656H100.316C100.316 74.8556 100.337 74.7467 100.379 74.6452C100.422 74.5437 100.484 74.4518 100.562 74.3748C100.685 74.25 100.842 74.1643 101.014 74.1287H121.838C121.864 74.1306 121.888 74.1415 121.906 74.1596C121.924 74.1777 121.935 74.2016 121.937 74.2271Z" fill="url(#paint40_linear_82_132)"/>
<path d="M112.665 66.6455V74.0958H101.014V66.3501H112.411C112.482 66.3601 112.547 66.3955 112.593 66.4499C112.64 66.5042 112.666 66.5738 112.665 66.6455Z" fill="url(#paint41_linear_82_132)"/>
<path d="M106.191 66.3501H101.014V74.1286H106.191V66.3501Z" fill="url(#paint42_linear_82_132)"/>
<path d="M112.854 66.8588H113.559C113.616 66.8588 113.67 66.8812 113.71 66.9212C113.75 66.9613 113.773 67.0155 113.773 67.0721V74.1531H112.649V67.0639C112.649 67.0095 112.67 66.9573 112.709 66.9188C112.747 66.8804 112.799 66.8588 112.854 66.8588Z" fill="url(#paint43_linear_82_132)"/>
<path d="M121.436 74.0958H113.797V66.8753H117.9C118.006 66.8747 118.11 66.8971 118.207 66.941C118.303 66.985 118.389 67.0493 118.458 67.1296L121.297 70.3214C121.402 70.4627 121.452 70.638 121.436 70.8137V74.0958Z" fill="url(#paint44_linear_82_132)"/>
<path d="M106.757 75.1461C106.798 75.5639 106.677 75.9814 106.419 76.3126C106.161 76.6437 105.786 76.8635 105.371 76.9266H104.977C104.504 76.9266 104.05 76.7393 103.715 76.4056C103.38 76.0719 103.19 75.6191 103.188 75.1461C103.184 75.086 103.184 75.0257 103.188 74.9656H106.741C106.751 75.0253 106.756 75.0856 106.757 75.1461Z" fill="url(#paint45_linear_82_132)"/>
<path d="M107.135 75.1461C107.133 75.619 106.943 76.0719 106.608 76.4056C106.273 76.7393 105.819 76.9266 105.346 76.9266H105.157C104.712 76.8897 104.296 76.6873 103.992 76.3592C103.689 76.0312 103.519 75.6013 103.516 75.1543C103.512 75.0942 103.512 75.0338 103.516 74.9738H107.069C107.127 75.023 107.135 75.0804 107.135 75.1461Z" fill="url(#paint46_linear_82_132)"/>
<path d="M111.344 74.9163C111.366 75.1724 111.336 75.4304 111.255 75.6744C111.174 75.9183 111.043 76.143 110.872 76.3345C110.7 76.526 110.491 76.6802 110.258 76.7877C110.024 76.8952 109.771 76.9537 109.514 76.9594C109.106 77.0008 108.695 76.9177 108.334 76.7211C107.974 76.5245 107.682 76.2235 107.496 75.8577C107.309 75.4919 107.238 75.0784 107.291 74.6714C107.345 74.2645 107.52 73.8831 107.793 73.5773C108.067 73.2716 108.427 73.0558 108.826 72.9583C109.224 72.8608 109.643 72.8861 110.027 73.0309C110.411 73.1757 110.742 73.4333 110.977 73.7698C111.212 74.1063 111.34 74.5059 111.344 74.9163Z" fill="url(#paint47_linear_82_132)"/>
<path d="M111.36 73.9645C111.219 73.6922 111.017 73.4563 110.77 73.2753C110.363 72.9896 109.865 72.8636 109.371 72.9211C108.877 72.9786 108.422 73.2157 108.091 73.5872C107.761 73.9588 107.578 74.4388 107.579 74.9361C107.579 75.4333 107.762 75.913 108.094 76.2839C108.425 76.6549 108.881 76.8911 109.375 76.9477C109.869 77.0042 110.366 76.8772 110.773 76.5908C111.179 76.3044 111.466 75.8785 111.579 75.3943C111.692 74.91 111.623 74.4011 111.385 73.9645H111.36ZM109.572 75.8353H109.49C109.32 75.8191 109.158 75.755 109.023 75.6504C108.887 75.5459 108.785 75.4051 108.727 75.2445C108.694 75.1467 108.677 75.0441 108.677 74.9409C108.676 74.8228 108.699 74.7056 108.743 74.5961C108.788 74.4867 108.853 74.3871 108.936 74.3032C109.02 74.2193 109.119 74.1527 109.228 74.1072C109.337 74.0617 109.454 74.0383 109.572 74.0384C109.7 74.0306 109.829 74.0502 109.949 74.0958C110.103 74.1557 110.238 74.2572 110.338 74.389C110.438 74.5209 110.499 74.6778 110.515 74.8425V74.9163C110.519 75.0401 110.497 75.1632 110.45 75.278C110.404 75.3928 110.334 75.4966 110.245 75.583C110.157 75.6694 110.051 75.7364 109.935 75.7798C109.819 75.8233 109.695 75.8422 109.572 75.8353Z" fill="url(#paint48_linear_82_132)"/>
<path d="M115.939 75.146C115.936 75.593 115.766 76.0229 115.463 76.351C115.159 76.679 114.743 76.8814 114.298 76.9183H114.109C113.636 76.9183 113.182 76.731 112.847 76.3973C112.512 76.0636 112.323 75.6108 112.32 75.1378C112.316 75.0777 112.316 75.0174 112.32 74.9573H115.873C115.931 75.0229 115.939 75.0803 115.939 75.146Z" fill="url(#paint49_linear_82_132)"/>
<path d="M116.308 75.1461C116.308 75.6183 116.12 76.0712 115.787 76.4051C115.453 76.739 115 76.9266 114.528 76.9266H114.339C113.9 76.8819 113.493 76.6758 113.198 76.3484C112.902 76.0209 112.739 75.5954 112.739 75.1543C112.735 75.0942 112.735 75.0339 112.739 74.9738H116.292C116.301 75.0308 116.306 75.0883 116.308 75.1461Z" fill="url(#paint50_linear_82_132)"/>
<path d="M120.525 74.9162C120.547 75.1712 120.516 75.428 120.434 75.6705C120.352 75.913 120.221 76.1361 120.05 76.3261C119.878 76.516 119.67 76.6688 119.437 76.7749C119.204 76.881 118.952 76.9382 118.696 76.9429C118.415 76.9723 118.131 76.9413 117.864 76.852C117.596 76.7627 117.351 76.6172 117.144 76.4253C116.937 76.2333 116.774 75.9993 116.665 75.739C116.556 75.4787 116.505 75.1982 116.513 74.9162C116.513 74.3787 116.727 73.8632 117.107 73.4831C117.487 73.1031 118.002 72.8895 118.54 72.8895C119.077 72.8895 119.593 73.1031 119.973 73.4831C120.353 73.8632 120.566 74.3787 120.566 74.9162H120.525Z" fill="url(#paint51_linear_82_132)"/>
<path d="M120.534 73.9645C120.389 73.6923 120.18 73.4589 119.927 73.2834C119.585 73.0374 119.174 72.9053 118.753 72.906C118.219 72.906 117.706 73.1173 117.326 73.4938C116.946 73.8703 116.731 74.3816 116.727 74.9163C116.725 75.297 116.834 75.6702 117.038 75.9911C117.191 76.245 117.402 76.4588 117.654 76.6147C117.978 76.8332 118.362 76.9476 118.753 76.9429C119.104 76.9446 119.45 76.8546 119.756 76.6819C120.061 76.5092 120.317 76.2597 120.496 75.9581C120.676 75.6565 120.774 75.3132 120.781 74.9621C120.787 74.6111 120.702 74.2644 120.534 73.9563V73.9645ZM118.753 75.827C118.685 75.8356 118.616 75.8356 118.548 75.827C118.397 75.7911 118.257 75.7161 118.143 75.6096C118.03 75.5031 117.946 75.3688 117.9 75.2199C117.874 75.132 117.86 75.0408 117.859 74.9491C117.859 74.7119 117.953 74.4844 118.121 74.3167C118.289 74.149 118.516 74.0547 118.753 74.0547C118.86 74.0557 118.965 74.0751 119.065 74.1122C119.215 74.1676 119.348 74.2624 119.449 74.3865C119.55 74.5106 119.616 74.6596 119.639 74.8178C119.643 74.8615 119.643 74.9054 119.639 74.9491C119.635 75.182 119.54 75.4041 119.375 75.5681C119.209 75.732 118.986 75.8249 118.753 75.827Z" fill="url(#paint52_linear_82_132)"/>
<path d="M119.705 70.8547H114.971C114.903 70.8547 114.838 70.8279 114.791 70.7802C114.743 70.7325 114.716 70.6678 114.716 70.6004V67.9829C114.716 67.9488 114.723 67.9151 114.736 67.8837C114.75 67.8523 114.769 67.8238 114.794 67.8001C114.818 67.7764 114.847 67.7578 114.879 67.7455C114.911 67.7332 114.945 67.7275 114.979 67.7286H117.334C117.37 67.7272 117.407 67.7338 117.441 67.748C117.475 67.7621 117.506 67.7835 117.531 67.8106L117.711 68.0158L118.532 68.9183L119.885 70.4281C119.919 70.464 119.941 70.5087 119.949 70.5569C119.957 70.605 119.952 70.6546 119.933 70.6996C119.914 70.7446 119.882 70.7832 119.842 70.8107C119.801 70.8382 119.754 70.8535 119.705 70.8547Z" fill="url(#paint53_linear_82_132)"/>
<path d="M118.54 68.9183L116.464 70.8547H114.971L117.728 68.0157L118.54 68.9183Z" fill="url(#paint54_linear_82_132)"/>
<path d="M115.012 71.2404H115.766C115.836 71.2404 115.903 71.268 115.952 71.3173C116.001 71.3665 116.029 71.4333 116.029 71.5029H114.749C114.749 71.4333 114.777 71.3665 114.826 71.3173C114.875 71.268 114.942 71.2404 115.012 71.2404Z" fill="url(#paint55_linear_82_132)"/>
<path opacity="0.02" d="M118.548 75.8024L117.654 76.6229C117.402 76.467 117.191 76.2532 117.038 75.9993L117.9 75.1788C117.943 75.3308 118.026 75.4685 118.14 75.578C118.254 75.6876 118.395 75.765 118.548 75.8024Z" fill="url(#paint56_linear_82_132)"/>
<path opacity="0.02" d="M120.534 73.9645L119.639 74.7851C119.615 74.6268 119.55 74.4779 119.449 74.3537C119.348 74.2296 119.215 74.1349 119.065 74.0794L119.885 73.2589C120.157 73.4361 120.38 73.6787 120.534 73.9645Z" fill="url(#paint57_linear_82_132)"/>
<path opacity="0.02" d="M109.49 75.8189L108.603 76.7051C108.316 76.5473 108.071 76.322 107.89 76.0487L108.71 75.2281C108.769 75.3917 108.873 75.5346 109.012 75.6395C109.15 75.7444 109.316 75.8068 109.49 75.8189Z" fill="url(#paint58_linear_82_132)"/>
<path opacity="0.02" d="M111.352 73.9563L110.466 74.8425C110.451 74.6775 110.39 74.5201 110.289 74.3882C110.189 74.2562 110.054 74.1549 109.9 74.0958L110.72 73.2753C110.979 73.4523 111.195 73.685 111.352 73.9563Z" fill="url(#paint59_linear_82_132)"/>
<defs>
<linearGradient id="paint0_linear_82_132" x1="43.9386" y1="205.239" x2="200.87" y2="-82.8934" gradientUnits="userSpaceOnUse">
<stop stop-color="#0D989D"/>
<stop offset="0.03" stop-color="#2FA6AA"/>
<stop offset="0.08" stop-color="#58B6BA"/>
<stop offset="0.13" stop-color="#7EC5C8"/>
<stop offset="0.18" stop-color="#9ED2D4"/>
<stop offset="0.24" stop-color="#BADDDE"/>
<stop offset="0.31" stop-color="#D0E6E7"/>
<stop offset="0.39" stop-color="#E1EDED"/>
<stop offset="0.48" stop-color="#ECF2F2"/>
<stop offset="0.62" stop-color="#F3F4F4"/>
<stop offset="1" stop-color="#F5F5F5"/>
</linearGradient>
<linearGradient id="paint1_linear_82_132" x1="110.917" y1="86.9697" x2="106.897" y2="-55.0287" gradientUnits="userSpaceOnUse">
<stop stop-color="#0B7377"/>
<stop offset="0.12" stop-color="#12777B"/>
<stop offset="0.29" stop-color="#248387"/>
<stop offset="0.48" stop-color="#439699"/>
<stop offset="0.7" stop-color="#6DB1B3"/>
<stop offset="0.94" stop-color="#A3D2D5"/>
<stop offset="1" stop-color="#B2DCDE"/>
</linearGradient>
<linearGradient id="paint2_linear_82_132" x1="53.2761" y1="45.1151" x2="56.8782" y2="20.2125" gradientUnits="userSpaceOnUse">
<stop stop-color="white"/>
<stop offset="0.09" stop-color="#F7FBFB"/>
<stop offset="0.22" stop-color="#E2EEEF"/>
<stop offset="0.39" stop-color="#BFDADB"/>
<stop offset="0.58" stop-color="#8FBFC0"/>
<stop offset="0.79" stop-color="#519B9E"/>
<stop offset="1" stop-color="#0B7377"/>
</linearGradient>
<linearGradient id="paint3_linear_82_132" x1="61.1694" y1="46.2557" x2="64.7714" y2="21.353" gradientUnits="userSpaceOnUse">
<stop stop-color="white"/>
<stop offset="0.09" stop-color="#F7FBFB"/>
<stop offset="0.22" stop-color="#E2EEEF"/>
<stop offset="0.39" stop-color="#BFDADB"/>
<stop offset="0.58" stop-color="#8FBFC0"/>
<stop offset="0.79" stop-color="#519B9E"/>
<stop offset="1" stop-color="#0B7377"/>
</linearGradient>
<linearGradient id="paint4_linear_82_132" x1="69.0628" y1="47.3962" x2="72.6648" y2="22.4935" gradientUnits="userSpaceOnUse">
<stop stop-color="white"/>
<stop offset="0.09" stop-color="#F7FBFB"/>
<stop offset="0.22" stop-color="#E2EEEF"/>
<stop offset="0.39" stop-color="#BFDADB"/>
<stop offset="0.58" stop-color="#8FBFC0"/>
<stop offset="0.79" stop-color="#519B9E"/>
<stop offset="1" stop-color="#0B7377"/>
</linearGradient>
<linearGradient id="paint5_linear_82_132" x1="149.408" y1="91.3676" x2="231.574" y2="-106.057" gradientUnits="userSpaceOnUse">
<stop stop-color="#0D989D"/>
<stop offset="0.05" stop-color="#28A3A7"/>
<stop offset="0.14" stop-color="#58B6B9"/>
<stop offset="0.23" stop-color="#82C7C9"/>
<stop offset="0.33" stop-color="#A6D5D7"/>
<stop offset="0.44" stop-color="#C2E1E2"/>
<stop offset="0.55" stop-color="#D9EAEA"/>
<stop offset="0.67" stop-color="#E9F0F0"/>
<stop offset="0.81" stop-color="#F2F4F4"/>
<stop offset="1" stop-color="#F5F5F5"/>
</linearGradient>
<linearGradient id="paint6_linear_82_132" x1="103.672" y1="159.167" x2="119.606" y2="69.509" gradientUnits="userSpaceOnUse">
<stop offset="0.01" stop-color="#274967"/>
<stop offset="0.31" stop-color="#475367"/>
<stop offset="0.45" stop-color="#4D596E"/>
<stop offset="0.66" stop-color="#5E6B80"/>
<stop offset="0.91" stop-color="#79899E"/>
<stop offset="1" stop-color="#8596AC"/>
</linearGradient>
<linearGradient id="paint7_linear_82_132" x1="165.309" y1="71.8065" x2="187.923" y2="-14.7742" gradientUnits="userSpaceOnUse">
<stop stop-color="#0D989D"/>
<stop offset="0.03" stop-color="#2FA6AA"/>
<stop offset="0.08" stop-color="#58B6BA"/>
<stop offset="0.13" stop-color="#7EC5C8"/>
<stop offset="0.18" stop-color="#9ED2D4"/>
<stop offset="0.24" stop-color="#BADDDE"/>
<stop offset="0.31" stop-color="#D0E6E7"/>
<stop offset="0.39" stop-color="#E1EDED"/>
<stop offset="0.48" stop-color="#ECF2F2"/>
<stop offset="0.62" stop-color="#F3F4F4"/>
<stop offset="1" stop-color="#F5F5F5"/>
</linearGradient>
<linearGradient id="paint8_linear_82_132" x1="203.053" y1="28.9183" x2="242.364" y2="-41.966" gradientUnits="userSpaceOnUse">
<stop stop-color="#0B7377"/>
<stop offset="0.12" stop-color="#12777B"/>
<stop offset="0.29" stop-color="#248387"/>
<stop offset="0.48" stop-color="#439699"/>
<stop offset="0.7" stop-color="#6DB1B3"/>
<stop offset="0.94" stop-color="#A3D2D5"/>
<stop offset="1" stop-color="#B2DCDE"/>
</linearGradient>
<linearGradient id="paint9_linear_82_132" x1="198.072" y1="26.1531" x2="237.375" y2="-44.7312" gradientUnits="userSpaceOnUse">
<stop stop-color="#0B7377"/>
<stop offset="0.12" stop-color="#12777B"/>
<stop offset="0.29" stop-color="#248387"/>
<stop offset="0.48" stop-color="#439699"/>
<stop offset="0.7" stop-color="#6DB1B3"/>
<stop offset="0.94" stop-color="#A3D2D5"/>
<stop offset="1" stop-color="#B2DCDE"/>
</linearGradient>
<linearGradient id="paint10_linear_82_132" x1="191.754" y1="168.422" x2="191.992" y2="137.686" gradientUnits="userSpaceOnUse">
<stop stop-color="#0B7377"/>
<stop offset="0.12" stop-color="#12777B"/>
<stop offset="0.29" stop-color="#248387"/>
<stop offset="0.48" stop-color="#439699"/>
<stop offset="0.7" stop-color="#6DB1B3"/>
<stop offset="0.94" stop-color="#A3D2D5"/>
<stop offset="1" stop-color="#B2DCDE"/>
</linearGradient>
<linearGradient id="paint11_linear_82_132" x1="170.872" y1="167.593" x2="226.446" y2="14.6329" gradientUnits="userSpaceOnUse">
<stop stop-color="#0B7377"/>
<stop offset="0.12" stop-color="#12777B"/>
<stop offset="0.29" stop-color="#248387"/>
<stop offset="0.48" stop-color="#439699"/>
<stop offset="0.7" stop-color="#6DB1B3"/>
<stop offset="0.94" stop-color="#A3D2D5"/>
<stop offset="1" stop-color="#B2DCDE"/>
</linearGradient>
<linearGradient id="paint12_linear_82_132" x1="64.4924" y1="114.736" x2="94.0966" y2="-65.1129" gradientUnits="userSpaceOnUse">
<stop stop-color="#0D989D"/>
<stop offset="0.03" stop-color="#2FA6AA"/>
<stop offset="0.08" stop-color="#58B6BA"/>
<stop offset="0.13" stop-color="#7EC5C8"/>
<stop offset="0.18" stop-color="#9ED2D4"/>
<stop offset="0.24" stop-color="#BADDDE"/>
<stop offset="0.31" stop-color="#D0E6E7"/>
<stop offset="0.39" stop-color="#E1EDED"/>
<stop offset="0.48" stop-color="#ECF2F2"/>
<stop offset="0.62" stop-color="#F3F4F4"/>
<stop offset="1" stop-color="#F5F5F5"/>
</linearGradient>
<linearGradient id="paint13_linear_82_132" x1="63.9427" y1="85.3533" x2="87.9428" y2="48.6599" gradientUnits="userSpaceOnUse">
<stop stop-color="#0D989D"/>
<stop offset="0.03" stop-color="#2FA6AA"/>
<stop offset="0.08" stop-color="#58B6BA"/>
<stop offset="0.13" stop-color="#7EC5C8"/>
<stop offset="0.18" stop-color="#9ED2D4"/>
<stop offset="0.24" stop-color="#BADDDE"/>
<stop offset="0.31" stop-color="#D0E6E7"/>
<stop offset="0.39" stop-color="#E1EDED"/>
<stop offset="0.48" stop-color="#ECF2F2"/>
<stop offset="0.62" stop-color="#F3F4F4"/>
<stop offset="1" stop-color="#F5F5F5"/>
</linearGradient>
<linearGradient id="paint14_linear_82_132" x1="71.9838" y1="73.9809" x2="72.5664" y2="52.2537" gradientUnits="userSpaceOnUse">
<stop stop-color="white"/>
<stop offset="0.09" stop-color="#F7FBFB"/>
<stop offset="0.22" stop-color="#E2EEEF"/>
<stop offset="0.39" stop-color="#BFDADB"/>
<stop offset="0.58" stop-color="#8FBFC0"/>
<stop offset="0.79" stop-color="#519B9E"/>
<stop offset="1" stop-color="#0B7377"/>
</linearGradient>
<linearGradient id="paint15_linear_82_132" x1="70.2197" y1="79.101" x2="75.2166" y2="65.5789" gradientUnits="userSpaceOnUse">
<stop offset="0.01" stop-color="#274967"/>
<stop offset="0.31" stop-color="#475367"/>
<stop offset="0.45" stop-color="#4D596E"/>
<stop offset="0.66" stop-color="#5E6B80"/>
<stop offset="0.91" stop-color="#79899E"/>
<stop offset="1" stop-color="#8596AC"/>
</linearGradient>
<linearGradient id="paint16_linear_82_132" x1="72.2628" y1="71.3225" x2="72.2382" y2="67.3676" gradientUnits="userSpaceOnUse">
<stop stop-color="#0B7377"/>
<stop offset="0.12" stop-color="#12777B"/>
<stop offset="0.29" stop-color="#248387"/>
<stop offset="0.48" stop-color="#439699"/>
<stop offset="0.7" stop-color="#6DB1B3"/>
<stop offset="0.94" stop-color="#A3D2D5"/>
<stop offset="1" stop-color="#B2DCDE"/>
</linearGradient>
<linearGradient id="paint17_linear_82_132" x1="72.2874" y1="71.1255" x2="72.23" y2="69.0004" gradientUnits="userSpaceOnUse">
<stop stop-color="#0B7377"/>
<stop offset="1" stop-color="#B2DCDE"/>
</linearGradient>
<linearGradient id="paint18_linear_82_132" x1="75.3725" y1="67.0559" x2="79.4751" y2="63.544" gradientUnits="userSpaceOnUse">
<stop offset="0.01" stop-color="#274967"/>
<stop offset="0.31" stop-color="#475367"/>
<stop offset="0.45" stop-color="#4D596E"/>
<stop offset="0.66" stop-color="#5E6B80"/>
<stop offset="0.91" stop-color="#79899E"/>
<stop offset="1" stop-color="#8596AC"/>
</linearGradient>
<linearGradient id="paint19_linear_82_132" x1="76.2997" y1="65.8907" x2="80.3038" y2="60.1553" gradientUnits="userSpaceOnUse">
<stop offset="0.01" stop-color="#274967"/>
<stop offset="0.31" stop-color="#475367"/>
<stop offset="0.45" stop-color="#4D596E"/>
<stop offset="0.66" stop-color="#5E6B80"/>
<stop offset="0.91" stop-color="#79899E"/>
<stop offset="1" stop-color="#8596AC"/>
</linearGradient>
<linearGradient id="paint20_linear_82_132" x1="76.6361" y1="66.6208" x2="79.5162" y2="62.4936" gradientUnits="userSpaceOnUse">
<stop offset="0.01" stop-color="#274967"/>
<stop offset="0.31" stop-color="#475367"/>
<stop offset="0.45" stop-color="#4D596E"/>
<stop offset="0.66" stop-color="#5E6B80"/>
<stop offset="0.91" stop-color="#79899E"/>
<stop offset="1" stop-color="#8596AC"/>
</linearGradient>
<linearGradient id="paint21_linear_82_132" x1="77.1941" y1="66.0465" x2="77.2925" y2="62.8711" gradientUnits="userSpaceOnUse">
<stop stop-color="#0B7377"/>
<stop offset="0.12" stop-color="#12777B"/>
<stop offset="0.29" stop-color="#248387"/>
<stop offset="0.48" stop-color="#439699"/>
<stop offset="0.7" stop-color="#6DB1B3"/>
<stop offset="0.94" stop-color="#A3D2D5"/>
<stop offset="1" stop-color="#B2DCDE"/>
</linearGradient>
<linearGradient id="paint22_linear_82_132" x1="72.1397" y1="68.4425" x2="73.2802" y2="57.7922" gradientUnits="userSpaceOnUse">
<stop stop-color="#0B7377"/>
<stop offset="0.12" stop-color="#12777B"/>
<stop offset="0.29" stop-color="#248387"/>
<stop offset="0.48" stop-color="#439699"/>
<stop offset="0.7" stop-color="#6DB1B3"/>
<stop offset="0.94" stop-color="#A3D2D5"/>
<stop offset="1" stop-color="#B2DCDE"/>
</linearGradient>
<linearGradient id="paint23_linear_82_132" x1="103.532" y1="77.427" x2="209.026" y2="-26.721" gradientUnits="userSpaceOnUse">
<stop stop-color="#0D989D"/>
<stop offset="0.03" stop-color="#2FA6AA"/>
<stop offset="0.08" stop-color="#58B6BA"/>
<stop offset="0.13" stop-color="#7EC5C8"/>
<stop offset="0.18" stop-color="#9ED2D4"/>
<stop offset="0.24" stop-color="#BADDDE"/>
<stop offset="0.31" stop-color="#D0E6E7"/>
<stop offset="0.39" stop-color="#E1EDED"/>
<stop offset="0.48" stop-color="#ECF2F2"/>
<stop offset="0.62" stop-color="#F3F4F4"/>
<stop offset="1" stop-color="#F5F5F5"/>
</linearGradient>
<linearGradient id="paint24_linear_82_132" x1="139.963" y1="127.158" x2="169.568" y2="-52.6903" gradientUnits="userSpaceOnUse">
<stop stop-color="#0D989D"/>
<stop offset="0.03" stop-color="#2FA6AA"/>
<stop offset="0.08" stop-color="#58B6BA"/>
<stop offset="0.13" stop-color="#7EC5C8"/>
<stop offset="0.18" stop-color="#9ED2D4"/>
<stop offset="0.24" stop-color="#BADDDE"/>
<stop offset="0.31" stop-color="#D0E6E7"/>
<stop offset="0.39" stop-color="#E1EDED"/>
<stop offset="0.48" stop-color="#ECF2F2"/>
<stop offset="0.62" stop-color="#F3F4F4"/>
<stop offset="1" stop-color="#F5F5F5"/>
</linearGradient>
<linearGradient id="paint25_linear_82_132" x1="25.2637" y1="98.6128" x2="200.829" y2="-98.9016" gradientUnits="userSpaceOnUse">
<stop stop-color="#0D989D"/>
<stop offset="0.05" stop-color="#29A3A8"/>
<stop offset="0.14" stop-color="#58B6BA"/>
<stop offset="0.23" stop-color="#83C7CA"/>
<stop offset="0.33" stop-color="#A6D5D7"/>
<stop offset="0.44" stop-color="#C3E1E2"/>
<stop offset="0.55" stop-color="#D9EAEA"/>
<stop offset="0.67" stop-color="#E9F0F0"/>
<stop offset="0.81" stop-color="#F2F4F4"/>
<stop offset="1" stop-color="#F5F5F5"/>
</linearGradient>
<linearGradient id="paint26_linear_82_132" x1="9.78053" y1="92.4424" x2="6.39181" y2="59.548" gradientUnits="userSpaceOnUse">
<stop offset="0.01" stop-color="#274967"/>
<stop offset="0.31" stop-color="#475367"/>
<stop offset="0.45" stop-color="#4D596E"/>
<stop offset="0.66" stop-color="#5E6B80"/>
<stop offset="0.91" stop-color="#79899E"/>
<stop offset="1" stop-color="#8596AC"/>
</linearGradient>
<linearGradient id="paint27_linear_82_132" x1="17.756" y1="91.6219" x2="14.3591" y2="58.7275" gradientUnits="userSpaceOnUse">
<stop offset="0.01" stop-color="#274967"/>
<stop offset="0.31" stop-color="#475367"/>
<stop offset="0.45" stop-color="#4D596E"/>
<stop offset="0.66" stop-color="#5E6B80"/>
<stop offset="0.91" stop-color="#79899E"/>
<stop offset="1" stop-color="#8596AC"/>
</linearGradient>
<linearGradient id="paint28_linear_82_132" x1="32.7221" y1="95.4457" x2="32.5416" y2="58.5963" gradientUnits="userSpaceOnUse">
<stop stop-color="white"/>
<stop offset="0.09" stop-color="#F7FBFB"/>
<stop offset="0.22" stop-color="#E2EEEF"/>
<stop offset="0.39" stop-color="#BFDADB"/>
<stop offset="0.58" stop-color="#8FBFC0"/>
<stop offset="0.79" stop-color="#519B9E"/>
<stop offset="1" stop-color="#0B7377"/>
</linearGradient>
<linearGradient id="paint29_linear_82_132" x1="32.2709" y1="104.537" x2="33.5345" y2="63.7163" gradientUnits="userSpaceOnUse">
<stop stop-color="#0D989D"/>
<stop offset="0.03" stop-color="#2FA6AA"/>
<stop offset="0.08" stop-color="#58B6BA"/>
<stop offset="0.13" stop-color="#7EC5C8"/>
<stop offset="0.18" stop-color="#9ED2D4"/>
<stop offset="0.24" stop-color="#BADDDE"/>
<stop offset="0.31" stop-color="#D0E6E7"/>
<stop offset="0.39" stop-color="#E1EDED"/>
<stop offset="0.48" stop-color="#ECF2F2"/>
<stop offset="0.62" stop-color="#F3F4F4"/>
<stop offset="1" stop-color="#F5F5F5"/>
</linearGradient>
<linearGradient id="paint30_linear_82_132" x1="185.108" y1="129.661" x2="202.938" y2="66.5142" gradientUnits="userSpaceOnUse">
<stop stop-color="#0D989D"/>
<stop offset="0.03" stop-color="#2FA6AA"/>
<stop offset="0.08" stop-color="#58B6BA"/>
<stop offset="0.13" stop-color="#7EC5C8"/>
<stop offset="0.18" stop-color="#9ED2D4"/>
<stop offset="0.24" stop-color="#BADDDE"/>
<stop offset="0.31" stop-color="#D0E6E7"/>
<stop offset="0.39" stop-color="#E1EDED"/>
<stop offset="0.48" stop-color="#ECF2F2"/>
<stop offset="0.62" stop-color="#F3F4F4"/>
<stop offset="1" stop-color="#F5F5F5"/>
</linearGradient>
<linearGradient id="paint31_linear_82_132" x1="186.741" y1="131.138" x2="204.571" y2="67.9912" gradientUnits="userSpaceOnUse">
<stop stop-color="#0D989D"/>
<stop offset="0.03" stop-color="#2FA6AA"/>
<stop offset="0.08" stop-color="#58B6BA"/>
<stop offset="0.13" stop-color="#7EC5C8"/>
<stop offset="0.18" stop-color="#9ED2D4"/>
<stop offset="0.24" stop-color="#BADDDE"/>
<stop offset="0.31" stop-color="#D0E6E7"/>
<stop offset="0.39" stop-color="#E1EDED"/>
<stop offset="0.48" stop-color="#ECF2F2"/>
<stop offset="0.62" stop-color="#F3F4F4"/>
<stop offset="1" stop-color="#F5F5F5"/>
</linearGradient>
<linearGradient id="paint32_linear_82_132" x1="186.208" y1="130.482" x2="204.038" y2="67.3347" gradientUnits="userSpaceOnUse">
<stop stop-color="#0D989D"/>
<stop offset="0.03" stop-color="#2FA6AA"/>
<stop offset="0.08" stop-color="#58B6BA"/>
<stop offset="0.13" stop-color="#7EC5C8"/>
<stop offset="0.18" stop-color="#9ED2D4"/>
<stop offset="0.24" stop-color="#BADDDE"/>
<stop offset="0.31" stop-color="#D0E6E7"/>
<stop offset="0.39" stop-color="#E1EDED"/>
<stop offset="0.48" stop-color="#ECF2F2"/>
<stop offset="0.62" stop-color="#F3F4F4"/>
<stop offset="1" stop-color="#F5F5F5"/>
</linearGradient>
<linearGradient id="paint33_linear_82_132" x1="159.41" y1="179.04" x2="227.939" y2="77.7142" gradientUnits="userSpaceOnUse">
<stop stop-color="#0D989D"/>
<stop offset="0.03" stop-color="#2FA6AA"/>
<stop offset="0.08" stop-color="#58B6BA"/>
<stop offset="0.13" stop-color="#7EC5C8"/>
<stop offset="0.18" stop-color="#9ED2D4"/>
<stop offset="0.24" stop-color="#BADDDE"/>
<stop offset="0.31" stop-color="#D0E6E7"/>
<stop offset="0.39" stop-color="#E1EDED"/>
<stop offset="0.48" stop-color="#ECF2F2"/>
<stop offset="0.62" stop-color="#F3F4F4"/>
<stop offset="1" stop-color="#F5F5F5"/>
</linearGradient>
<linearGradient id="paint34_linear_82_132" x1="164.907" y1="173.567" x2="203.381" y2="112.914" gradientUnits="userSpaceOnUse">
<stop stop-color="#0B7377"/>
<stop offset="0.12" stop-color="#12777B"/>
<stop offset="0.29" stop-color="#248387"/>
<stop offset="0.48" stop-color="#439699"/>
<stop offset="0.7" stop-color="#6DB1B3"/>
<stop offset="0.94" stop-color="#A3D2D5"/>
<stop offset="1" stop-color="#B2DCDE"/>
</linearGradient>
<linearGradient id="paint35_linear_82_132" x1="139.578" y1="78.3952" x2="221.498" y2="0.0770362" gradientUnits="userSpaceOnUse">
<stop stop-color="#0D989D"/>
<stop offset="0.03" stop-color="#2FA6AA"/>
<stop offset="0.08" stop-color="#58B6BA"/>
<stop offset="0.13" stop-color="#7EC5C8"/>
<stop offset="0.18" stop-color="#9ED2D4"/>
<stop offset="0.24" stop-color="#BADDDE"/>
<stop offset="0.31" stop-color="#D0E6E7"/>
<stop offset="0.39" stop-color="#E1EDED"/>
<stop offset="0.48" stop-color="#ECF2F2"/>
<stop offset="0.62" stop-color="#F3F4F4"/>
<stop offset="1" stop-color="#F5F5F5"/>
</linearGradient>
<linearGradient id="paint36_linear_82_132" x1="143.483" y1="82.9327" x2="225.404" y2="4.61436" gradientUnits="userSpaceOnUse">
<stop stop-color="#0D989D"/>
<stop offset="0.03" stop-color="#2FA6AA"/>
<stop offset="0.08" stop-color="#58B6BA"/>
<stop offset="0.13" stop-color="#7EC5C8"/>
<stop offset="0.18" stop-color="#9ED2D4"/>
<stop offset="0.24" stop-color="#BADDDE"/>
<stop offset="0.31" stop-color="#D0E6E7"/>
<stop offset="0.39" stop-color="#E1EDED"/>
<stop offset="0.48" stop-color="#ECF2F2"/>
<stop offset="0.62" stop-color="#F3F4F4"/>
<stop offset="1" stop-color="#F5F5F5"/>
</linearGradient>
<linearGradient id="paint37_linear_82_132" x1="128.686" y1="124.141" x2="153.006" y2="165.528" gradientUnits="userSpaceOnUse">
<stop stop-color="#0D989D"/>
<stop offset="0.03" stop-color="#2FA6AA"/>
<stop offset="0.08" stop-color="#58B6BA"/>
<stop offset="0.13" stop-color="#7EC5C8"/>
<stop offset="0.18" stop-color="#9ED2D4"/>
<stop offset="0.24" stop-color="#BADDDE"/>
<stop offset="0.31" stop-color="#D0E6E7"/>
<stop offset="0.39" stop-color="#E1EDED"/>
<stop offset="0.48" stop-color="#ECF2F2"/>
<stop offset="0.62" stop-color="#F3F4F4"/>
<stop offset="1" stop-color="#F5F5F5"/>
</linearGradient>
<linearGradient id="paint38_linear_82_132" x1="185.699" y1="140.615" x2="194.249" y2="127.109" gradientUnits="userSpaceOnUse">
<stop offset="0.01" stop-color="#070707"/>
<stop offset="0.5" stop-color="#2A313B"/>
<stop offset="0.95" stop-color="#475367"/>
</linearGradient>
<linearGradient id="paint39_linear_82_132" x1="155.233" y1="153.989" x2="112.501" y2="112.865" gradientUnits="userSpaceOnUse">
<stop stop-color="#0D989D"/>
<stop offset="0.03" stop-color="#2FA6AA"/>
<stop offset="0.08" stop-color="#58B6BA"/>
<stop offset="0.13" stop-color="#7EC5C8"/>
<stop offset="0.18" stop-color="#9ED2D4"/>
<stop offset="0.24" stop-color="#BADDDE"/>
<stop offset="0.31" stop-color="#D0E6E7"/>
<stop offset="0.39" stop-color="#E1EDED"/>
<stop offset="0.48" stop-color="#ECF2F2"/>
<stop offset="0.62" stop-color="#F3F4F4"/>
<stop offset="1" stop-color="#F5F5F5"/>
</linearGradient>
<linearGradient id="paint40_linear_82_132" x1="111.122" y1="77.1892" x2="111.122" y2="71.8312" gradientUnits="userSpaceOnUse">
<stop offset="0.02" stop-color="#247B7E"/>
<stop offset="0.38" stop-color="#40AFB3"/>
<stop offset="0.47" stop-color="#47B2B6"/>
<stop offset="0.61" stop-color="#59B9BC"/>
<stop offset="0.77" stop-color="#78C5C8"/>
<stop offset="0.94" stop-color="#A2D6D8"/>
<stop offset="1" stop-color="#B2DCDE"/>
</linearGradient>
<linearGradient id="paint41_linear_82_132" x1="101.883" y1="70.1491" x2="121.773" y2="70.5265" gradientUnits="userSpaceOnUse">
<stop stop-color="#0D989D"/>
<stop offset="0.03" stop-color="#2FA6AA"/>
<stop offset="0.08" stop-color="#58B6BA"/>
<stop offset="0.13" stop-color="#7EC5C8"/>
<stop offset="0.18" stop-color="#9ED2D4"/>
<stop offset="0.24" stop-color="#BADDDE"/>
<stop offset="0.31" stop-color="#D0E6E7"/>
<stop offset="0.39" stop-color="#E1EDED"/>
<stop offset="0.48" stop-color="#ECF2F2"/>
<stop offset="0.62" stop-color="#F3F4F4"/>
<stop offset="1" stop-color="#F5F5F5"/>
</linearGradient>
<linearGradient id="paint42_linear_82_132" x1="108.71" y1="81.8332" x2="99.7255" y2="61.427" gradientUnits="userSpaceOnUse">
<stop stop-color="#0D989D"/>
<stop offset="0.03" stop-color="#2FA6AA"/>
<stop offset="0.08" stop-color="#58B6BA"/>
<stop offset="0.13" stop-color="#7EC5C8"/>
<stop offset="0.18" stop-color="#9ED2D4"/>
<stop offset="0.24" stop-color="#BADDDE"/>
<stop offset="0.31" stop-color="#D0E6E7"/>
<stop offset="0.39" stop-color="#E1EDED"/>
<stop offset="0.48" stop-color="#ECF2F2"/>
<stop offset="0.62" stop-color="#F3F4F4"/>
<stop offset="1" stop-color="#F5F5F5"/>
</linearGradient>
<linearGradient id="paint43_linear_82_132" x1="115.282" y1="70.4198" x2="109.703" y2="70.666" gradientUnits="userSpaceOnUse">
<stop stop-color="#0B7377"/>
<stop offset="1" stop-color="#B2DCDE"/>
</linearGradient>
<linearGradient id="paint44_linear_82_132" x1="110.105" y1="73.8168" x2="128.328" y2="65.7922" gradientUnits="userSpaceOnUse">
<stop stop-color="#0D989D"/>
<stop offset="0.03" stop-color="#2FA6AA"/>
<stop offset="0.08" stop-color="#58B6BA"/>
<stop offset="0.13" stop-color="#7EC5C8"/>
<stop offset="0.18" stop-color="#9ED2D4"/>
<stop offset="0.24" stop-color="#BADDDE"/>
<stop offset="0.31" stop-color="#D0E6E7"/>
<stop offset="0.39" stop-color="#E1EDED"/>
<stop offset="0.48" stop-color="#ECF2F2"/>
<stop offset="0.62" stop-color="#F3F4F4"/>
<stop offset="1" stop-color="#F5F5F5"/>
</linearGradient>
<linearGradient id="paint45_linear_82_132" x1="102.696" y1="77.6651" x2="110.302" y2="70.4692" gradientUnits="userSpaceOnUse">
<stop offset="0.14" stop-color="#070707"/>
<stop offset="0.56" stop-color="#2A313B"/>
<stop offset="0.95" stop-color="#475367"/>
</linearGradient>
<linearGradient id="paint46_linear_82_132" x1="102.22" y1="81.6609" x2="109.695" y2="66.3748" gradientUnits="userSpaceOnUse">
<stop offset="0.14" stop-color="#070707"/>
<stop offset="0.56" stop-color="#2A313B"/>
<stop offset="0.95" stop-color="#475367"/>
</linearGradient>
<linearGradient id="paint47_linear_82_132" x1="106.232" y1="76.6887" x2="112.091" y2="73.4394" gradientUnits="userSpaceOnUse">
<stop offset="0.01" stop-color="#070707"/>
<stop offset="0.5" stop-color="#2A313B"/>
<stop offset="0.95" stop-color="#475367"/>
</linearGradient>
<linearGradient id="paint48_linear_82_132" x1="104.107" y1="80.4302" x2="110.228" y2="74.2845" gradientUnits="userSpaceOnUse">
<stop offset="0.01" stop-color="#070707"/>
<stop offset="0.5" stop-color="#2A313B"/>
<stop offset="0.95" stop-color="#475367"/>
</linearGradient>
<linearGradient id="paint49_linear_82_132" x1="112.337" y1="77.5337" x2="116.874" y2="72.1593" gradientUnits="userSpaceOnUse">
<stop offset="0.14" stop-color="#070707"/>
<stop offset="0.56" stop-color="#2A313B"/>
<stop offset="0.95" stop-color="#475367"/>
</linearGradient>
<linearGradient id="paint50_linear_82_132" x1="113.929" y1="79.5933" x2="115.405" y2="68.5163" gradientUnits="userSpaceOnUse">
<stop offset="0.14" stop-color="#070707"/>
<stop offset="0.56" stop-color="#2A313B"/>
<stop offset="0.95" stop-color="#475367"/>
</linearGradient>
<linearGradient id="paint51_linear_82_132" x1="114.872" y1="78.5019" x2="121.666" y2="71.9049" gradientUnits="userSpaceOnUse">
<stop offset="0.14" stop-color="#070707"/>
<stop offset="0.56" stop-color="#2A313B"/>
<stop offset="0.95" stop-color="#475367"/>
</linearGradient>
<linearGradient id="paint52_linear_82_132" x1="114.651" y1="79.1747" x2="119.369" y2="74.2845" gradientUnits="userSpaceOnUse">
<stop offset="0.01" stop-color="#070707"/>
<stop offset="0.5" stop-color="#2A313B"/>
<stop offset="0.95" stop-color="#475367"/>
</linearGradient>
<linearGradient id="paint53_linear_82_132" x1="114.971" y1="72.9389" x2="120.772" y2="63.9624" gradientUnits="userSpaceOnUse">
<stop offset="0.01" stop-color="#274967"/>
<stop offset="0.45" stop-color="#475367"/>
<stop offset="0.57" stop-color="#4D596E"/>
<stop offset="0.73" stop-color="#5E6B80"/>
<stop offset="0.93" stop-color="#79899E"/>
<stop offset="1" stop-color="#8596AC"/>
</linearGradient>
<linearGradient id="paint54_linear_82_132" x1="111.565" y1="75.1132" x2="120.69" y2="65.8824" gradientUnits="userSpaceOnUse">
<stop offset="0.01" stop-color="#274967"/>
<stop offset="0.45" stop-color="#475367"/>
<stop offset="0.57" stop-color="#4D596E"/>
<stop offset="0.73" stop-color="#5E6B80"/>
<stop offset="0.93" stop-color="#79899E"/>
<stop offset="1" stop-color="#8596AC"/>
</linearGradient>
<linearGradient id="paint55_linear_82_132" x1="115.405" y1="72.7747" x2="115.373" y2="70.3952" gradientUnits="userSpaceOnUse">
<stop offset="0.01" stop-color="#274967"/>
<stop offset="0.18" stop-color="#2A4A67"/>
<stop offset="0.31" stop-color="#354D67"/>
<stop offset="0.44" stop-color="#465367"/>
<stop offset="0.45" stop-color="#475367"/>
<stop offset="0.57" stop-color="#4D596E"/>
<stop offset="0.73" stop-color="#5E6B80"/>
<stop offset="0.93" stop-color="#79899E"/>
<stop offset="1" stop-color="#8596AC"/>
</linearGradient>
<linearGradient id="paint56_linear_82_132" x1="119.803" y1="80.0773" x2="117.432" y2="75.1542" gradientUnits="userSpaceOnUse">
<stop offset="0.01" stop-color="#070707"/>
<stop offset="0.07" stop-color="#202020"/>
<stop offset="0.44" stop-color="#B8B8B8"/>
<stop offset="0.6" stop-color="#F5F5F5"/>
</linearGradient>
<linearGradient id="paint57_linear_82_132" x1="122.166" y1="78.9369" x2="119.795" y2="74.0138" gradientUnits="userSpaceOnUse">
<stop offset="0.01" stop-color="#070707"/>
<stop offset="0.07" stop-color="#202020"/>
<stop offset="0.44" stop-color="#B8B8B8"/>
<stop offset="0.6" stop-color="#F5F5F5"/>
</linearGradient>
<linearGradient id="paint58_linear_82_132" x1="111.131" y1="80.9964" x2="108.694" y2="75.942" gradientUnits="userSpaceOnUse">
<stop offset="0.01" stop-color="#070707"/>
<stop offset="0.07" stop-color="#202020"/>
<stop offset="0.44" stop-color="#B8B8B8"/>
<stop offset="0.6" stop-color="#F5F5F5"/>
</linearGradient>
<linearGradient id="paint59_linear_82_132" x1="113.108" y1="79.1666" x2="110.63" y2="74.0301" gradientUnits="userSpaceOnUse">
<stop offset="0.01" stop-color="#070707"/>
<stop offset="0.07" stop-color="#202020"/>
<stop offset="0.44" stop-color="#B8B8B8"/>
<stop offset="0.6" stop-color="#F5F5F5"/>
</linearGradient>
</defs>
</svg>
