<svg width="224" height="176" viewBox="0 0 224 176" fill="none" xmlns="http://www.w3.org/2000/svg">
<g clip-path="url(#clip0_82_82)">
<path d="M9.74951 55.4138L21.6537 82.8168L58.1855 69.526L46.011 39.9545L9.74951 55.4138Z" fill="url(#paint0_linear_82_82)"/>
<path d="M8.03716 44.3656L0 57.2292L3.96533 57.8864L8.03716 44.3656Z" fill="url(#paint1_linear_82_82)"/>
<path d="M44.7492 30.927L7.93062 44.3985L3.06409 60.9421L51.7295 43.4456L44.7492 30.927Z" fill="url(#paint2_linear_82_82)"/>
<path d="M116.076 40.2996L106.031 75.3829L164.479 95.6148L174.786 59.4636L116.076 40.2996Z" fill="url(#paint3_linear_82_82)"/>
<path d="M191.565 53.9435L184.863 56.1449L174.786 59.4553L116.076 40.2995L130.471 37.9091L138.86 36.5127L191.565 53.9435Z" fill="url(#paint4_linear_82_82)"/>
<path d="M191.565 53.9435L181.34 87.8686L174.605 90.9572L164.479 95.6147L174.786 59.4553L184.863 56.1449L191.565 53.9435Z" fill="url(#paint5_linear_82_82)"/>
<path d="M191.565 53.9435L184.863 56.1449L130.471 37.9091L138.86 36.5127L191.565 53.9435Z" fill="url(#paint6_linear_82_82)"/>
<path d="M191.565 53.9435L181.34 87.8686L174.605 90.9572L184.863 56.1449L191.565 53.9435Z" fill="url(#paint7_linear_82_82)"/>
<path d="M134.256 46.3042L153.607 52.6046L150.494 63.3407L131.528 57.1553L134.256 46.3042Z" fill="url(#paint8_linear_82_82)"/>
<path d="M134.256 46.3042L141.351 44.226L159.678 50.4442L153.607 52.6046L134.256 46.3042Z" fill="url(#paint9_linear_82_82)"/>
<path d="M224 148.679V150.7C224.002 152.099 223.45 153.442 222.466 154.434C221.481 155.426 220.144 155.986 218.748 155.99H9.12685C9.12463 154.9 9.33697 153.82 9.7517 152.812C10.1664 151.804 10.7754 150.888 11.5437 150.117C13.0512 148.622 15.2387 147.652 16.0907 147.652H223.001C223.134 147.654 223.265 147.681 223.387 147.733C223.51 147.786 223.621 147.862 223.714 147.957C223.807 148.053 223.88 148.166 223.929 148.289C223.978 148.413 224.002 148.546 224 148.679Z" fill="url(#paint10_linear_82_82)"/>
<path d="M131.904 73.1075V147.685H16.0907V70.175H128.939C129.326 70.1695 129.711 70.2414 130.071 70.3863C130.43 70.5312 130.757 70.7464 131.033 71.0192C131.309 71.2921 131.528 71.6172 131.678 71.9757C131.828 72.3342 131.904 72.7189 131.904 73.1075Z" fill="url(#paint11_linear_82_82)"/>
<path d="M67.5252 70.175H16.0907V147.685H67.5252V70.175Z" fill="url(#paint12_linear_82_82)"/>
<path d="M133.764 75.2515H140.786C141.348 75.2515 141.888 75.4756 142.286 75.8746C142.684 76.2736 142.907 76.8147 142.907 77.379V147.915H131.708V77.2722C131.719 76.7325 131.94 76.2186 132.324 75.8408C132.709 75.4629 133.226 75.2514 133.764 75.2515Z" fill="url(#paint13_linear_82_82)"/>
<path d="M218.748 147.685H142.834V75.736H183.257C184.3 75.7312 185.333 75.9483 186.286 76.3731C187.239 76.7979 188.092 77.4207 188.787 78.2003L217.003 110.072C218.144 111.364 218.773 113.029 218.773 114.754L218.748 147.685Z" fill="url(#paint14_linear_82_82)"/>
<path d="M73.1456 157.781C73.1456 166.973 68.32 174.637 59.3816 175.573C58.7753 175.63 56.0389 175.573 55.4081 175.573C50.7119 175.547 46.2158 173.663 42.8973 170.332C39.5789 167 37.7064 162.489 37.687 157.781C37.687 157.181 37.687 156.581 37.7689 155.99H73.0636C73.1128 156.581 73.1456 157.181 73.1456 157.781Z" fill="url(#paint15_linear_82_82)"/>
<path d="M76.8569 157.781C76.858 160.117 76.4 162.43 75.5091 164.589C74.6182 166.747 73.3118 168.709 71.6646 170.361C70.0174 172.013 68.0617 173.324 65.9092 174.218C63.7566 175.113 61.4494 175.573 59.1194 175.573C58.4804 175.573 57.8741 175.573 57.2597 175.483C52.8988 175.02 48.8629 172.956 45.9298 169.687C42.9966 166.419 41.3737 162.177 41.3738 157.781C41.3738 157.181 41.3738 156.581 41.4557 155.99H76.775C76.8241 156.581 76.8569 157.181 76.8569 157.781Z" fill="url(#paint16_linear_82_82)"/>
<path d="M118.796 155.645C118.796 166.784 111.693 175.992 100.575 175.992C86.6473 175.992 78.561 166.784 78.561 155.645C78.507 152.962 78.9874 150.295 79.9741 147.8C80.9609 145.306 82.4341 143.034 84.3075 141.117C86.181 139.2 88.417 137.678 90.8846 136.638C93.3522 135.599 96.0019 135.063 98.6785 135.063C101.355 135.063 104.005 135.599 106.472 136.638C108.94 137.678 111.176 139.2 113.049 141.117C114.923 143.034 116.396 145.306 117.383 147.8C118.37 150.295 118.85 152.962 118.796 155.645Z" fill="url(#paint17_linear_82_82)"/>
<path d="M118.878 146.01C116.525 141.673 112.673 138.347 108.048 136.656C103.422 134.965 98.3392 135.025 93.7544 136.825C89.1696 138.625 85.3978 142.042 83.1472 146.432C80.8967 150.823 80.3222 155.887 81.5315 160.672C82.7409 165.458 85.651 169.636 89.7154 172.423C93.7798 175.209 98.7189 176.412 103.605 175.806C108.492 175.2 112.99 172.827 116.254 169.131C119.519 165.435 121.326 160.672 121.336 155.735C121.345 152.338 120.5 148.993 118.878 146.01ZM101.149 164.697C100.859 164.7 100.569 164.686 100.28 164.656C98.5972 164.493 96.9948 163.854 95.6592 162.815C94.3236 161.775 93.3095 160.377 92.7346 158.783C92.3877 157.804 92.2104 156.774 92.2102 155.735C92.2067 153.432 93.0882 151.215 94.6716 149.546C96.2551 147.876 98.4189 146.882 100.714 146.77C103.009 146.658 105.259 147.437 106.997 148.944C108.734 150.451 109.826 152.571 110.046 154.865C110.076 155.154 110.09 155.445 110.087 155.735C110.089 156.913 109.859 158.079 109.411 159.167C108.963 160.256 108.304 161.245 107.474 162.077C106.643 162.91 105.657 163.57 104.572 164.019C103.486 164.469 102.323 164.699 101.149 164.697Z" fill="url(#paint18_linear_82_82)"/>
<path d="M164.373 157.781C164.371 162.178 162.746 166.419 159.812 169.688C156.877 172.956 152.84 175.02 148.479 175.483C147.872 175.54 147.258 175.573 146.627 175.573C141.921 175.573 137.407 173.698 134.079 170.362C130.751 167.025 128.881 162.5 128.881 157.781C128.881 157.181 128.881 156.581 128.971 155.99H164.283C164.332 156.581 164.373 157.181 164.373 157.781Z" fill="url(#paint19_linear_82_82)"/>
<path d="M168.084 157.781C168.084 162.5 166.214 167.025 162.886 170.362C159.558 173.698 155.045 175.573 150.338 175.573C149.699 175.573 149.093 175.573 148.479 175.483C144.118 175.02 140.082 172.956 137.149 169.687C134.215 166.419 132.593 162.177 132.593 157.781C132.593 157.181 132.593 156.581 132.683 155.99H167.994C168.043 156.581 168.084 157.181 168.084 157.781Z" fill="url(#paint20_linear_82_82)"/>
<path d="M209.974 155.645C209.974 166.784 202.887 175.811 191.778 175.811C176.867 175.811 169.739 166.775 169.739 155.645C169.685 152.962 170.165 150.295 171.152 147.8C172.139 145.306 173.612 143.034 175.486 141.117C177.359 139.2 179.595 137.678 182.063 136.638C184.53 135.599 187.18 135.063 189.856 135.063C192.533 135.063 195.183 135.599 197.65 136.638C200.118 137.678 202.354 139.2 204.227 141.117C206.101 143.034 207.574 145.306 208.561 147.8C209.548 150.295 210.028 152.962 209.974 155.645Z" fill="url(#paint21_linear_82_82)"/>
<path d="M210.064 146.042C207.715 141.727 203.875 138.421 199.266 136.745C194.657 135.069 189.596 135.139 185.034 136.941C180.473 138.743 176.725 142.154 174.495 146.532C172.266 150.91 171.708 155.954 172.926 160.716C174.145 165.477 177.057 169.628 181.114 172.389C185.17 175.149 190.093 176.329 194.957 175.706C199.82 175.084 204.289 172.701 207.524 169.007C210.759 165.313 212.536 160.561 212.522 155.645C212.518 152.288 211.672 148.986 210.064 146.042ZM192.376 164.566C191.675 164.563 190.977 164.481 190.295 164.319C188.182 163.802 186.33 162.528 185.09 160.736C183.85 158.944 183.306 156.76 183.562 154.594C183.819 152.428 184.856 150.431 186.48 148.98C188.103 147.529 190.201 146.724 192.376 146.716C193.443 146.719 194.502 146.908 195.505 147.275C196.981 147.836 198.282 148.778 199.278 150.005C200.274 151.233 200.928 152.702 201.175 154.265C201.241 154.722 201.274 155.183 201.273 155.645C201.275 156.817 201.047 157.978 200.6 159.061C200.154 160.145 199.499 161.129 198.672 161.958C197.845 162.787 196.864 163.444 195.783 163.891C194.703 164.339 193.545 164.568 192.376 164.566Z" fill="url(#paint22_linear_82_82)"/>
<path d="M201.797 115.083H154.787C154.115 115.076 153.473 114.806 152.998 114.33C152.523 113.854 152.254 113.21 152.247 112.536L152.042 86.4476C152.04 86.109 152.105 85.7732 152.233 85.4599C152.361 85.1465 152.55 84.8617 152.788 84.6218C153.027 84.382 153.31 84.1919 153.622 84.0626C153.934 83.9332 154.269 83.8672 154.607 83.8683H178.44C178.797 83.8622 179.151 83.9323 179.478 84.0739C179.806 84.2155 180.1 84.4254 180.34 84.6897L182.176 86.7433L190.262 95.779L203.715 110.795C204.046 111.165 204.263 111.624 204.339 112.115C204.416 112.606 204.349 113.11 204.146 113.563C203.943 114.017 203.613 114.402 203.196 114.672C202.779 114.942 202.293 115.084 201.797 115.083Z" fill="url(#paint23_linear_82_82)"/>
<path d="M190.262 95.7791L169.591 115.083H154.787L182.176 86.7679L190.262 95.7791Z" fill="url(#paint24_linear_82_82)"/>
<path d="M155.188 118.911H162.652C163.35 118.911 164.019 119.188 164.512 119.683C165.005 120.177 165.282 120.848 165.282 121.547H152.559C152.559 120.848 152.836 120.177 153.329 119.683C153.822 119.188 154.491 118.911 155.188 118.911Z" fill="url(#paint25_linear_82_82)"/>
<path opacity="0.02" d="M190.295 164.286L181.405 172.501C178.954 170.918 176.878 168.815 175.326 166.34L183.863 158.274C184.325 159.748 185.16 161.077 186.287 162.131C187.415 163.185 188.795 163.928 190.295 164.286Z" fill="url(#paint26_linear_82_82)"/>
<path opacity="0.02" d="M210.064 146.042L201.175 154.257C200.928 152.694 200.274 151.225 199.278 149.997C198.282 148.769 196.981 147.827 195.505 147.266L204.042 139.2C206.548 140.986 208.608 143.328 210.064 146.042Z" fill="url(#paint27_linear_82_82)"/>
<path opacity="0.02" d="M100.28 164.525L91.4975 173.322C88.6361 171.771 86.1951 169.543 84.3861 166.833L92.7428 158.676C93.3175 160.267 94.331 161.661 95.6655 162.696C96.9999 163.732 98.6003 164.366 100.28 164.525Z" fill="url(#paint28_linear_82_82)"/>
<path opacity="0.02" d="M118.796 145.96L110.005 154.774C109.849 153.137 109.244 151.574 108.256 150.261C107.268 148.947 105.937 147.933 104.409 147.332L112.758 139.175C115.261 140.945 117.327 143.266 118.796 145.96Z" fill="url(#paint29_linear_82_82)"/>
<path d="M80.8222 103.04C105.98 103.04 126.374 82.5926 126.374 57.3689C126.374 32.1451 105.98 11.6973 80.8222 11.6973C55.6645 11.6973 35.2701 32.1451 35.2701 57.3689C35.2701 82.5926 55.6645 103.04 80.8222 103.04Z" fill="url(#paint30_linear_82_82)"/>
<path d="M118.181 57.3688C118.183 64.7775 115.993 72.0203 111.889 78.1812C107.785 84.3421 101.951 89.1444 95.1246 91.9807C88.2983 94.817 80.7863 95.56 73.5388 94.1156C66.2912 92.6712 59.6337 89.1044 54.4081 83.8662C49.1825 78.6281 45.6235 71.9538 44.1814 64.6876C42.7392 57.4214 43.4785 49.8895 46.3059 43.0446C49.1333 36.1997 53.9217 30.3492 60.0656 26.233C66.2095 22.1168 73.4329 19.9197 80.8222 19.9197C85.73 19.9111 90.5913 20.8738 95.1273 22.7526C99.6633 24.6314 103.785 27.3894 107.256 30.8685C110.726 34.3476 113.478 38.4793 115.353 43.0268C117.228 47.5743 118.189 52.4481 118.181 57.3688Z" fill="#B2DCDE"/>
<path d="M87.9008 31.3213H87.8271C87.7187 31.3013 87.6225 31.2391 87.5596 31.1484C87.4967 31.0576 87.4721 30.9455 87.4912 30.8367L88.7529 23.8216C88.7728 23.7151 88.8339 23.6207 88.923 23.5592C89.012 23.4976 89.1216 23.4739 89.2281 23.4931C89.3348 23.5131 89.4296 23.5741 89.4923 23.663C89.5551 23.752 89.5807 23.8619 89.564 23.9695L88.3023 30.9763C88.2853 31.0714 88.2361 31.1577 88.1629 31.2206C88.0897 31.2834 87.9972 31.319 87.9008 31.3213Z" fill="#0B7377"/>
<path d="M54.7854 50.1075H54.6953L47.7806 48.4646C47.6754 48.4392 47.5844 48.3732 47.5276 48.2808C47.4708 48.1885 47.4528 48.0774 47.4774 47.9717C47.489 47.919 47.511 47.869 47.5421 47.825C47.5733 47.7809 47.613 47.7435 47.6589 47.7152C47.7048 47.6868 47.7559 47.668 47.8091 47.6599C47.8624 47.6517 47.9168 47.6544 47.969 47.6678L54.8919 49.286C54.9971 49.3114 55.0881 49.3774 55.1449 49.4698C55.2017 49.5621 55.2197 49.6732 55.1951 49.7789C55.1745 49.8723 55.1226 49.9559 55.0481 50.0157C54.9736 50.0754 54.8809 50.1078 54.7854 50.1075Z" fill="#0B7377"/>
<path d="M114.495 63.2011H114.437L107.408 62.1743C107.301 62.1561 107.206 62.0971 107.142 62.0098C107.077 61.9225 107.05 61.8136 107.064 61.7061C107.071 61.6522 107.089 61.6002 107.116 61.5534C107.144 61.5066 107.18 61.4658 107.224 61.4336C107.267 61.4013 107.317 61.3783 107.37 61.3658C107.423 61.3534 107.477 61.3517 107.531 61.3611L114.552 62.4289C114.661 62.4366 114.762 62.4871 114.833 62.5696C114.905 62.652 114.941 62.7595 114.933 62.8684C114.925 62.9773 114.875 63.0788 114.793 63.1504C114.711 63.222 114.603 63.258 114.495 63.2504V63.2011Z" fill="#0B7377"/>
<path d="M69.852 90.0455C69.8008 90.0571 69.7476 90.0571 69.6964 90.0455C69.5972 90.0052 69.5178 89.9277 69.4749 89.8294C69.432 89.7312 69.4292 89.6201 69.467 89.5198L72.0968 82.8579C72.1387 82.758 72.2175 82.6781 72.3168 82.6353C72.4162 82.5924 72.5282 82.5897 72.6294 82.6279C72.6794 82.6479 72.7251 82.6775 72.7637 82.7151C72.8024 82.7527 72.8332 82.7976 72.8545 82.8472C72.8758 82.8968 72.8872 82.9501 72.8879 83.0041C72.8886 83.0581 72.8787 83.1117 72.8588 83.1619L70.2535 89.7826C70.2248 89.8647 70.1699 89.9349 70.0973 89.9825C70.0247 90.03 69.9385 90.0522 69.852 90.0455Z" fill="#0B7377"/>
<path d="M27.5852 45.7949C27.4553 45.7938 27.3261 45.7773 27.2001 45.7456C26.779 45.6424 26.4159 45.3762 26.1901 45.0052C25.9644 44.6341 25.8945 44.1885 25.9958 43.7659C31.2719 21.7598 49.4191 4.10721 70.1223 0.739337C93.8815 -3.08032 112.496 9.01937 115.83 12.2394C115.997 12.3854 116.132 12.5637 116.228 12.7636C116.324 12.9634 116.378 13.1807 116.388 13.4022C116.398 13.6237 116.363 13.845 116.285 14.0526C116.208 14.2603 116.089 14.45 115.936 14.6104C115.783 14.7708 115.6 14.8985 115.396 14.9858C115.193 15.0731 114.974 15.1183 114.753 15.1186C114.532 15.1189 114.313 15.0742 114.109 14.9874C113.906 14.9006 113.722 14.7733 113.569 14.6133C110.996 12.149 93.1687 0.377907 70.6467 4.00042C51.2051 7.10543 34.1558 23.8216 29.1828 44.5381C29.0962 44.8972 28.8914 45.2165 28.6016 45.4445C28.3117 45.6726 27.9536 45.796 27.5852 45.7949Z" fill="url(#paint31_linear_82_82)"/>
<path d="M117.092 9.25758L111.168 16.3712C111.064 16.4987 110.996 16.6513 110.969 16.8138C110.942 16.9763 110.957 17.143 111.015 17.2974C111.072 17.4519 111.168 17.5886 111.294 17.6942C111.42 17.7997 111.572 17.8703 111.734 17.899L120.664 19.4598C120.825 19.4874 120.991 19.4723 121.145 19.4161C121.299 19.36 121.435 19.2646 121.541 19.1394C121.647 19.0142 121.718 18.8635 121.748 18.7022C121.778 18.5409 121.766 18.3745 121.713 18.2194L118.698 9.55329C118.644 9.39511 118.55 9.25409 118.424 9.14484C118.298 9.03559 118.145 8.96207 117.981 8.93191C117.818 8.90175 117.649 8.91604 117.492 8.9733C117.336 9.03056 117.198 9.12871 117.092 9.25758Z" fill="url(#paint32_linear_82_82)"/>
<path d="M80.1996 114.179H78.9952C70.0576 113.958 61.3408 111.349 53.7449 106.622C53.3755 106.392 53.1124 106.025 53.0133 105.6C52.9142 105.176 52.9873 104.729 53.2165 104.359C53.4457 103.989 53.8123 103.725 54.2356 103.625C54.6589 103.526 55.1042 103.599 55.4736 103.829C62.6939 108.332 71.0015 110.777 79.5036 110.902C88.0058 111.026 96.3811 108.825 103.729 104.536C103.916 104.417 104.124 104.337 104.342 104.301C104.561 104.265 104.784 104.274 104.998 104.326C105.213 104.379 105.415 104.475 105.591 104.608C105.768 104.741 105.916 104.908 106.027 105.1C106.138 105.292 106.208 105.504 106.235 105.724C106.262 105.944 106.244 106.167 106.182 106.38C106.121 106.592 106.017 106.791 105.877 106.962C105.737 107.134 105.564 107.275 105.368 107.378C97.7232 111.83 89.0404 114.176 80.1996 114.179Z" fill="url(#paint33_linear_82_82)"/>
<path d="M48.6572 102.26L52.1719 108.832C52.2393 108.946 52.3352 109.04 52.4501 109.106C52.5651 109.171 52.695 109.206 52.8273 109.206C52.9596 109.206 53.0895 109.171 53.2045 109.106C53.3194 109.04 53.4153 108.946 53.4827 108.832L57.3497 102.679C57.4197 102.566 57.4591 102.437 57.4642 102.305C57.4692 102.172 57.4397 102.04 57.3785 101.922C57.3173 101.805 57.2265 101.705 57.1152 101.633C57.0038 101.561 56.8757 101.52 56.7435 101.513L49.3699 101.151C49.2361 101.143 49.1025 101.17 48.9828 101.231C48.8631 101.291 48.7618 101.383 48.6891 101.496C48.6165 101.609 48.5753 101.739 48.5696 101.874C48.564 102.008 48.5942 102.141 48.6572 102.26Z" fill="url(#paint34_linear_82_82)"/>
<path d="M64.9691 33.4406C64.8993 33.4411 64.8305 33.424 64.769 33.391C64.7074 33.358 64.6551 33.3101 64.6168 33.2516L61.9214 28.9391C61.8916 28.8936 61.8714 28.8426 61.8619 28.789C61.8524 28.7355 61.8538 28.6806 61.8661 28.6276C61.8783 28.5747 61.9012 28.5247 61.9332 28.4808C61.9652 28.437 62.0058 28.4 62.0524 28.3723C62.0972 28.3427 62.1474 28.3226 62.2002 28.3131C62.253 28.3037 62.3071 28.3052 62.3593 28.3175C62.4115 28.3298 62.4606 28.3527 62.5036 28.3847C62.5466 28.4167 62.5827 28.4572 62.6095 28.5037L65.3132 32.8573C65.3429 32.9028 65.3631 32.9539 65.3726 33.0074C65.3821 33.0609 65.3807 33.1158 65.3684 33.1688C65.3562 33.2218 65.3334 33.2717 65.3013 33.3156C65.2693 33.3595 65.2287 33.3964 65.1821 33.4241C65.114 33.4492 65.0402 33.4549 64.9691 33.4406Z" fill="#0B7377"/>
<path d="M97.6092 87.5318C97.5408 87.531 97.4737 87.5133 97.4137 87.4804C97.3537 87.4474 97.3027 87.4002 97.2651 87.3429L94.496 83.0714C94.4635 83.0262 94.4405 82.9748 94.4284 82.9203C94.4164 82.8659 94.4155 82.8096 94.4259 82.7548C94.4363 82.7 94.4577 82.6479 94.4888 82.6017C94.5199 82.5554 94.56 82.516 94.6068 82.4859C94.6536 82.4557 94.706 82.4354 94.7609 82.4263C94.8158 82.4171 94.8719 82.4192 94.9259 82.4325C94.9799 82.4458 95.0307 82.4699 95.0751 82.5035C95.1195 82.5371 95.1566 82.5794 95.1842 82.6279L97.9533 86.8993C98.0119 86.9909 98.0318 87.1019 98.0087 87.2082C97.9857 87.3144 97.9216 87.4072 97.8304 87.4661C97.764 87.5076 97.6875 87.5303 97.6092 87.5318Z" fill="#0B7377"/>
<path d="M51.5329 73.9289C51.4422 73.9276 51.3545 73.8961 51.2836 73.8394C51.2127 73.7828 51.1626 73.7042 51.141 73.6158C51.1195 73.5275 51.1277 73.4346 51.1646 73.3515C51.2014 73.2684 51.2646 73.1999 51.3444 73.1568L55.8587 70.8239C55.9066 70.7991 55.9588 70.784 56.0125 70.7794C56.0662 70.7749 56.1203 70.781 56.1717 70.7974C56.223 70.8138 56.2706 70.8401 56.3118 70.875C56.353 70.9098 56.3869 70.9525 56.4117 71.0005C56.4364 71.0485 56.4515 71.1009 56.456 71.1548C56.4606 71.2086 56.4545 71.2628 56.4382 71.3143C56.4218 71.3658 56.3955 71.4135 56.3607 71.4548C56.326 71.4961 56.2834 71.5302 56.2355 71.555L51.7213 73.8468C51.6651 73.8874 51.6008 73.9154 51.5329 73.9289Z" fill="#0B7377"/>
<path d="M81.83 60.6792C81.6232 60.6787 81.4199 60.6267 81.2382 60.5277C81.0566 60.4288 80.9024 60.286 80.7895 60.1124L76.2834 53.1384C76.1957 53.0025 76.1356 52.8506 76.1065 52.6914C76.0774 52.5322 76.0798 52.3688 76.1136 52.2105C76.182 51.8908 76.3742 51.6115 76.648 51.434C76.9218 51.2564 77.2547 51.1952 77.5735 51.2637C77.8923 51.3323 78.1709 51.525 78.348 51.7995L82.215 57.7795L93.5703 50.9945C93.8503 50.8345 94.1817 50.7912 94.4932 50.8739C94.8047 50.9566 95.0714 51.1586 95.2358 51.4365C95.4001 51.7144 95.4491 52.046 95.372 52.3597C95.2949 52.6734 95.0981 52.9442 94.8238 53.1138L82.4526 60.5067C82.2655 60.622 82.0496 60.6818 81.83 60.6792Z" fill="url(#paint35_linear_82_82)"/>
<path d="M105.54 43.6592C105.464 43.6611 105.389 43.6412 105.323 43.6019C105.258 43.5627 105.205 43.5056 105.171 43.4374C105.123 43.3404 105.114 43.228 105.148 43.1249C105.182 43.0218 105.255 42.9363 105.352 42.887L109.866 40.5542C109.914 40.525 109.968 40.5062 110.024 40.4989C110.079 40.4915 110.136 40.4958 110.19 40.5114C110.244 40.527 110.295 40.5537 110.338 40.5897C110.382 40.6257 110.417 40.6704 110.443 40.7208C110.468 40.7712 110.483 40.8263 110.486 40.8827C110.489 40.939 110.481 40.9955 110.461 41.0485C110.442 41.1014 110.411 41.1498 110.372 41.1906C110.333 41.2313 110.286 41.2635 110.234 41.2852L105.728 43.6181C105.67 43.6466 105.605 43.6607 105.54 43.6592Z" fill="#0B7377"/>
<path d="M81.7644 62.8478C83.8051 62.8478 85.4594 61.1892 85.4594 59.1431C85.4594 57.0971 83.8051 55.4385 81.7644 55.4385C79.7238 55.4385 78.0695 57.0971 78.0695 59.1431C78.0695 61.1892 79.7238 62.8478 81.7644 62.8478Z" fill="url(#paint36_linear_82_82)"/>
</g>
<defs>
<linearGradient id="paint0_linear_82_82" x1="86.7457" y1="64.1292" x2="2.78444" y2="59.7901" gradientUnits="userSpaceOnUse">
<stop offset="0.02" stop-color="#247B7E"/>
<stop offset="0.38" stop-color="#40AFB3"/>
<stop offset="0.47" stop-color="#47B2B6"/>
<stop offset="0.61" stop-color="#59B9BC"/>
<stop offset="0.77" stop-color="#78C5C8"/>
<stop offset="0.94" stop-color="#A2D6D8"/>
<stop offset="1" stop-color="#B2DCDE"/>
</linearGradient>
<linearGradient id="paint1_linear_82_82" x1="-37.9901" y1="55.2167" x2="71.2661" y2="45.1083" gradientUnits="userSpaceOnUse">
<stop stop-color="white"/>
<stop offset="0.09" stop-color="#F7FBFB"/>
<stop offset="0.22" stop-color="#E2EEEF"/>
<stop offset="0.39" stop-color="#BFDADB"/>
<stop offset="0.58" stop-color="#8FBFC0"/>
<stop offset="0.79" stop-color="#519B9E"/>
<stop offset="1" stop-color="#0B7377"/>
</linearGradient>
<linearGradient id="paint2_linear_82_82" x1="-8.029" y1="34.7056" x2="83.816" y2="66.8293" gradientUnits="userSpaceOnUse">
<stop stop-color="white"/>
<stop offset="0.09" stop-color="#F7FBFB"/>
<stop offset="0.22" stop-color="#E2EEEF"/>
<stop offset="0.39" stop-color="#BFDADB"/>
<stop offset="0.58" stop-color="#8FBFC0"/>
<stop offset="0.79" stop-color="#519B9E"/>
<stop offset="1" stop-color="#0B7377"/>
</linearGradient>
<linearGradient id="paint3_linear_82_82" x1="82.6656" y1="157.083" x2="169.156" y2="23.9874" gradientUnits="userSpaceOnUse">
<stop stop-color="#0B7377"/>
<stop offset="0.12" stop-color="#12777B"/>
<stop offset="0.29" stop-color="#248387"/>
<stop offset="0.48" stop-color="#439699"/>
<stop offset="0.7" stop-color="#6DB1B3"/>
<stop offset="0.94" stop-color="#A3D2D5"/>
<stop offset="1" stop-color="#B2DCDE"/>
</linearGradient>
<linearGradient id="paint4_linear_82_82" x1="135.862" y1="96.4444" x2="155.237" y2="43.5194" gradientUnits="userSpaceOnUse">
<stop stop-color="#0B7377"/>
<stop offset="1" stop-color="#B2DCDE"/>
</linearGradient>
<linearGradient id="paint5_linear_82_82" x1="138.246" y1="78.2661" x2="207.707" y2="72.2108" gradientUnits="userSpaceOnUse">
<stop stop-color="#0B7377"/>
<stop offset="1" stop-color="#B2DCDE"/>
</linearGradient>
<linearGradient id="paint6_linear_82_82" x1="138.754" y1="96.1651" x2="165.275" y2="36.6382" gradientUnits="userSpaceOnUse">
<stop stop-color="#0B7377"/>
<stop offset="1" stop-color="#B2DCDE"/>
</linearGradient>
<linearGradient id="paint7_linear_82_82" x1="235.773" y1="64.3675" x2="139.094" y2="79.1186" gradientUnits="userSpaceOnUse">
<stop stop-color="#0B7377"/>
<stop offset="1" stop-color="#B2DCDE"/>
</linearGradient>
<linearGradient id="paint8_linear_82_82" x1="150.65" y1="32.2249" x2="127.562" y2="94.9431" gradientUnits="userSpaceOnUse">
<stop stop-color="#0D989D"/>
<stop offset="0.03" stop-color="#2FA6AA"/>
<stop offset="0.08" stop-color="#58B6BA"/>
<stop offset="0.13" stop-color="#7EC5C8"/>
<stop offset="0.18" stop-color="#9ED2D4"/>
<stop offset="0.24" stop-color="#BADDDE"/>
<stop offset="0.31" stop-color="#D0E6E7"/>
<stop offset="0.39" stop-color="#E1EDED"/>
<stop offset="0.48" stop-color="#ECF2F2"/>
<stop offset="0.62" stop-color="#F3F4F4"/>
<stop offset="1" stop-color="#F5F5F5"/>
</linearGradient>
<linearGradient id="paint9_linear_82_82" x1="135.173" y1="75.3007" x2="152.857" y2="35.1422" gradientUnits="userSpaceOnUse">
<stop stop-color="#0D989D"/>
<stop offset="0.03" stop-color="#2FA6AA"/>
<stop offset="0.08" stop-color="#58B6BA"/>
<stop offset="0.13" stop-color="#7EC5C8"/>
<stop offset="0.18" stop-color="#9ED2D4"/>
<stop offset="0.24" stop-color="#BADDDE"/>
<stop offset="0.31" stop-color="#D0E6E7"/>
<stop offset="0.39" stop-color="#E1EDED"/>
<stop offset="0.48" stop-color="#ECF2F2"/>
<stop offset="0.62" stop-color="#F3F4F4"/>
<stop offset="1" stop-color="#F5F5F5"/>
</linearGradient>
<linearGradient id="paint10_linear_82_82" x1="116.559" y1="178.202" x2="116.559" y2="124.743" gradientUnits="userSpaceOnUse">
<stop offset="0.02" stop-color="#247B7E"/>
<stop offset="0.38" stop-color="#40AFB3"/>
<stop offset="0.47" stop-color="#47B2B6"/>
<stop offset="0.61" stop-color="#59B9BC"/>
<stop offset="0.77" stop-color="#78C5C8"/>
<stop offset="0.94" stop-color="#A2D6D8"/>
<stop offset="1" stop-color="#B2DCDE"/>
</linearGradient>
<linearGradient id="paint11_linear_82_82" x1="24.6686" y1="108.018" x2="222.37" y2="111.761" gradientUnits="userSpaceOnUse">
<stop stop-color="#0D989D"/>
<stop offset="0.03" stop-color="#2FA6AA"/>
<stop offset="0.08" stop-color="#58B6BA"/>
<stop offset="0.13" stop-color="#7EC5C8"/>
<stop offset="0.18" stop-color="#9ED2D4"/>
<stop offset="0.24" stop-color="#BADDDE"/>
<stop offset="0.31" stop-color="#D0E6E7"/>
<stop offset="0.39" stop-color="#E1EDED"/>
<stop offset="0.48" stop-color="#ECF2F2"/>
<stop offset="0.62" stop-color="#F3F4F4"/>
<stop offset="1" stop-color="#F5F5F5"/>
</linearGradient>
<linearGradient id="paint12_linear_82_82" x1="92.5216" y1="224.481" x2="2.88462" y2="21.3005" gradientUnits="userSpaceOnUse">
<stop stop-color="#0D989D"/>
<stop offset="0.03" stop-color="#2FA6AA"/>
<stop offset="0.08" stop-color="#58B6BA"/>
<stop offset="0.13" stop-color="#7EC5C8"/>
<stop offset="0.18" stop-color="#9ED2D4"/>
<stop offset="0.24" stop-color="#BADDDE"/>
<stop offset="0.31" stop-color="#D0E6E7"/>
<stop offset="0.39" stop-color="#E1EDED"/>
<stop offset="0.48" stop-color="#ECF2F2"/>
<stop offset="0.62" stop-color="#F3F4F4"/>
<stop offset="1" stop-color="#F5F5F5"/>
</linearGradient>
<linearGradient id="paint13_linear_82_82" x1="157.843" y1="110.721" x2="102.377" y2="113.164" gradientUnits="userSpaceOnUse">
<stop stop-color="#0B7377"/>
<stop offset="1" stop-color="#B2DCDE"/>
</linearGradient>
<linearGradient id="paint14_linear_82_82" x1="106.425" y1="144.531" x2="287.73" y2="64.9477" gradientUnits="userSpaceOnUse">
<stop stop-color="#0D989D"/>
<stop offset="0.03" stop-color="#2FA6AA"/>
<stop offset="0.08" stop-color="#58B6BA"/>
<stop offset="0.13" stop-color="#7EC5C8"/>
<stop offset="0.18" stop-color="#9ED2D4"/>
<stop offset="0.24" stop-color="#BADDDE"/>
<stop offset="0.31" stop-color="#D0E6E7"/>
<stop offset="0.39" stop-color="#E1EDED"/>
<stop offset="0.48" stop-color="#ECF2F2"/>
<stop offset="0.62" stop-color="#F3F4F4"/>
<stop offset="1" stop-color="#F5F5F5"/>
</linearGradient>
<linearGradient id="paint15_linear_82_82" x1="32.7877" y1="182.875" x2="108.545" y2="111.363" gradientUnits="userSpaceOnUse">
<stop offset="0.14" stop-color="#070707"/>
<stop offset="0.56" stop-color="#2A313B"/>
<stop offset="0.95" stop-color="#475367"/>
</linearGradient>
<linearGradient id="paint16_linear_82_82" x1="28.0522" y1="222.748" x2="102.66" y2="70.5428" gradientUnits="userSpaceOnUse">
<stop offset="0.14" stop-color="#070707"/>
<stop offset="0.56" stop-color="#2A313B"/>
<stop offset="0.95" stop-color="#475367"/>
</linearGradient>
<linearGradient id="paint17_linear_82_82" x1="67.9267" y1="173.182" x2="126.225" y2="140.964" gradientUnits="userSpaceOnUse">
<stop offset="0.01" stop-color="#070707"/>
<stop offset="0.5" stop-color="#2A313B"/>
<stop offset="0.95" stop-color="#475367"/>
</linearGradient>
<linearGradient id="paint18_linear_82_82" x1="46.7646" y1="210.435" x2="107.789" y2="149.381" gradientUnits="userSpaceOnUse">
<stop offset="0.01" stop-color="#070707"/>
<stop offset="0.5" stop-color="#2A313B"/>
<stop offset="0.95" stop-color="#475367"/>
</linearGradient>
<linearGradient id="paint19_linear_82_82" x1="128.619" y1="181.569" x2="173.85" y2="128.154" gradientUnits="userSpaceOnUse">
<stop offset="0.14" stop-color="#070707"/>
<stop offset="0.56" stop-color="#2A313B"/>
<stop offset="0.95" stop-color="#475367"/>
</linearGradient>
<linearGradient id="paint20_linear_82_82" x1="144.448" y1="202.13" x2="159.18" y2="91.7805" gradientUnits="userSpaceOnUse">
<stop offset="0.14" stop-color="#070707"/>
<stop offset="0.56" stop-color="#2A313B"/>
<stop offset="0.95" stop-color="#475367"/>
</linearGradient>
<linearGradient id="paint21_linear_82_82" x1="153.763" y1="191.287" x2="221.509" y2="125.692" gradientUnits="userSpaceOnUse">
<stop offset="0.14" stop-color="#070707"/>
<stop offset="0.56" stop-color="#2A313B"/>
<stop offset="0.95" stop-color="#475367"/>
</linearGradient>
<linearGradient id="paint22_linear_82_82" x1="151.633" y1="197.998" x2="198.639" y2="149.386" gradientUnits="userSpaceOnUse">
<stop offset="0.01" stop-color="#070707"/>
<stop offset="0.5" stop-color="#2A313B"/>
<stop offset="0.95" stop-color="#475367"/>
</linearGradient>
<linearGradient id="paint23_linear_82_82" x1="154.771" y1="135.832" x2="212.604" y2="46.5409" gradientUnits="userSpaceOnUse">
<stop offset="0.01" stop-color="#274967"/>
<stop offset="0.45" stop-color="#475367"/>
<stop offset="0.57" stop-color="#4D596E"/>
<stop offset="0.73" stop-color="#5E6B80"/>
<stop offset="0.93" stop-color="#79899E"/>
<stop offset="1" stop-color="#8596AC"/>
</linearGradient>
<linearGradient id="paint24_linear_82_82" x1="120.91" y1="157.477" x2="211.845" y2="65.7722" gradientUnits="userSpaceOnUse">
<stop offset="0.01" stop-color="#274967"/>
<stop offset="0.45" stop-color="#475367"/>
<stop offset="0.57" stop-color="#4D596E"/>
<stop offset="0.73" stop-color="#5E6B80"/>
<stop offset="0.93" stop-color="#79899E"/>
<stop offset="1" stop-color="#8596AC"/>
</linearGradient>
<linearGradient id="paint25_linear_82_82" x1="159.072" y1="134.156" x2="158.784" y2="110.466" gradientUnits="userSpaceOnUse">
<stop offset="0.01" stop-color="#274967"/>
<stop offset="0.18" stop-color="#2A4A67"/>
<stop offset="0.31" stop-color="#354D67"/>
<stop offset="0.44" stop-color="#465367"/>
<stop offset="0.45" stop-color="#475367"/>
<stop offset="0.57" stop-color="#4D596E"/>
<stop offset="0.73" stop-color="#5E6B80"/>
<stop offset="0.93" stop-color="#79899E"/>
<stop offset="1" stop-color="#8596AC"/>
</linearGradient>
<linearGradient id="paint26_linear_82_82" x1="202.813" y1="206.943" x2="179.126" y2="157.911" gradientUnits="userSpaceOnUse">
<stop offset="0.01" stop-color="#070707"/>
<stop offset="0.07" stop-color="#202020"/>
<stop offset="0.44" stop-color="#B8B8B8"/>
<stop offset="0.6" stop-color="#F5F5F5"/>
</linearGradient>
<linearGradient id="paint27_linear_82_82" x1="226.31" y1="195.591" x2="202.615" y2="146.559" gradientUnits="userSpaceOnUse">
<stop offset="0.01" stop-color="#070707"/>
<stop offset="0.07" stop-color="#202020"/>
<stop offset="0.44" stop-color="#B8B8B8"/>
<stop offset="0.6" stop-color="#F5F5F5"/>
</linearGradient>
<linearGradient id="paint28_linear_82_82" x1="116.617" y1="216.152" x2="92.2626" y2="165.766" gradientUnits="userSpaceOnUse">
<stop offset="0.01" stop-color="#070707"/>
<stop offset="0.07" stop-color="#202020"/>
<stop offset="0.44" stop-color="#B8B8B8"/>
<stop offset="0.6" stop-color="#F5F5F5"/>
</linearGradient>
<linearGradient id="paint29_linear_82_82" x1="136.247" y1="197.916" x2="111.514" y2="146.734" gradientUnits="userSpaceOnUse">
<stop offset="0.01" stop-color="#070707"/>
<stop offset="0.07" stop-color="#202020"/>
<stop offset="0.44" stop-color="#B8B8B8"/>
<stop offset="0.6" stop-color="#F5F5F5"/>
</linearGradient>
<linearGradient id="paint30_linear_82_82" x1="114.536" y1="-1.38814" x2="-36.7655" y2="260.938" gradientUnits="userSpaceOnUse">
<stop stop-color="#0B7377"/>
<stop offset="0.12" stop-color="#12777B"/>
<stop offset="0.29" stop-color="#248387"/>
<stop offset="0.48" stop-color="#439699"/>
<stop offset="0.7" stop-color="#6DB1B3"/>
<stop offset="0.94" stop-color="#A3D2D5"/>
<stop offset="1" stop-color="#B2DCDE"/>
</linearGradient>
<linearGradient id="paint31_linear_82_82" x1="87.9745" y1="-31.3786" x2="44.7528" y2="122.137" gradientUnits="userSpaceOnUse">
<stop offset="0.01" stop-color="#274967"/>
<stop offset="0.45" stop-color="#475367"/>
<stop offset="0.57" stop-color="#4D596E"/>
<stop offset="0.73" stop-color="#5E6B80"/>
<stop offset="0.93" stop-color="#79899E"/>
<stop offset="1" stop-color="#8596AC"/>
</linearGradient>
<linearGradient id="paint32_linear_82_82" x1="137.295" y1="29.9412" x2="108.125" y2="8.5748" gradientUnits="userSpaceOnUse">
<stop offset="0.01" stop-color="#274967"/>
<stop offset="0.45" stop-color="#475367"/>
<stop offset="0.57" stop-color="#4D596E"/>
<stop offset="0.73" stop-color="#5E6B80"/>
<stop offset="0.93" stop-color="#79899E"/>
<stop offset="1" stop-color="#8596AC"/>
</linearGradient>
<linearGradient id="paint33_linear_82_82" x1="120.156" y1="81.3794" x2="25.6128" y2="137.438" gradientUnits="userSpaceOnUse">
<stop offset="0.01" stop-color="#274967"/>
<stop offset="0.45" stop-color="#475367"/>
<stop offset="0.57" stop-color="#4D596E"/>
<stop offset="0.73" stop-color="#5E6B80"/>
<stop offset="0.93" stop-color="#79899E"/>
<stop offset="1" stop-color="#8596AC"/>
</linearGradient>
<linearGradient id="paint34_linear_82_82" x1="35.0653" y1="95.779" x2="61.94" y2="108.809" gradientUnits="userSpaceOnUse">
<stop offset="0.01" stop-color="#274967"/>
<stop offset="0.45" stop-color="#475367"/>
<stop offset="0.57" stop-color="#4D596E"/>
<stop offset="0.73" stop-color="#5E6B80"/>
<stop offset="0.93" stop-color="#79899E"/>
<stop offset="1" stop-color="#8596AC"/>
</linearGradient>
<linearGradient id="paint35_linear_82_82" x1="95.6185" y1="27.4276" x2="68.723" y2="94.7859" gradientUnits="userSpaceOnUse">
<stop offset="0.01" stop-color="#274967"/>
<stop offset="0.45" stop-color="#475367"/>
<stop offset="0.57" stop-color="#4D596E"/>
<stop offset="0.73" stop-color="#5E6B80"/>
<stop offset="0.93" stop-color="#79899E"/>
<stop offset="1" stop-color="#8596AC"/>
</linearGradient>
<linearGradient id="paint36_linear_82_82" x1="101.288" y1="19.5912" x2="58.9087" y2="104.989" gradientUnits="userSpaceOnUse">
<stop offset="0.01" stop-color="#274967"/>
<stop offset="0.45" stop-color="#475367"/>
<stop offset="0.57" stop-color="#4D596E"/>
<stop offset="0.73" stop-color="#5E6B80"/>
<stop offset="0.93" stop-color="#79899E"/>
<stop offset="1" stop-color="#8596AC"/>
</linearGradient>
<clipPath id="clip0_82_82">
<rect width="224" height="176" fill="white"/>
</clipPath>
</defs>
</svg>
