<svg width="165" height="169" viewBox="0 0 165 169" fill="none" xmlns="http://www.w3.org/2000/svg">
<g clip-path="url(#clip0_82_35)">
<path d="M120.787 31.9683C120.574 31.7664 120.369 31.5537 120.172 31.3299C119.563 30.6699 119.014 29.9578 118.53 29.202C116.439 25.9579 115.626 22.0569 116.247 18.2506C116.868 14.4442 118.88 11.0016 121.894 8.58595C124.909 6.17028 128.713 4.9524 132.574 5.16689C136.436 5.38137 140.081 7.01306 142.807 9.74764C143.339 10.2808 143.83 10.8525 144.277 11.4582C145.961 13.6817 147.012 16.3167 147.321 19.0861C147.558 21.0531 147.419 23.047 146.911 24.9625C146.21 27.5534 144.844 29.9173 142.947 31.821C141.502 33.2829 139.783 34.4464 137.887 35.245C135.991 36.0437 133.956 36.4618 131.898 36.4755C129.84 36.4892 127.799 36.0981 125.893 35.3248C123.986 34.5514 122.251 33.4108 120.787 31.9683Z" fill="url(#paint0_linear_82_35)"/>
<path d="M120.787 31.9684C120.574 31.7665 120.369 31.5537 120.172 31.33C119.893 30.9617 119.622 30.577 119.351 30.1924C117.26 26.9482 116.447 23.0473 117.068 19.2409C117.689 15.4345 119.7 11.992 122.715 9.5763C125.729 7.16064 129.534 5.94276 133.395 6.15724C137.256 6.37173 140.901 8.00341 143.628 10.738C143.866 10.9753 144.088 11.2045 144.301 11.45C145.985 13.6736 147.037 16.3086 147.346 19.0779C147.575 21.0492 147.428 23.046 146.911 24.9625C146.21 27.5535 144.844 29.9174 142.947 31.8211C141.502 33.2829 139.783 34.4464 137.887 35.2451C135.991 36.0437 133.956 36.4618 131.898 36.4755C129.84 36.4892 127.799 36.0982 125.893 35.3248C123.986 34.5514 122.251 33.4109 120.787 31.9684Z" fill="url(#paint1_linear_82_35)"/>
<path d="M133.065 33.6707C130.042 33.9717 127.009 33.1997 124.5 31.4905C121.991 29.7813 120.167 27.2443 119.349 24.3262C118.531 21.4081 118.771 18.2957 120.028 15.5369C121.284 12.778 123.476 10.5495 126.218 9.2435C128.96 7.93749 132.076 7.63768 135.017 8.39684C137.959 9.156 140.538 10.9255 142.3 13.3939C144.062 15.8623 144.895 18.8714 144.651 21.8916C144.408 24.9119 143.104 27.7498 140.969 29.9058C138.856 32.0426 136.06 33.3746 133.065 33.6707Z" fill="url(#paint2_linear_82_35)"/>
<path d="M133.065 33.6707C129.768 34.0632 126.446 33.1734 123.789 31.1864C121.132 29.1994 119.346 26.2679 118.8 23.0012C118.255 19.7345 118.993 16.384 120.861 13.6459C122.729 10.9078 125.583 8.99287 128.83 8.29903C132.128 7.90655 135.45 8.7963 138.107 10.7833C140.763 12.7704 142.55 15.7019 143.095 18.9685C143.641 22.2352 142.903 25.5858 141.035 28.3238C139.167 31.0619 136.313 32.9769 133.065 33.6707Z" fill="url(#paint3_linear_82_35)"/>
<path d="M128.97 21.6642C128.305 22.3926 128.034 23.1619 128.839 23.9558C128.959 24.0975 129.11 24.2103 129.28 24.2858C129.45 24.3614 129.635 24.3977 129.821 24.3922C130.007 24.3867 130.189 24.3395 130.355 24.254C130.52 24.1686 130.664 24.047 130.775 23.8985C131.432 23.2438 131.481 22.6218 130.94 21.3123C130.029 19.1352 130.02 17.9567 131.293 16.6717C132.565 15.3867 134.395 15.4604 135.757 16.8027C137.399 18.4395 137.243 19.9455 135.946 21.3286L134.543 19.9455C135.15 19.2825 135.314 18.595 134.633 17.9157C134.52 17.7882 134.38 17.6875 134.222 17.6208C134.065 17.5542 133.895 17.5232 133.725 17.5303C133.554 17.5373 133.387 17.5822 133.236 17.6616C133.085 17.741 132.954 17.853 132.852 17.9894C132.302 18.5459 132.294 19.1843 132.926 20.6821C133.747 22.7364 133.623 23.9558 132.425 25.1753C131.038 26.5748 129.339 26.6731 127.665 25.0198C125.991 23.3666 126.204 21.6642 127.534 20.2483L128.97 21.6642ZM134.813 16.7535L135.864 15.6978L136.964 16.7781L135.913 17.8339L134.813 16.7535ZM126.311 25.3717L127.41 24.2587L128.51 25.3717L127.402 26.4848L126.311 25.3717Z" fill="url(#paint4_linear_82_35)"/>
<path d="M130.07 73.1197C129.889 72.9478 129.717 72.7677 129.561 72.5877C127.277 70.0961 126.063 66.8121 126.177 63.4387C126.292 60.0654 127.726 56.8707 130.173 54.5387C132.62 52.2066 135.885 50.9225 139.27 50.9612C142.654 50.9999 145.889 52.3583 148.282 54.7457C148.732 55.1811 149.146 55.6519 149.521 56.1534C150.917 57.9909 151.788 60.1717 152.041 62.4636C152.234 64.1085 152.112 65.7751 151.68 67.3742C151.086 69.5507 149.931 71.5341 148.329 73.1271C146.728 74.7201 144.736 75.8672 142.552 76.4541C140.368 77.041 138.068 77.0472 135.881 76.4723C133.694 75.8973 131.696 74.7612 130.086 73.177L130.07 73.1197Z" fill="url(#paint5_linear_82_35)"/>
<path d="M130.07 73.1196C129.889 72.9477 129.717 72.7677 129.561 72.5876C129.323 72.2848 129.109 71.9656 128.904 71.6464C128.055 70.3022 127.465 68.8116 127.164 67.2514C126.625 64.5416 126.972 61.7308 128.154 59.2322C129.336 56.7336 131.29 54.6792 133.731 53.3709C136.171 52.0627 138.967 51.5697 141.709 51.9645C144.451 52.3593 146.994 53.6209 148.963 55.564C149.16 55.7604 149.349 55.9487 149.521 56.1533C150.917 57.9908 151.788 60.1716 152.041 62.4635C152.234 64.1084 152.112 65.775 151.68 67.3741C151.086 69.5506 149.931 71.534 148.329 73.127C146.728 74.7201 144.736 75.8671 142.552 76.454C140.368 77.0409 138.068 77.0472 135.881 76.4722C133.694 75.8973 131.696 74.7611 130.086 73.1769L130.07 73.1196Z" fill="url(#paint6_linear_82_35)"/>
<path d="M140.222 74.5191C137.724 74.7586 135.221 74.1123 133.153 72.6936C131.086 71.275 129.586 69.1749 128.917 66.7626C128.248 64.3502 128.454 61.7801 129.498 59.5039C130.541 57.2278 132.356 55.3914 134.623 54.3176C136.89 53.2437 139.464 53.0012 141.893 53.6327C144.321 54.2641 146.449 55.7291 147.902 57.77C149.354 59.811 150.039 62.2972 149.835 64.7918C149.632 67.2863 148.553 69.6293 146.788 71.409C145.034 73.1836 142.709 74.2848 140.222 74.5191Z" fill="url(#paint7_linear_82_35)"/>
<path d="M140.222 74.5191C137.719 75.1043 135.089 74.7686 132.814 73.5739C130.54 72.3791 128.774 70.4056 127.842 68.0162C126.911 65.6269 126.875 62.9825 127.743 60.5693C128.611 58.1561 130.323 56.1365 132.565 54.8818C134.807 53.6272 137.427 53.2219 139.945 53.7405C142.463 54.2592 144.708 55.6669 146.268 57.7047C147.828 59.7425 148.597 62.2734 148.435 64.8318C148.273 67.3903 147.189 69.8044 145.385 71.63C143.973 73.0615 142.183 74.0634 140.222 74.5191Z" fill="url(#paint8_linear_82_35)"/>
<path d="M136.841 64.5833C136.291 65.1889 136.061 65.8273 136.726 66.482C136.823 66.6062 136.948 66.7067 137.09 66.7757C137.232 66.8448 137.388 66.8807 137.547 66.8807C137.705 66.8807 137.861 66.8448 138.003 66.7757C138.145 66.7067 138.27 66.6062 138.367 66.482C138.909 65.9337 138.95 65.4181 138.507 64.3377C137.752 62.5371 137.744 61.5632 138.794 60.4992C139.033 60.2431 139.323 60.0407 139.647 59.9056C139.97 59.7706 140.319 59.7059 140.669 59.716C141.019 59.726 141.364 59.8106 141.679 59.964C141.994 60.1175 142.272 60.3362 142.496 60.6056C143.874 61.9642 143.718 63.2083 142.643 64.3541L141.486 63.2083C141.987 62.6599 142.126 62.087 141.552 61.5305C141.459 61.4245 141.344 61.3405 141.214 61.2848C141.085 61.2291 140.944 61.203 140.803 61.2085C140.662 61.214 140.525 61.2509 140.4 61.3165C140.275 61.3822 140.167 61.4749 140.083 61.5878C139.623 62.0543 139.623 62.5781 140.14 63.8139C140.862 65.5163 140.723 66.5311 139.73 67.5296C138.581 68.6918 137.177 68.7737 135.79 67.4069C134.403 66.0401 134.575 64.6242 135.683 63.4538L136.841 64.5833ZM141.675 60.5647L142.545 59.6808L143.456 60.5811L142.586 61.4568L141.675 60.5647ZM134.6 67.6688L135.511 66.7439L136.422 67.6442L135.511 68.5609L134.6 67.6688Z" fill="url(#paint9_linear_82_35)"/>
<path d="M137.76 76.1151V154.023C137.76 155.159 137.308 156.248 136.503 157.052C135.698 157.856 134.607 158.309 133.467 158.311H21.7987C21.2347 158.311 20.6762 158.2 20.1554 157.984C19.6345 157.769 19.1615 157.452 18.7634 157.054C18.3654 156.656 18.0502 156.183 17.8358 155.662C17.6215 155.142 17.5123 154.585 17.5144 154.023V76.1151C17.5123 75.553 17.6215 74.9961 17.836 74.4763C18.0504 73.9566 18.3658 73.4842 18.7639 73.0864C19.1621 72.6886 19.6352 72.3732 20.156 72.1584C20.6768 71.9436 21.235 71.8335 21.7987 71.8346H133.467C134.031 71.8335 134.59 71.9435 135.111 72.1582C135.633 72.373 136.106 72.6882 136.505 73.0859C136.904 73.4836 137.22 73.9559 137.435 74.4757C137.651 74.9955 137.761 75.5526 137.76 76.1151Z" fill="url(#paint10_linear_82_35)"/>
<path opacity="0.53" d="M137.76 76.1151V99.0314C119.564 116.35 92.8084 141.844 75.6469 158.303H44.0897L132.885 71.8264H133.467C134.032 71.8253 134.591 71.9356 135.113 72.1508C135.635 72.3661 136.109 72.6821 136.508 73.0806C136.907 73.4792 137.223 73.9524 137.438 74.4732C137.653 74.994 137.762 75.5519 137.76 76.1151Z" fill="url(#paint11_linear_82_35)"/>
<path opacity="0.28" d="M39.034 136.614C39.034 136.614 35.8906 150.528 17.5062 153.18V143.661L39.034 136.614Z" fill="url(#paint12_linear_82_35)"/>
<path opacity="0.28" d="M114.665 128.045L137.76 133.365V128.176L114.665 128.045Z" fill="url(#paint13_linear_82_35)"/>
<path opacity="0.28" d="M120.648 71.8183C118.046 75.5667 112.178 80.9603 105.62 84.9133C96.1241 90.6997 78.1255 89.1038 78.1255 89.1038L93.0218 71.7773L120.648 71.8183Z" fill="url(#paint14_linear_82_35)"/>
<path d="M141.724 100.857V125.868C141.724 126.48 141.48 127.067 141.046 127.5C140.612 127.933 140.023 128.176 139.41 128.176H116.593C112.893 128.176 109.344 126.71 106.727 124.101C104.111 121.492 102.641 117.953 102.641 114.263V112.47C102.641 108.78 104.111 105.241 106.727 102.632C109.344 100.023 112.893 98.5568 116.593 98.5568H139.41C139.559 98.556 139.707 98.5725 139.853 98.6059C140.378 98.7065 140.852 98.986 141.193 99.3966C141.535 99.8072 141.722 100.323 141.724 100.857Z" fill="url(#paint15_linear_82_35)"/>
<path d="M127.214 113.19C127.212 114.729 126.788 116.238 125.988 117.553C125.187 118.868 124.041 119.939 122.673 120.651C121.305 121.362 119.767 121.686 118.228 121.588C116.688 121.489 115.205 120.972 113.939 120.092C112.674 119.213 111.674 118.004 111.048 116.598C110.423 115.191 110.195 113.641 110.391 112.115C110.587 110.589 111.198 109.145 112.158 107.941C113.119 106.737 114.391 105.818 115.838 105.284C116.775 104.935 117.768 104.757 118.768 104.761C119.878 104.761 120.977 104.979 122.002 105.402C123.027 105.826 123.959 106.447 124.743 107.23C125.527 108.013 126.149 108.942 126.573 109.965C126.997 110.988 127.215 112.084 127.214 113.19Z" fill="url(#paint16_linear_82_35)"/>
<path d="M127.213 113.191C127.215 115.131 126.545 117.013 125.318 118.519C124.374 118.864 123.377 119.042 122.371 119.042C120.771 119.045 119.202 118.595 117.849 117.744C116.495 116.893 115.411 115.676 114.723 114.235C114.035 112.794 113.772 111.188 113.964 109.603C114.155 108.019 114.794 106.521 115.805 105.284C116.742 104.935 117.735 104.757 118.735 104.761C119.848 104.756 120.95 104.971 121.979 105.393C123.008 105.815 123.943 106.435 124.731 107.219C125.519 108.002 126.144 108.933 126.57 109.958C126.996 110.982 127.215 112.081 127.213 113.191Z" fill="url(#paint17_linear_82_35)"/>
<path d="M157.269 139.291C154.635 141.19 151.793 142.785 148.799 144.046H148.717C146.886 144.864 144.867 145.683 142.742 146.419C132.786 149.939 124.103 151.035 123.331 148.875L122.092 146.166L128.034 144.046C131.825 141.868 135.815 140.056 139.951 138.636C143.589 137.321 147.327 136.3 151.13 135.583L158.073 133.406L159.353 136.197C159.632 136.95 158.845 138.038 157.269 139.291Z" fill="url(#paint18_linear_82_35)"/>
<path d="M157.244 139.307C154.617 141.199 151.784 142.789 148.799 144.046H148.717L146.862 140.666L155.939 136.68L157.244 139.307Z" fill="url(#paint19_linear_82_35)"/>
<path d="M141.495 143.747C151.444 140.226 158.885 135.617 158.115 133.453C157.345 131.289 148.655 132.389 138.706 135.91C128.758 139.431 121.317 144.04 122.087 146.204C122.857 148.368 131.547 147.268 141.495 143.747Z" fill="url(#paint20_linear_82_35)"/>
<path d="M140.955 142.314C149.657 139.234 156.281 135.529 155.75 134.038C155.22 132.547 147.735 133.835 139.034 136.915C130.332 139.994 123.709 143.7 124.239 145.191C124.77 146.681 132.254 145.394 140.955 142.314Z" fill="url(#paint21_linear_82_35)"/>
<path d="M164.967 164.965L164.401 167.895C164.163 168.714 162.759 169.033 160.568 169C157.912 168.899 155.273 168.537 152.689 167.92C151.048 167.543 149.217 167.101 147.387 166.52C138.572 163.844 131.9 160.12 132.491 158.205L133.024 155.668L138.326 157.206C142.128 157.647 145.879 158.447 149.529 159.596C152.765 160.557 155.918 161.775 158.959 163.238L164.967 164.965Z" fill="url(#paint22_linear_82_35)"/>
<path d="M161.594 165.505L160.593 169C157.937 168.899 155.298 168.537 152.714 167.92L153.575 164.474L161.594 165.505Z" fill="url(#paint23_linear_82_35)"/>
<path d="M164.967 165.325C164.385 167.24 156.76 166.627 147.962 163.95C145.885 163.328 143.94 162.641 142.167 161.937C136.422 159.629 132.606 157.108 133.057 155.643C133.64 153.72 141.264 154.334 150.079 157.01L151.811 157.566C159.739 160.202 165.509 163.557 164.967 165.325Z" fill="url(#paint24_linear_82_35)"/>
<path d="M163.314 164.814C163.745 163.4 157.76 160.332 149.945 157.962C142.131 155.591 135.446 154.816 135.015 156.23C134.583 157.644 140.569 160.712 148.383 163.083C156.198 165.453 162.882 166.229 163.314 164.814Z" fill="url(#paint25_linear_82_35)"/>
<path d="M36.1122 35.4467C35.8086 35.6759 35.5049 35.8805 35.1848 36.0851C34.2267 36.6948 33.2159 37.2179 32.1645 37.6484C27.7341 39.4233 22.8079 39.533 18.3024 37.9572C13.7969 36.3814 10.0187 33.2273 7.67066 29.0816C5.32257 24.9359 4.56444 20.0808 5.53727 15.4194C6.5101 10.758 9.14767 6.60765 12.9594 3.74032C13.727 3.17796 14.5364 2.67454 15.3805 2.23439C18.4727 0.602648 21.9484 -0.169124 25.4427 4.22336e-05C27.9386 0.123439 30.3889 0.714856 32.6651 1.74332C35.7965 3.15904 38.5006 5.369 40.5077 8.15262C42.5149 10.9362 43.7547 14.1962 44.1036 17.607C44.4524 21.0178 43.8981 24.4602 42.4958 27.5906C41.0935 30.7209 38.8924 33.4298 36.1122 35.4467Z" fill="url(#paint26_linear_82_35)"/>
<path d="M36.1122 35.4467C35.8086 35.6759 35.5049 35.8805 35.1848 36.0851C34.6677 36.3552 34.1343 36.6089 33.609 36.8299C29.1741 38.6367 24.2309 38.7699 19.7047 37.2044C15.1785 35.6389 11.3795 32.4822 9.01894 28.3251C6.65835 24.1679 5.89795 19.2954 6.88007 14.6195C7.86219 9.94361 10.5195 5.78492 14.3546 2.92188C14.6911 2.67635 15.0276 2.44718 15.3805 2.23439C18.4727 0.602648 21.9484 -0.169124 25.4427 4.22336e-05C27.9386 0.123439 30.3889 0.714856 32.6652 1.74332C35.7965 3.15904 38.5006 5.369 40.5078 8.15262C42.5149 10.9362 43.7547 14.1962 44.1036 17.607C44.4524 21.0178 43.8981 24.4602 42.4958 27.5906C41.0935 30.7209 38.8925 33.4298 36.1122 35.4467Z" fill="url(#paint27_linear_82_35)"/>
<path d="M40.7001 20.6248C40.4538 24.4187 38.8736 28.0045 36.2377 30.7512C33.6018 33.4979 30.0789 35.2297 26.2889 35.6418C22.4989 36.0539 18.6846 35.12 15.5169 33.0044C12.3493 30.8887 10.0314 27.7268 8.97085 24.0751C7.91034 20.4233 8.17524 16.5155 9.71894 13.0393C11.2626 9.56304 13.9862 6.74104 17.4106 5.06975C20.8349 3.39845 24.7406 2.98494 28.4405 3.90197C32.1404 4.81899 35.3975 7.00779 37.6388 10.0833C39.8646 13.1317 40.9479 16.862 40.7001 20.6248Z" fill="url(#paint28_linear_82_35)"/>
<path d="M40.7001 20.6248C40.4454 24.7261 38.6339 28.5766 35.634 31.3936C32.6341 34.2106 28.671 35.7825 24.5504 35.7898C20.4298 35.7971 16.4611 34.2392 13.4512 31.4329C10.4413 28.6265 8.61612 24.7824 8.3468 20.6821C8.60152 16.5809 10.413 12.7303 13.4129 9.91334C16.4128 7.09636 20.3759 5.52441 24.4965 5.51712C28.6171 5.50982 32.5858 7.06772 35.5957 9.87406C38.6056 12.6804 40.4307 16.5245 40.7001 20.6248Z" fill="url(#paint29_linear_82_35)"/>
<path d="M24.942 23.2356C25.7135 24.2014 26.5835 24.7006 27.7654 23.8658C27.9648 23.7449 28.1346 23.5812 28.2625 23.3866C28.3903 23.1919 28.473 22.9713 28.5045 22.7407C28.5359 22.5101 28.5154 22.2755 28.4443 22.0538C28.3732 21.8322 28.2534 21.6292 28.0936 21.4596C27.4124 20.5184 26.6492 20.3301 24.9174 20.7312C22.0202 21.4105 20.5593 21.1813 19.2133 19.3398C17.8673 17.4983 18.3434 15.2476 20.2967 13.8563C22.6768 12.1294 24.4988 12.6613 25.9515 14.5438L23.9572 16.0006C23.2513 15.1085 22.4224 14.7647 21.4457 15.4768C21.2637 15.5892 21.1093 15.7409 20.9936 15.9206C20.878 16.1002 20.8041 16.3034 20.7773 16.5153C20.7506 16.7271 20.7716 16.9422 20.839 17.1449C20.9064 17.3475 21.0183 17.5326 21.1667 17.6866C21.7576 18.505 22.5455 18.6196 24.5317 18.1531C27.2565 17.4983 28.7502 17.9567 30.0142 19.6836C31.4669 21.6806 31.2453 23.7758 28.8569 25.5354C26.3209 27.3687 24.3757 26.6567 22.8902 24.717L24.942 23.2356ZM20.0833 15.0512L18.9753 13.5043L20.5183 12.3667L21.6509 13.9136L20.0833 15.0512ZM29.0293 27.3278L27.9049 25.6991L29.4397 24.5533L30.5969 26.1902L29.0293 27.3278Z" fill="url(#paint30_linear_82_35)"/>
<path d="M80.0707 89.161C79.4469 89.161 78.815 89.161 78.1994 89.161H78.1502C76.2754 89.0963 74.4103 88.8635 72.5774 88.4653C67.7516 87.4474 63.2179 85.3581 59.313 82.3528C55.4082 79.3474 52.2327 75.5033 50.0224 71.1059C47.8122 66.7085 46.624 61.871 46.5462 56.9528C46.4684 52.0346 47.5029 47.1621 49.573 42.6974C51.643 38.2327 54.6954 34.2906 58.5032 31.1639C62.311 28.0372 66.7764 25.8064 71.5676 24.6371C76.3588 23.4679 81.3526 23.3903 86.178 24.4101C91.0034 25.4299 95.5363 27.521 99.44 30.5279C102.735 33.0711 105.52 36.2116 107.647 39.7844C110.567 44.708 112.141 50.3084 112.215 56.0277C112.288 61.747 110.857 67.3857 108.065 72.3821C105.273 77.3785 101.217 81.5583 96.3012 84.505C91.3852 87.4518 85.7807 89.0627 80.0461 89.1774L80.0707 89.161Z" fill="url(#paint31_linear_82_35)"/>
<path d="M80.0706 89.1611C79.4469 89.1611 78.8149 89.1611 78.1994 89.1611H78.1501C77.1817 89.0465 76.2132 88.8828 75.2776 88.6864C67.3734 87.0409 60.3545 82.5482 55.5628 76.0673C50.771 69.5863 48.5425 61.5717 49.3032 53.5554C50.0639 45.5392 53.7605 38.0836 59.6863 32.614C65.6121 27.1445 73.3514 24.0445 81.4248 23.9067C82.1225 23.9067 82.8037 23.9067 83.4849 23.9067C89.3017 24.628 94.8147 26.9045 99.4399 30.4952C102.735 33.0385 105.52 36.1789 107.647 39.7518C110.566 44.6753 112.141 50.2757 112.215 55.995C112.288 61.7144 110.857 67.353 108.065 72.3494C105.273 77.3459 101.217 81.5256 96.3011 84.4724C91.3851 87.4191 85.7807 89.0301 80.046 89.1447L80.0706 89.1611Z" fill="url(#paint32_linear_82_35)"/>
<path d="M100.581 73.2342C96.6097 78.2062 91.0075 81.6222 84.7598 82.8813C78.5121 84.1404 72.0193 83.1618 66.4238 80.1177C60.8283 77.0736 56.4887 72.1591 54.1686 66.2389C51.8485 60.3188 51.6966 53.7723 53.7395 47.7514C55.7824 41.7305 59.8893 36.621 65.3376 33.322C70.7858 30.023 77.2263 28.7459 83.5257 29.7153C89.8251 30.6848 95.5798 33.8387 99.7773 38.6221C103.975 43.4055 106.346 49.5119 106.474 55.8669C106.608 62.1653 104.522 68.3111 100.581 73.2342Z" fill="url(#paint33_linear_82_35)"/>
<path d="M100.581 73.2342C96.289 78.5677 90.1281 82.0792 83.3416 83.06C76.555 84.0409 69.648 82.4181 64.0143 78.5191C58.3807 74.6201 54.44 68.7353 52.9873 62.0521C51.5346 55.369 52.6783 48.3851 56.1874 42.5099C60.4792 37.1765 66.64 33.665 73.4266 32.6841C80.2131 31.7033 87.1202 33.3261 92.7538 37.2251C98.3874 41.1241 102.328 47.0089 103.781 53.6921C105.233 60.3752 104.09 67.3591 100.581 73.2342Z" fill="url(#paint34_linear_82_35)"/>
<path d="M76.4841 61.8087C76.6236 63.8712 77.3869 65.4099 79.767 65.3608C81.5562 65.3608 82.5657 64.2477 82.5246 62.3653C82.4836 60.4828 81.63 59.4434 78.8642 58.3467C74.2517 56.5216 72.4625 54.8192 72.3804 50.9807C72.2983 47.1422 75.0888 44.5641 79.1186 44.4823C84.043 44.3841 86.021 46.8476 86.2097 50.8252L82.1061 50.9071C81.9912 49.0247 81.1868 47.7643 79.1678 47.8052C77.4361 47.8052 76.64 48.9264 76.7057 50.5715C76.7713 52.2166 77.6905 53.1578 80.875 54.41C85.2331 56.1124 86.8417 58.1666 86.9074 61.7269C86.9976 65.8191 84.6585 68.5445 79.7259 68.6427C74.4979 68.7409 72.5117 65.9173 72.3394 61.8578L76.4841 61.8087ZM77.6987 45.9146L77.6331 42.7881L80.8668 42.7227L80.9324 45.8327L77.6987 45.9146ZM78.2076 71.2453L78.1419 67.9716L81.4249 67.9061L81.4905 71.1799L78.2076 71.2453Z" fill="url(#paint35_linear_82_35)"/>
<path d="M38.5744 137.498C37.2272 139.845 35.4296 141.904 33.2843 143.558C31.139 145.212 28.688 146.429 26.0713 147.138C23.4545 147.848 20.7233 148.036 18.0335 147.693C15.3437 147.35 12.748 146.482 10.3946 145.138C8.04123 143.795 5.97625 142.002 4.31759 139.863C2.65892 137.724 1.43904 135.28 0.727603 132.67C0.0161636 130.061 -0.172904 127.337 0.171195 124.655C0.515294 121.973 1.38582 119.384 2.73307 117.037C4.3259 114.251 6.55582 111.878 9.24148 110.113C13.1135 107.536 17.7456 106.34 22.3852 106.72C27.0248 107.101 31.3992 109.034 34.7975 112.207C38.1959 115.379 40.4185 119.605 41.1042 124.196C41.7898 128.788 40.8983 133.476 38.5744 137.498Z" fill="url(#paint36_linear_82_35)"/>
<path d="M38.5745 137.498C37.391 139.564 35.8551 141.409 34.0358 142.949C29.6513 145.862 24.3155 146.992 19.1223 146.107C13.9291 145.223 9.27193 142.391 6.10551 138.192C2.9391 133.993 1.50332 128.745 2.09251 123.524C2.6817 118.303 5.25123 113.505 9.27434 110.113C13.1468 107.553 17.7725 106.371 22.4025 106.759C27.0324 107.146 31.3956 109.081 34.7856 112.25C38.1757 115.418 40.3941 119.635 41.0817 124.217C41.7693 128.799 40.8859 133.479 38.5745 137.498Z" fill="url(#paint37_linear_82_35)"/>
<path d="M36.9329 139.135C36.2071 140.393 35.3517 141.573 34.3805 142.654L33.9865 142.99C30.1128 145.556 25.4834 146.742 20.8492 146.355C16.2149 145.968 11.8476 144.032 8.45546 140.859C5.06332 137.687 2.84532 133.465 2.16118 128.878C1.47703 124.291 2.36686 119.608 4.68636 115.589C5.40057 114.349 6.24522 113.188 7.20601 112.126C7.34553 111.996 7.49326 111.873 7.64099 111.75C11.5145 109.203 16.1357 108.031 20.7589 108.424C25.382 108.817 29.7376 110.752 33.1226 113.917C36.5076 117.082 38.7246 121.291 39.4159 125.867C40.1073 130.442 39.2325 135.116 36.9329 139.135Z" fill="url(#paint38_linear_82_35)"/>
<path d="M35.4064 135.722C33.1622 139.629 29.4535 142.488 25.0961 143.668C20.7387 144.848 16.0896 144.254 12.1715 142.016C8.2534 139.778 5.38729 136.08 4.20367 131.735C3.02004 127.389 3.61587 122.753 5.86006 118.846C6.43909 117.844 7.11533 116.901 7.87906 116.031C10.6758 112.889 14.5416 110.892 18.7287 110.428C22.9159 109.964 27.127 111.065 30.5474 113.518C33.9678 115.97 36.3546 119.601 37.2461 123.707C38.1375 127.813 37.4704 132.103 35.3736 135.747L35.4064 135.722Z" fill="url(#paint39_linear_82_35)"/>
<path d="M34.0358 137.089C33.4446 138.113 32.7488 139.073 31.9594 139.954C28.9423 142.634 25.0674 144.157 21.0277 144.25C16.988 144.342 13.0469 142.999 9.90933 140.46C6.77179 137.921 4.64242 134.351 3.90207 130.39C3.16172 126.428 3.85868 122.334 5.8683 118.838C6.44733 117.836 7.12357 116.893 7.8873 116.022C10.8971 113.323 14.7731 111.781 18.8199 111.674C22.8667 111.567 26.8192 112.902 29.9681 115.439C33.117 117.976 35.2562 121.549 36.0017 125.517C36.7472 129.484 36.0502 133.587 34.0358 137.089Z" fill="url(#paint40_linear_82_35)"/>
<path d="M19.6401 135.157C19.112 135.152 18.6041 134.954 18.212 134.601L12.6064 129.518C12.3191 129.258 12.1473 128.894 12.1289 128.507C12.1104 128.121 12.2468 127.742 12.508 127.456C12.7692 127.169 13.1338 126.998 13.5217 126.98C13.9096 126.961 14.2889 127.097 14.5762 127.358L19.5663 131.884L27.7736 122.332C28.025 122.038 28.3833 121.856 28.7696 121.825C29.1559 121.794 29.5387 121.918 29.8336 122.169C30.1286 122.419 30.3116 122.777 30.3423 123.162C30.3731 123.547 30.2492 123.929 29.9978 124.223L21.257 134.413C21.0728 134.628 20.8471 134.804 20.5933 134.931C20.3395 135.057 20.0628 135.131 19.7796 135.149L19.6401 135.157Z" fill="url(#paint41_linear_82_35)"/>
<path style="mix-blend-mode:multiply" opacity="0.26" d="M151.835 157.591C148.819 159.449 145.579 160.918 142.192 161.961C136.447 159.653 132.63 157.133 133.082 155.668C133.664 153.744 141.289 154.358 150.104 157.034L151.835 157.591Z" fill="url(#paint42_linear_82_35)"/>
</g>
<defs>
<linearGradient id="paint0_linear_82_35" x1="108.279" y1="3.63232" x2="158.295" y2="40.3363" gradientUnits="userSpaceOnUse">
<stop stop-color="#0B7377"/>
<stop offset="1" stop-color="#B2DCDE"/>
</linearGradient>
<linearGradient id="paint1_linear_82_35" x1="90.4792" y1="-6.84092" x2="156.996" y2="38.2634" gradientUnits="userSpaceOnUse">
<stop stop-color="#0B7377"/>
<stop offset="1" stop-color="#B2DCDE"/>
</linearGradient>
<linearGradient id="paint2_linear_82_35" x1="116.55" y1="16.4497" x2="141.359" y2="23.5841" gradientUnits="userSpaceOnUse">
<stop stop-color="#0D989D"/>
<stop offset="0.04" stop-color="#39ABAF"/>
<stop offset="0.08" stop-color="#62BCC0"/>
<stop offset="0.13" stop-color="#88CCCF"/>
<stop offset="0.19" stop-color="#A8DADC"/>
<stop offset="0.25" stop-color="#C4E6E7"/>
<stop offset="0.31" stop-color="#DAEFF0"/>
<stop offset="0.39" stop-color="#EBF6F7"/>
<stop offset="0.49" stop-color="#F6FBFB"/>
<stop offset="0.62" stop-color="#FDFEFE"/>
<stop offset="1" stop-color="white"/>
</linearGradient>
<linearGradient id="paint3_linear_82_35" x1="97.2906" y1="7.46037" x2="184.848" y2="42.7278" gradientUnits="userSpaceOnUse">
<stop stop-color="#0D989D"/>
<stop offset="0.04" stop-color="#39ABAF"/>
<stop offset="0.08" stop-color="#62BCC0"/>
<stop offset="0.13" stop-color="#88CCCF"/>
<stop offset="0.19" stop-color="#A8DADC"/>
<stop offset="0.25" stop-color="#C4E6E7"/>
<stop offset="0.31" stop-color="#DAEFF0"/>
<stop offset="0.39" stop-color="#EBF6F7"/>
<stop offset="0.49" stop-color="#F6FBFB"/>
<stop offset="0.62" stop-color="#FDFEFE"/>
<stop offset="1" stop-color="white"/>
</linearGradient>
<linearGradient id="paint4_linear_82_35" x1="105.654" y1="18.6203" x2="172.621" y2="24.9202" gradientUnits="userSpaceOnUse">
<stop stop-color="#0B7377"/>
<stop offset="0.12" stop-color="#12777B"/>
<stop offset="0.29" stop-color="#248387"/>
<stop offset="0.48" stop-color="#439699"/>
<stop offset="0.7" stop-color="#6DB1B3"/>
<stop offset="0.94" stop-color="#A3D2D5"/>
<stop offset="1" stop-color="#B2DCDE"/>
</linearGradient>
<linearGradient id="paint5_linear_82_35" x1="119.73" y1="49.6619" x2="161.111" y2="80.033" gradientUnits="userSpaceOnUse">
<stop stop-color="#0B7377"/>
<stop offset="1" stop-color="#B2DCDE"/>
</linearGradient>
<linearGradient id="paint6_linear_82_35" x1="104.99" y1="40.9921" x2="160.04" y2="78.3143" gradientUnits="userSpaceOnUse">
<stop stop-color="#0B7377"/>
<stop offset="1" stop-color="#B2DCDE"/>
</linearGradient>
<linearGradient id="paint7_linear_82_35" x1="126.571" y1="60.267" x2="147.105" y2="66.1731" gradientUnits="userSpaceOnUse">
<stop stop-color="#0D989D"/>
<stop offset="0.04" stop-color="#39ABAF"/>
<stop offset="0.08" stop-color="#62BCC0"/>
<stop offset="0.13" stop-color="#88CCCF"/>
<stop offset="0.19" stop-color="#A8DADC"/>
<stop offset="0.25" stop-color="#C4E6E7"/>
<stop offset="0.31" stop-color="#DAEFF0"/>
<stop offset="0.39" stop-color="#EBF6F7"/>
<stop offset="0.49" stop-color="#F6FBFB"/>
<stop offset="0.62" stop-color="#FDFEFE"/>
<stop offset="1" stop-color="white"/>
</linearGradient>
<linearGradient id="paint8_linear_82_35" x1="110.628" y1="52.8234" x2="183.083" y2="82.0082" gradientUnits="userSpaceOnUse">
<stop stop-color="#0D989D"/>
<stop offset="0.04" stop-color="#39ABAF"/>
<stop offset="0.08" stop-color="#62BCC0"/>
<stop offset="0.13" stop-color="#88CCCF"/>
<stop offset="0.19" stop-color="#A8DADC"/>
<stop offset="0.25" stop-color="#C4E6E7"/>
<stop offset="0.31" stop-color="#DAEFF0"/>
<stop offset="0.39" stop-color="#EBF6F7"/>
<stop offset="0.49" stop-color="#F6FBFB"/>
<stop offset="0.62" stop-color="#FDFEFE"/>
<stop offset="1" stop-color="white"/>
</linearGradient>
<linearGradient id="paint9_linear_82_35" x1="117.552" y1="62.0632" x2="172.97" y2="67.2756" gradientUnits="userSpaceOnUse">
<stop stop-color="#0B7377"/>
<stop offset="0.12" stop-color="#12777B"/>
<stop offset="0.29" stop-color="#248387"/>
<stop offset="0.48" stop-color="#439699"/>
<stop offset="0.7" stop-color="#6DB1B3"/>
<stop offset="0.94" stop-color="#A3D2D5"/>
<stop offset="1" stop-color="#B2DCDE"/>
</linearGradient>
<linearGradient id="paint10_linear_82_35" x1="-20.428" y1="182.07" x2="233.88" y2="7.32513" gradientUnits="userSpaceOnUse">
<stop stop-color="#0D989D"/>
<stop offset="0.03" stop-color="#2FA6AA"/>
<stop offset="0.08" stop-color="#58B6BA"/>
<stop offset="0.13" stop-color="#7EC5C8"/>
<stop offset="0.18" stop-color="#9ED2D4"/>
<stop offset="0.24" stop-color="#BADDDE"/>
<stop offset="0.31" stop-color="#D0E6E7"/>
<stop offset="0.39" stop-color="#E1EDED"/>
<stop offset="0.48" stop-color="#ECF2F2"/>
<stop offset="0.62" stop-color="#F3F4F4"/>
<stop offset="1" stop-color="#F5F5F5"/>
</linearGradient>
<linearGradient id="paint11_linear_82_35" x1="-88.8443" y1="218.9" x2="241.199" y2="40.4378" gradientUnits="userSpaceOnUse">
<stop stop-color="#0D989D" stop-opacity="0"/>
<stop offset="0.05" stop-color="#36AAAE" stop-opacity="0.17"/>
<stop offset="0.1" stop-color="#60BBBF" stop-opacity="0.34"/>
<stop offset="0.16" stop-color="#86CCCE" stop-opacity="0.5"/>
<stop offset="0.22" stop-color="#A7DADB" stop-opacity="0.64"/>
<stop offset="0.29" stop-color="#C2E5E6" stop-opacity="0.75"/>
<stop offset="0.37" stop-color="#D9EFF0" stop-opacity="0.84"/>
<stop offset="0.45" stop-color="#EAF6F6" stop-opacity="0.91"/>
<stop offset="0.56" stop-color="#F6FBFB" stop-opacity="0.96"/>
<stop offset="0.7" stop-color="#FDFEFE" stop-opacity="0.99"/>
<stop offset="1" stop-color="white"/>
</linearGradient>
<linearGradient id="paint12_linear_82_35" x1="31.6885" y1="161.315" x2="22.4801" y2="116.871" gradientUnits="userSpaceOnUse">
<stop stop-color="#0B7377"/>
<stop offset="1" stop-color="#B2DCDE"/>
</linearGradient>
<linearGradient id="paint13_linear_82_35" x1="121.821" y1="144.218" x2="126.974" y2="128.282" gradientUnits="userSpaceOnUse">
<stop stop-color="#0B7377"/>
<stop offset="1" stop-color="#B2DCDE"/>
</linearGradient>
<linearGradient id="paint14_linear_82_35" x1="95.6974" y1="31.3954" x2="99.4763" y2="81.6657" gradientUnits="userSpaceOnUse">
<stop stop-color="#0B7377"/>
<stop offset="1" stop-color="#B2DCDE"/>
</linearGradient>
<linearGradient id="paint15_linear_82_35" x1="76.7138" y1="160.014" x2="158.355" y2="81.7882" gradientUnits="userSpaceOnUse">
<stop stop-color="#0B7377"/>
<stop offset="1" stop-color="#B2DCDE"/>
</linearGradient>
<linearGradient id="paint16_linear_82_35" x1="102.797" y1="130.247" x2="122.959" y2="108.6" gradientUnits="userSpaceOnUse">
<stop offset="0.01" stop-color="#070707"/>
<stop offset="0.5" stop-color="#2A313B"/>
<stop offset="0.95" stop-color="#475367"/>
</linearGradient>
<linearGradient id="paint17_linear_82_35" x1="103.716" y1="133.529" x2="119.656" y2="112.967" gradientUnits="userSpaceOnUse">
<stop offset="0.01" stop-color="#070707"/>
<stop offset="0.18" stop-color="#0A0B0C"/>
<stop offset="0.39" stop-color="#14171B"/>
<stop offset="0.61" stop-color="#252A34"/>
<stop offset="0.85" stop-color="#3B4556"/>
<stop offset="0.95" stop-color="#475367"/>
</linearGradient>
<linearGradient id="paint18_linear_82_35" x1="114.221" y1="165.276" x2="143.949" y2="138.84" gradientUnits="userSpaceOnUse">
<stop stop-color="#0B7377"/>
<stop offset="0.12" stop-color="#12777B"/>
<stop offset="0.29" stop-color="#248387"/>
<stop offset="0.48" stop-color="#439699"/>
<stop offset="0.7" stop-color="#6DB1B3"/>
<stop offset="0.94" stop-color="#A3D2D5"/>
<stop offset="1" stop-color="#B2DCDE"/>
</linearGradient>
<linearGradient id="paint19_linear_82_35" x1="124.571" y1="150.921" x2="200.779" y2="121.782" gradientUnits="userSpaceOnUse">
<stop stop-color="#0D989D" stop-opacity="0"/>
<stop offset="0.05" stop-color="#36AAAE" stop-opacity="0.17"/>
<stop offset="0.1" stop-color="#60BBBF" stop-opacity="0.34"/>
<stop offset="0.16" stop-color="#86CCCE" stop-opacity="0.5"/>
<stop offset="0.22" stop-color="#A7DADB" stop-opacity="0.64"/>
<stop offset="0.29" stop-color="#C2E5E6" stop-opacity="0.75"/>
<stop offset="0.37" stop-color="#D9EFF0" stop-opacity="0.84"/>
<stop offset="0.45" stop-color="#EAF6F6" stop-opacity="0.91"/>
<stop offset="0.56" stop-color="#F6FBFB" stop-opacity="0.96"/>
<stop offset="0.7" stop-color="#FDFEFE" stop-opacity="0.99"/>
<stop offset="1" stop-color="white"/>
</linearGradient>
<linearGradient id="paint20_linear_82_35" x1="152.426" y1="173.405" x2="135.145" y2="126.076" gradientUnits="userSpaceOnUse">
<stop stop-color="#0B7377"/>
<stop offset="0.12" stop-color="#12777B"/>
<stop offset="0.29" stop-color="#248387"/>
<stop offset="0.48" stop-color="#439699"/>
<stop offset="0.7" stop-color="#6DB1B3"/>
<stop offset="0.94" stop-color="#A3D2D5"/>
<stop offset="1" stop-color="#B2DCDE"/>
</linearGradient>
<linearGradient id="paint21_linear_82_35" x1="142.172" y1="156.538" x2="134.328" y2="95.4279" gradientUnits="userSpaceOnUse">
<stop offset="0.02" stop-color="#247B7E"/>
<stop offset="0.38" stop-color="#40AFB3"/>
<stop offset="0.47" stop-color="#47B2B6"/>
<stop offset="0.61" stop-color="#59B9BC"/>
<stop offset="0.77" stop-color="#78C5C8"/>
<stop offset="0.94" stop-color="#A2D6D8"/>
<stop offset="1" stop-color="#B2DCDE"/>
</linearGradient>
<linearGradient id="paint22_linear_82_35" x1="113.515" y1="185.966" x2="148.596" y2="161.862" gradientUnits="userSpaceOnUse">
<stop stop-color="#0B7377"/>
<stop offset="0.12" stop-color="#12777B"/>
<stop offset="0.29" stop-color="#248387"/>
<stop offset="0.48" stop-color="#439699"/>
<stop offset="0.7" stop-color="#6DB1B3"/>
<stop offset="0.94" stop-color="#A3D2D5"/>
<stop offset="1" stop-color="#B2DCDE"/>
</linearGradient>
<linearGradient id="paint23_linear_82_35" x1="132.318" y1="176.153" x2="200.776" y2="149.975" gradientUnits="userSpaceOnUse">
<stop stop-color="#0D989D" stop-opacity="0"/>
<stop offset="0.05" stop-color="#36AAAE" stop-opacity="0.17"/>
<stop offset="0.1" stop-color="#60BBBF" stop-opacity="0.34"/>
<stop offset="0.16" stop-color="#86CCCE" stop-opacity="0.5"/>
<stop offset="0.22" stop-color="#A7DADB" stop-opacity="0.64"/>
<stop offset="0.29" stop-color="#C2E5E6" stop-opacity="0.75"/>
<stop offset="0.37" stop-color="#D9EFF0" stop-opacity="0.84"/>
<stop offset="0.45" stop-color="#EAF6F6" stop-opacity="0.91"/>
<stop offset="0.56" stop-color="#F6FBFB" stop-opacity="0.96"/>
<stop offset="0.7" stop-color="#FDFEFE" stop-opacity="0.99"/>
<stop offset="1" stop-color="white"/>
</linearGradient>
<linearGradient id="paint24_linear_82_35" x1="111.669" y1="202" x2="159.86" y2="148.143" gradientUnits="userSpaceOnUse">
<stop stop-color="#0B7377"/>
<stop offset="0.12" stop-color="#12777B"/>
<stop offset="0.29" stop-color="#248387"/>
<stop offset="0.48" stop-color="#439699"/>
<stop offset="0.7" stop-color="#6DB1B3"/>
<stop offset="0.94" stop-color="#A3D2D5"/>
<stop offset="1" stop-color="#B2DCDE"/>
</linearGradient>
<linearGradient id="paint25_linear_82_35" x1="141.222" y1="172.358" x2="164.931" y2="136.818" gradientUnits="userSpaceOnUse">
<stop offset="0.02" stop-color="#247B7E"/>
<stop offset="0.38" stop-color="#40AFB3"/>
<stop offset="0.47" stop-color="#47B2B6"/>
<stop offset="0.61" stop-color="#59B9BC"/>
<stop offset="0.77" stop-color="#78C5C8"/>
<stop offset="0.94" stop-color="#A2D6D8"/>
<stop offset="1" stop-color="#B2DCDE"/>
</linearGradient>
<linearGradient id="paint26_linear_82_35" x1="-1.64146" y1="45.1944" x2="53.8762" y2="-9.42804" gradientUnits="userSpaceOnUse">
<stop stop-color="#0B7377"/>
<stop offset="1" stop-color="#B2DCDE"/>
</linearGradient>
<linearGradient id="paint27_linear_82_35" x1="-18.2941" y1="65.0498" x2="50.9351" y2="-8.32846" gradientUnits="userSpaceOnUse">
<stop stop-color="#0B7377"/>
<stop offset="1" stop-color="#B2DCDE"/>
</linearGradient>
<linearGradient id="paint28_linear_82_35" x1="15.9796" y1="37.5748" x2="29.8031" y2="8.32648" gradientUnits="userSpaceOnUse">
<stop stop-color="#0D989D"/>
<stop offset="0.04" stop-color="#39ABAF"/>
<stop offset="0.08" stop-color="#62BCC0"/>
<stop offset="0.13" stop-color="#88CCCF"/>
<stop offset="0.19" stop-color="#A8DADC"/>
<stop offset="0.25" stop-color="#C4E6E7"/>
<stop offset="0.31" stop-color="#DAEFF0"/>
<stop offset="0.39" stop-color="#EBF6F7"/>
<stop offset="0.49" stop-color="#F6FBFB"/>
<stop offset="0.62" stop-color="#FDFEFE"/>
<stop offset="1" stop-color="white"/>
</linearGradient>
<linearGradient id="paint29_linear_82_35" x1="0.869932" y1="59.5499" x2="62.1164" y2="-41.7203" gradientUnits="userSpaceOnUse">
<stop stop-color="#0D989D"/>
<stop offset="0.04" stop-color="#39ABAF"/>
<stop offset="0.08" stop-color="#62BCC0"/>
<stop offset="0.13" stop-color="#88CCCF"/>
<stop offset="0.19" stop-color="#A8DADC"/>
<stop offset="0.25" stop-color="#C4E6E7"/>
<stop offset="0.31" stop-color="#DAEFF0"/>
<stop offset="0.39" stop-color="#EBF6F7"/>
<stop offset="0.49" stop-color="#F6FBFB"/>
<stop offset="0.62" stop-color="#FDFEFE"/>
<stop offset="1" stop-color="white"/>
</linearGradient>
<linearGradient id="paint30_linear_82_35" x1="16.4557" y1="51.4964" x2="37.7813" y2="-30.0169" gradientUnits="userSpaceOnUse">
<stop stop-color="#0B7377"/>
<stop offset="0.12" stop-color="#12777B"/>
<stop offset="0.29" stop-color="#248387"/>
<stop offset="0.48" stop-color="#439699"/>
<stop offset="0.7" stop-color="#6DB1B3"/>
<stop offset="0.94" stop-color="#A3D2D5"/>
<stop offset="1" stop-color="#B2DCDE"/>
</linearGradient>
<linearGradient id="paint31_linear_82_35" x1="19.258" y1="66.5227" x2="147.485" y2="44.6534" gradientUnits="userSpaceOnUse">
<stop stop-color="#0B7377"/>
<stop offset="1" stop-color="#B2DCDE"/>
</linearGradient>
<linearGradient id="paint32_linear_82_35" x1="-22.5107" y1="77.9132" x2="142.414" y2="43.415" gradientUnits="userSpaceOnUse">
<stop stop-color="#0B7377"/>
<stop offset="1" stop-color="#B2DCDE"/>
</linearGradient>
<linearGradient id="paint33_linear_82_35" x1="50.6548" y1="72.8179" x2="97.5047" y2="45.8695" gradientUnits="userSpaceOnUse">
<stop stop-color="#0D989D"/>
<stop offset="0.04" stop-color="#39ABAF"/>
<stop offset="0.08" stop-color="#62BCC0"/>
<stop offset="0.13" stop-color="#88CCCF"/>
<stop offset="0.19" stop-color="#A8DADC"/>
<stop offset="0.25" stop-color="#C4E6E7"/>
<stop offset="0.31" stop-color="#DAEFF0"/>
<stop offset="0.39" stop-color="#EBF6F7"/>
<stop offset="0.49" stop-color="#F6FBFB"/>
<stop offset="0.62" stop-color="#FDFEFE"/>
<stop offset="1" stop-color="white"/>
</linearGradient>
<linearGradient id="paint34_linear_82_35" x1="8.98319" y1="88.5659" x2="189.581" y2="8.08239" gradientUnits="userSpaceOnUse">
<stop stop-color="#0D989D"/>
<stop offset="0.04" stop-color="#39ABAF"/>
<stop offset="0.08" stop-color="#62BCC0"/>
<stop offset="0.13" stop-color="#88CCCF"/>
<stop offset="0.19" stop-color="#A8DADC"/>
<stop offset="0.25" stop-color="#C4E6E7"/>
<stop offset="0.31" stop-color="#DAEFF0"/>
<stop offset="0.39" stop-color="#EBF6F7"/>
<stop offset="0.49" stop-color="#F6FBFB"/>
<stop offset="0.62" stop-color="#FDFEFE"/>
<stop offset="1" stop-color="white"/>
</linearGradient>
<linearGradient id="paint35_linear_82_35" x1="38.0217" y1="92.3303" x2="144.921" y2="0.794931" gradientUnits="userSpaceOnUse">
<stop stop-color="#0B7377"/>
<stop offset="0.12" stop-color="#12777B"/>
<stop offset="0.29" stop-color="#248387"/>
<stop offset="0.48" stop-color="#439699"/>
<stop offset="0.7" stop-color="#6DB1B3"/>
<stop offset="0.94" stop-color="#A3D2D5"/>
<stop offset="1" stop-color="#B2DCDE"/>
</linearGradient>
<linearGradient id="paint36_linear_82_35" x1="-2.64272" y1="154.334" x2="40.7979" y2="103.568" gradientUnits="userSpaceOnUse">
<stop stop-color="#0B7377"/>
<stop offset="1" stop-color="#B2DCDE"/>
</linearGradient>
<linearGradient id="paint37_linear_82_35" x1="-19.3282" y1="169.704" x2="50.2693" y2="95.9481" gradientUnits="userSpaceOnUse">
<stop stop-color="#0B7377"/>
<stop offset="1" stop-color="#B2DCDE"/>
</linearGradient>
<linearGradient id="paint38_linear_82_35" x1="-17.7525" y1="167.993" x2="47.8025" y2="98.5211" gradientUnits="userSpaceOnUse">
<stop stop-color="#0B7377"/>
<stop offset="1" stop-color="#B2DCDE"/>
</linearGradient>
<linearGradient id="paint39_linear_82_35" x1="-14.2068" y1="157.468" x2="87.0162" y2="69.2793" gradientUnits="userSpaceOnUse">
<stop stop-color="#0D989D"/>
<stop offset="0.03" stop-color="#2FA6AA"/>
<stop offset="0.08" stop-color="#58B6BA"/>
<stop offset="0.13" stop-color="#7EC5C8"/>
<stop offset="0.18" stop-color="#9ED2D4"/>
<stop offset="0.24" stop-color="#BADDDE"/>
<stop offset="0.31" stop-color="#D0E6E7"/>
<stop offset="0.39" stop-color="#E1EDED"/>
<stop offset="0.48" stop-color="#ECF2F2"/>
<stop offset="0.62" stop-color="#F3F4F4"/>
<stop offset="1" stop-color="#F5F5F5"/>
</linearGradient>
<linearGradient id="paint40_linear_82_35" x1="-12.0401" y1="158.499" x2="110.52" y2="40.8745" gradientUnits="userSpaceOnUse">
<stop stop-color="#0D989D"/>
<stop offset="0.02" stop-color="#2CA4A9"/>
<stop offset="0.06" stop-color="#56B5B9"/>
<stop offset="0.1" stop-color="#7CC5C7"/>
<stop offset="0.15" stop-color="#9DD2D4"/>
<stop offset="0.2" stop-color="#B9DDDE"/>
<stop offset="0.26" stop-color="#CFE6E7"/>
<stop offset="0.32" stop-color="#E0EDED"/>
<stop offset="0.4" stop-color="#ECF1F2"/>
<stop offset="0.51" stop-color="#F3F4F4"/>
<stop offset="0.8" stop-color="#F5F5F5"/>
</linearGradient>
<linearGradient id="paint41_linear_82_35" x1="7.02547" y1="148.203" x2="24.699" y2="120.225" gradientUnits="userSpaceOnUse">
<stop offset="0.01" stop-color="#070707"/>
<stop offset="0.5" stop-color="#2A313B"/>
<stop offset="0.95" stop-color="#475367"/>
</linearGradient>
<linearGradient id="paint42_linear_82_35" x1="120.278" y1="162.199" x2="151.179" y2="155.575" gradientUnits="userSpaceOnUse">
<stop offset="0.02" stop-color="#247B7E"/>
<stop offset="0.38" stop-color="#40AFB3"/>
<stop offset="0.47" stop-color="#47B2B6"/>
<stop offset="0.61" stop-color="#59B9BC"/>
<stop offset="0.77" stop-color="#78C5C8"/>
<stop offset="0.94" stop-color="#A2D6D8"/>
<stop offset="1" stop-color="#B2DCDE"/>
</linearGradient>
<clipPath id="clip0_82_35">
<rect width="165" height="169" fill="white"/>
</clipPath>
</defs>
</svg>
